M48
; DRILL file {KiCad (6.0.11-0)} date Tuesday, February 07, 2023 at 03:53:00 PM
; FORMAT={-:-/ absolute / inch / decimal}
; #@! TF.CreationDate,2023-02-07T15:53:00-05:00
; #@! TF.GenerationSoftware,Kicad,Pcbnew,(6.0.11-0)
; #@! TF.FileFunction,NonPlated,1,2,NPTH
FMAT,2
INCH
; #@! TA.AperFunction,NonPlated,NPTH,ComponentDrill
T1C0.0315
; #@! TA.AperFunction,NonPlated,NPTH,ComponentDrill
T2C0.0472
; #@! TA.AperFunction,NonPlated,NPTH,ComponentDrill
T3C0.0669
; #@! TA.AperFunction,NonPlated,NPTH,ComponentDrill
T4C0.0689
; #@! TA.AperFunction,NonPlated,NPTH,ComponentDrill
T5C0.1570
; #@! TA.AperFunction,NonPlated,NPTH,ComponentDrill
T6C0.1575
%
G90
G05
T1
X4.1484Y-1.7505
X4.1484Y-2.0261
X6.375Y-1.7505
X6.375Y-2.0261
T2
X2.0445Y-2.4154
X2.0445Y-3.1654
X2.0445Y-3.9154
X2.0445Y-4.6654
X2.0445Y-5.4154
X2.0445Y-6.1654
X2.7945Y-2.4154
X2.7945Y-3.1654
X2.7945Y-3.9154
X2.7945Y-4.6654
X2.7945Y-5.4154
X2.7945Y-6.1654
X3.5445Y-2.4154
X3.5445Y-3.1654
X3.5445Y-3.9154
X3.5445Y-4.6654
X3.5445Y-5.4154
X3.5445Y-6.1654
X3.5859Y-1.7578
X4.2945Y-2.4154
X4.2945Y-3.1654
X4.2945Y-3.9154
X4.2945Y-4.6654
X4.2945Y-5.4154
X4.2945Y-6.1654
X5.0445Y-2.4154
X5.0445Y-3.1654
X5.0445Y-3.9154
X5.0445Y-4.6654
X5.0445Y-5.4154
X5.0445Y-6.1654
X5.7945Y-2.4154
X5.7945Y-3.1654
X5.7945Y-3.9154
X5.7945Y-4.6654
X5.7945Y-5.4154
X5.7945Y-6.1654
X6.5445Y-2.4154
X6.5445Y-3.1654
X6.5445Y-3.9154
X6.5445Y-4.6654
X6.5445Y-5.4154
X6.5445Y-6.1654
X7.2945Y-2.4154
X7.2945Y-3.1654
X7.2945Y-3.9154
X7.2945Y-4.6654
X7.2945Y-5.4154
X7.2945Y-6.1654
X8.0445Y-2.4154
X8.0445Y-3.1654
X8.0445Y-3.9154
X8.0445Y-4.6654
X8.0445Y-5.4154
X8.0445Y-6.1654
T3
X2.0335Y-2.25
X2.0335Y-3.0
X2.0335Y-3.75
X2.0335Y-4.5
X2.0335Y-5.25
X2.0335Y-6.0
X2.4665Y-2.25
X2.4665Y-3.0
X2.4665Y-3.75
X2.4665Y-4.5
X2.4665Y-5.25
X2.4665Y-6.0
X2.7835Y-2.25
X2.7835Y-3.0
X2.7835Y-3.75
X2.7835Y-4.5
X2.7835Y-5.25
X2.7835Y-6.0
X3.2165Y-2.25
X3.2165Y-3.0
X3.2165Y-3.75
X3.2165Y-4.5
X3.2165Y-5.25
X3.2165Y-6.0
X3.5335Y-2.25
X3.5335Y-3.0
X3.5335Y-3.75
X3.5335Y-4.5
X3.5335Y-5.25
X3.5335Y-6.0
X3.9665Y-2.25
X3.9665Y-3.0
X3.9665Y-3.75
X3.9665Y-4.5
X3.9665Y-5.25
X3.9665Y-6.0
X4.2835Y-2.25
X4.2835Y-3.0
X4.2835Y-3.75
X4.2835Y-4.5
X4.2835Y-5.25
X4.2835Y-6.0
X4.7165Y-2.25
X4.7165Y-3.0
X4.7165Y-3.75
X4.7165Y-4.5
X4.7165Y-5.25
X4.7165Y-6.0
X5.0335Y-2.25
X5.0335Y-3.0
X5.0335Y-3.75
X5.0335Y-4.5
X5.0335Y-5.25
X5.0335Y-6.0
X5.4665Y-2.25
X5.4665Y-3.0
X5.4665Y-3.75
X5.4665Y-4.5
X5.4665Y-5.25
X5.4665Y-6.0
X5.7835Y-2.25
X5.7835Y-3.0
X5.7835Y-3.75
X5.7835Y-4.5
X5.7835Y-5.25
X5.7835Y-6.0
X6.2165Y-2.25
X6.2165Y-3.0
X6.2165Y-3.75
X6.2165Y-4.5
X6.2165Y-5.25
X6.2165Y-6.0
X6.5335Y-2.25
X6.5335Y-3.0
X6.5335Y-3.75
X6.5335Y-4.5
X6.5335Y-5.25
X6.5335Y-6.0
X6.9665Y-2.25
X6.9665Y-3.0
X6.9665Y-3.75
X6.9665Y-4.5
X6.9665Y-5.25
X6.9665Y-6.0
X7.2835Y-2.25
X7.2835Y-3.0
X7.2835Y-3.75
X7.2835Y-4.5
X7.2835Y-5.25
X7.2835Y-6.0
X7.7165Y-2.25
X7.7165Y-3.0
X7.7165Y-3.75
X7.7165Y-4.5
X7.7165Y-5.25
X7.7165Y-6.0
X8.0335Y-2.25
X8.0335Y-3.0
X8.0335Y-3.75
X8.0335Y-4.5
X8.0335Y-5.25
X8.0335Y-6.0
X8.4665Y-2.25
X8.4665Y-3.0
X8.4665Y-3.75
X8.4665Y-4.5
X8.4665Y-5.25
X8.4665Y-6.0
T4
X2.05Y-2.25
X2.05Y-3.0
X2.05Y-3.75
X2.05Y-4.5
X2.05Y-5.25
X2.05Y-6.0
X2.45Y-2.25
X2.45Y-3.0
X2.45Y-3.75
X2.45Y-4.5
X2.45Y-5.25
X2.45Y-6.0
X2.8Y-2.25
X2.8Y-3.0
X2.8Y-3.75
X2.8Y-4.5
X2.8Y-5.25
X2.8Y-6.0
X3.2Y-2.25
X3.2Y-3.0
X3.2Y-3.75
X3.2Y-4.5
X3.2Y-5.25
X3.2Y-6.0
X3.55Y-2.25
X3.55Y-3.0
X3.55Y-3.75
X3.55Y-4.5
X3.55Y-5.25
X3.55Y-6.0
X3.95Y-2.25
X3.95Y-3.0
X3.95Y-3.75
X3.95Y-4.5
X3.95Y-5.25
X3.95Y-6.0
X4.3Y-2.25
X4.3Y-3.0
X4.3Y-3.75
X4.3Y-4.5
X4.3Y-5.25
X4.3Y-6.0
X4.7Y-2.25
X4.7Y-3.0
X4.7Y-3.75
X4.7Y-4.5
X4.7Y-5.25
X4.7Y-6.0
X5.05Y-2.25
X5.05Y-3.0
X5.05Y-3.75
X5.05Y-4.5
X5.05Y-5.25
X5.05Y-6.0
X5.45Y-2.25
X5.45Y-3.0
X5.45Y-3.75
X5.45Y-4.5
X5.45Y-5.25
X5.45Y-6.0
X5.8Y-2.25
X5.8Y-3.0
X5.8Y-3.75
X5.8Y-4.5
X5.8Y-5.25
X5.8Y-6.0
X6.2Y-2.25
X6.2Y-3.0
X6.2Y-3.75
X6.2Y-4.5
X6.2Y-5.25
X6.2Y-6.0
X6.55Y-2.25
X6.55Y-3.0
X6.55Y-3.75
X6.55Y-4.5
X6.55Y-5.25
X6.55Y-6.0
X6.95Y-2.25
X6.95Y-3.0
X6.95Y-3.75
X6.95Y-4.5
X6.95Y-5.25
X6.95Y-6.0
X7.3Y-2.25
X7.3Y-3.0
X7.3Y-3.75
X7.3Y-4.5
X7.3Y-5.25
X7.3Y-6.0
X7.7Y-2.25
X7.7Y-3.0
X7.7Y-3.75
X7.7Y-4.5
X7.7Y-5.25
X7.7Y-6.0
X8.05Y-2.25
X8.05Y-3.0
X8.05Y-3.75
X8.05Y-4.5
X8.05Y-5.25
X8.05Y-6.0
X8.45Y-2.25
X8.45Y-3.0
X8.45Y-3.75
X8.45Y-4.5
X8.45Y-5.25
X8.45Y-6.0
T5
X2.25Y-2.25
X2.25Y-3.0
X2.25Y-3.75
X2.25Y-4.5
X2.25Y-5.25
X2.25Y-6.0
X3.0Y-2.25
X3.0Y-3.0
X3.0Y-3.75
X3.0Y-4.5
X3.0Y-5.25
X3.0Y-6.0
X3.75Y-2.25
X3.75Y-3.0
X3.75Y-3.75
X3.75Y-4.5
X3.75Y-5.25
X3.75Y-6.0
X4.5Y-2.25
X4.5Y-3.0
X4.5Y-3.75
X4.5Y-4.5
X4.5Y-5.25
X4.5Y-6.0
X5.25Y-2.25
X5.25Y-3.0
X5.25Y-3.75
X5.25Y-4.5
X5.25Y-5.25
X5.25Y-6.0
X6.0Y-2.25
X6.0Y-3.0
X6.0Y-3.75
X6.0Y-4.5
X6.0Y-5.25
X6.0Y-6.0
X6.75Y-2.25
X6.75Y-3.0
X6.75Y-3.75
X6.75Y-4.5
X6.75Y-5.25
X6.75Y-6.0
X7.5Y-2.25
X7.5Y-3.0
X7.5Y-3.75
X7.5Y-4.5
X7.5Y-5.25
X7.5Y-6.0
X8.25Y-2.25
X8.25Y-3.0
X8.25Y-3.75
X8.25Y-4.5
X8.25Y-5.25
X8.25Y-6.0
T6
X2.625Y-3.375
X2.625Y-4.875
X2.625Y-4.125
X2.625Y-5.625
X4.125Y-2.625
X4.125Y-4.875
X4.125Y-5.625
X4.125Y-4.125
X6.375Y-2.625
X6.375Y-4.875
X6.375Y-5.625
X6.375Y-4.125
X7.875Y-3.375
X7.875Y-4.875
X7.875Y-2.625
X7.875Y-5.625
T1
G00X2.3126Y-4.875
M15
G01X2.9374Y-4.875
M16
G05
G00X2.3126Y-5.625
M15
G01X2.9374Y-5.625
M16
G05
G00X3.0626Y-4.875
M15
G01X3.6874Y-4.875
M16
G05
G00X3.0626Y-5.625
M15
G01X3.6874Y-5.625
M16
G05
G00X3.8126Y-4.875
M15
G01X4.4374Y-4.875
M16
G05
G00X3.8126Y-5.625
M15
G01X4.4374Y-5.625
M16
G05
G00X4.5626Y-4.875
M15
G01X5.1874Y-4.875
M16
G05
G00X4.5626Y-5.625
M15
G01X5.1874Y-5.625
M16
G05
G00X5.3126Y-4.875
M15
G01X5.9374Y-4.875
M16
G05
G00X5.3126Y-5.625
M15
G01X5.9374Y-5.625
M16
G05
G00X6.0626Y-4.875
M15
G01X6.6874Y-4.875
M16
G05
G00X6.0626Y-5.625
M15
G01X6.6874Y-5.625
M16
G05
G00X6.8126Y-4.875
M15
G01X7.4374Y-4.875
M16
G05
G00X6.8126Y-5.625
M15
G01X7.4374Y-5.625
M16
G05
G00X7.1484Y-2.9374
M15
G01X7.1484Y-2.3126
M16
G05
G00X7.1484Y-3.6874
M15
G01X7.1484Y-3.0626
M16
G05
G00X7.1484Y-4.4374
M15
G01X7.1484Y-3.8126
M16
G05
G00X7.1484Y-5.1874
M15
G01X7.1484Y-4.5626
M16
G05
G00X7.1484Y-5.9374
M15
G01X7.1484Y-5.3126
M16
G05
G00X7.5626Y-5.625
M15
G01X8.1874Y-5.625
M16
G05
G00X7.5626Y-4.875
M15
G01X8.1874Y-4.875
M16
G05
G00X7.8984Y-2.9374
M15
G01X7.8984Y-2.3126
M16
G05
G00X7.8984Y-3.6874
M15
G01X7.8984Y-3.0626
M16
G05
G00X7.8984Y-4.4374
M15
G01X7.8984Y-3.8126
M16
G05
G00X7.8984Y-5.1874
M15
G01X7.8984Y-4.5626
M16
G05
G00X7.8984Y-5.9374
M15
G01X7.8984Y-5.3126
M16
G05
T0
M30
