G04 #@! TF.GenerationSoftware,KiCad,Pcbnew,7.0.7*
G04 #@! TF.CreationDate,2023-11-01T16:24:29-04:00*
G04 #@! TF.ProjectId,bfo9000,62666f39-3030-4302-9e6b-696361645f70,rev?*
G04 #@! TF.SameCoordinates,Original*
G04 #@! TF.FileFunction,Profile,NP*
%FSLAX46Y46*%
G04 Gerber Fmt 4.6, Leading zero omitted, Abs format (unit mm)*
G04 Created by KiCad (PCBNEW 7.0.7) date 2023-11-01 16:24:29*
%MOMM*%
%LPD*%
G01*
G04 APERTURE LIST*
G04 #@! TA.AperFunction,Profile*
%ADD10C,0.150000*%
G04 #@! TD*
G04 APERTURE END LIST*
D10*
X166985035Y-47327282D02*
G75*
G03*
X167282672Y-47624960I297656J-22D01*
G01*
X166985016Y-43457776D02*
X166985035Y-47327282D01*
X166985016Y-43457776D02*
G75*
G03*
X166389723Y-42862419I-595312J45D01*
G01*
X156567056Y-47624960D02*
G75*
G03*
X156864693Y-47327282I-19J297656D01*
G01*
X157460005Y-42862419D02*
G75*
G03*
X156864712Y-43457776I19J-595312D01*
G01*
X67270237Y-42862419D02*
G75*
G03*
X66674944Y-43457776I19J-595312D01*
G01*
X66377307Y-47624982D02*
G75*
G03*
X66674944Y-47327304I-19J297656D01*
G01*
X108942096Y-47327323D02*
G75*
G03*
X109239774Y-47624960I297656J19D01*
G01*
X219075163Y-145851685D02*
G75*
G03*
X216693939Y-143470437I-2381263J-15D01*
G01*
X216693932Y-142279880D02*
G75*
G03*
X219075180Y-139898559I-32J2381280D01*
G01*
X203597042Y-47625094D02*
G75*
G03*
X201215794Y-50006292I-42J-2381206D01*
G01*
X200025160Y-50006288D02*
G75*
G03*
X197643916Y-47625040I-2381260J-12D01*
G01*
X156864693Y-47327282D02*
X156864712Y-43457776D01*
X50006208Y-124420176D02*
X55959328Y-124420176D01*
X55959328Y-123229552D02*
X50006208Y-123229552D01*
X55959328Y-124420248D02*
G75*
G03*
X55959328Y-123229552I-28J595348D01*
G01*
X50006208Y-124420160D02*
G75*
G03*
X47624960Y-126801424I-8J-2381240D01*
G01*
X47624948Y-120848304D02*
G75*
G03*
X50006208Y-123229552I2381252J4D01*
G01*
X216694016Y-123230064D02*
G75*
G03*
X219075264Y-120848784I-16J2381264D01*
G01*
X210740896Y-124420656D02*
X216694016Y-124420656D01*
X219075244Y-126801904D02*
G75*
G03*
X216694016Y-124420656I-2381244J4D01*
G01*
X210740896Y-123229944D02*
G75*
G03*
X210740896Y-124420656I4J-595356D01*
G01*
X216694016Y-123230032D02*
X210740896Y-123230032D01*
X184546720Y-47624972D02*
G75*
G03*
X182165472Y-50006208I-20J-2381228D01*
G01*
X219075187Y-157162613D02*
X219075187Y-145851685D01*
X182165472Y-55959328D02*
X182165472Y-50006208D01*
X216693568Y-47624960D02*
X203596704Y-47624960D01*
X201215456Y-153590496D02*
G75*
G03*
X200024832Y-153590496I-595312J0D01*
G01*
X50006208Y-143470192D02*
X55959328Y-143470192D01*
X201215456Y-157162368D02*
X201215456Y-158352992D01*
X182165484Y-158352992D02*
G75*
G03*
X183356096Y-159543616I1190616J-8D01*
G01*
X183356096Y-159543616D02*
X198834208Y-159543616D01*
X200024832Y-55959328D02*
G75*
G03*
X201215456Y-55959328I595312J0D01*
G01*
X50006208Y-47624960D02*
G75*
G03*
X47624960Y-50006208I-8J-2381240D01*
G01*
X180974848Y-55959328D02*
G75*
G03*
X182165472Y-55959328I595312J0D01*
G01*
X201215484Y-158352992D02*
G75*
G03*
X202406080Y-159543616I1190616J-8D01*
G01*
X108346739Y-42862464D02*
X67270237Y-42862419D01*
X55959328Y-143470232D02*
G75*
G03*
X55959328Y-142279568I-28J595332D01*
G01*
X47624984Y-157162368D02*
G75*
G03*
X50006208Y-159543616I2381216J-32D01*
G01*
X47624960Y-157162368D02*
X47624960Y-145851440D01*
X182165472Y-154185808D02*
G75*
G03*
X180974848Y-154185808I-595312J0D01*
G01*
X216693939Y-159543887D02*
G75*
G03*
X219075187Y-157162632I-39J2381287D01*
G01*
X200024832Y-50006208D02*
X200024832Y-55959328D01*
X180974848Y-154185808D02*
X180974848Y-158352992D01*
X182165472Y-158352992D02*
X182165472Y-154185808D01*
X47624960Y-139898320D02*
X47624960Y-126801456D01*
X201215456Y-157162368D02*
X201215456Y-153590496D01*
X108942096Y-43457757D02*
G75*
G03*
X108346739Y-42862464I-595312J-19D01*
G01*
X55959328Y-142279568D02*
X50006208Y-142279568D01*
X216693568Y-142279568D02*
X210740448Y-142279568D01*
X66377307Y-47624982D02*
X50006208Y-47624960D01*
X210740448Y-143470192D02*
X216693568Y-143470192D01*
X200024832Y-153590496D02*
X200024832Y-157162368D01*
X197643584Y-47624960D02*
X184546720Y-47624960D01*
X219074816Y-139898320D02*
X219074816Y-126801456D01*
X47624932Y-139898320D02*
G75*
G03*
X50006208Y-142279568I2381268J20D01*
G01*
X200024832Y-158352992D02*
X200024832Y-157162368D01*
X180974848Y-50006208D02*
X180974848Y-55959328D01*
X66674944Y-43457776D02*
X66674944Y-47327304D01*
X157460005Y-42862419D02*
X166389723Y-42862419D01*
X179784224Y-159543616D02*
X50006208Y-159543880D01*
X202406080Y-159543616D02*
X216693568Y-159543616D01*
X219074840Y-50006208D02*
G75*
G03*
X216693568Y-47624960I-2381240J8D01*
G01*
X179784224Y-159543648D02*
G75*
G03*
X180974848Y-158352992I-24J1190648D01*
G01*
X198834542Y-159543966D02*
G75*
G03*
X200025166Y-158353260I-42J1190666D01*
G01*
X219074816Y-50006208D02*
X219074816Y-120848336D01*
X47624960Y-120848336D02*
X47624960Y-50006208D01*
X156567056Y-47624960D02*
X109239774Y-47624960D01*
X108942096Y-47327323D02*
X108942096Y-43457757D01*
X180974840Y-50006208D02*
G75*
G03*
X178593600Y-47624960I-2381240J8D01*
G01*
X201215456Y-55959328D02*
X201215456Y-50006208D01*
X50006208Y-143470190D02*
G75*
G03*
X47624960Y-145851440I2J-2381250D01*
G01*
X167282672Y-47624960D02*
X178593600Y-47624960D01*
X210740448Y-142279608D02*
G75*
G03*
X210740448Y-143470192I-48J-595292D01*
G01*
M02*
