M48
; DRILL file {KiCad (6.0.11-0)} date Tuesday, February 07, 2023 at 03:53:00 PM
; FORMAT={-:-/ absolute / inch / decimal}
; #@! TF.CreationDate,2023-02-07T15:53:00-05:00
; #@! TF.GenerationSoftware,Kicad,Pcbnew,(6.0.11-0)
; #@! TF.FileFunction,Plated,1,2,PTH
FMAT,2
INCH
; #@! TA.AperFunction,Plated,PTH,ComponentDrill
T1C0.0118
; #@! TA.AperFunction,Plated,PTH,ViaDrill
T2C0.0157
; #@! TA.AperFunction,Plated,PTH,ComponentDrill
T3C0.0354
; #@! TA.AperFunction,Plated,PTH,ComponentDrill
T4C0.0390
; #@! TA.AperFunction,Plated,PTH,ComponentDrill
T5C0.0394
; #@! TA.AperFunction,Plated,PTH,ComponentDrill
T6C0.0430
; #@! TA.AperFunction,Plated,PTH,ComponentDrill
T7C0.0472
; #@! TA.AperFunction,Plated,PTH,ComponentDrill
T8C0.0512
; #@! TA.AperFunction,Plated,PTH,ComponentDrill
T9C0.0579
%
G90
G05
T1
X1.9465Y-4.0461
X1.9833Y-5.377
X2.0929Y-3.3291
X2.3689Y-4.9575
X2.3947Y-5.4262
X2.3957Y-2.3209
X2.4173Y-3.2594
X2.4262Y-4.8061
X2.5437Y-1.9673
X2.5787Y-2.6358
X2.6248Y-3.5079
X2.689Y-3.1988
X2.7963Y-4.0541
X2.814Y-4.748
X2.8913Y-2.3122
X2.9189Y-3.3291
X2.9297Y-5.4141
X2.9594Y-4.6657
X3.0Y-2.5551
X3.1402Y-2.3063
X3.1638Y-2.5717
X3.3136Y-3.0419
X3.3366Y-5.4774
X3.5163Y-2.051
X3.6179Y-3.064
X3.6252Y-2.2976
X3.6362Y-2.6059
X3.722Y-2.4146
X3.8224Y-2.1701
X3.8752Y-6.0602
X3.8829Y-5.4823
X3.8913Y-3.8197
X3.8949Y-4.5602
X3.8972Y-5.3146
X3.9016Y-2.1803
X3.9061Y-3.075
X3.9634Y-2.4122
X3.9925Y-2.5543
X4.1425Y-2.2496
X4.2549Y-2.8219
X4.3106Y-2.0614
X4.3673Y-2.3378
X4.3701Y-4.5622
X4.3703Y-3.0719
X4.3724Y-6.0626
X4.3728Y-3.8063
X4.3787Y-5.3012
X4.4531Y-2.4141
X4.6406Y-2.2969
X4.752Y-2.5896
X4.7578Y-2.1562
X4.8327Y-6.1949
X4.8346Y-5.4724
X4.8573Y-2.0022
X4.8945Y-2.9252
X4.9185Y-3.2488
X5.0537Y-2.0053
X5.2266Y-2.4141
X5.3768Y-6.0614
X5.3898Y-4.5634
X5.4114Y-5.3189
X5.4134Y-3.8205
X5.4774Y-2.7913
X5.5945Y-5.5069
X5.6348Y-2.6309
X5.7632Y-2.0278
X5.8506Y-2.4022
X5.8683Y-2.3144
X5.8693Y-3.0689
X5.8705Y-4.5665
X5.8736Y-5.3071
X5.8764Y-3.8189
X5.8764Y-6.0657
X6.2106Y-5.4823
X6.6797Y-2.4141
X6.8789Y-2.6073
X6.8931Y-3.0722
X6.8935Y-2.3156
X6.9173Y-5.4941
X7.3016Y-4.9831
X7.3325Y-5.4762
X7.364Y-4.5648
X7.3691Y-2.3187
X7.3699Y-5.3132
X7.3793Y-3.0502
X7.4039Y-1.9394
X7.5236Y-3.3632
X7.5512Y-4.0581
X7.5512Y-6.1811
X7.564Y-2.5896
X7.6024Y-4.7352
X7.6236Y-6.0677
X7.6415Y-3.0604
X7.6486Y-2.3163
X7.6772Y-5.5059
X7.6787Y-4.95
X7.9754Y-2.9724
X8.0325Y-5.4931
X8.1226Y-2.3187
X8.1242Y-5.312
X8.1254Y-3.0612
X8.126Y-6.0602
X8.1287Y-3.8104
X8.1496Y-1.9476
X8.2648Y-6.19
X8.2933Y-3.3396
X8.2969Y-2.5547
X8.3209Y-4.1142
X8.3672Y-6.0703
X8.372Y-5.4902
X8.3848Y-3.0679
X8.3927Y-5.3222
X8.3943Y-4.5648
X8.3947Y-2.3163
X8.3984Y-3.8179
X8.4734Y-4.999
T2
X1.9175Y-2.3559
X1.9552Y-2.7747
X1.9638Y-3.85
X1.9661Y-1.9547
X2.7892Y-2.6972
X3.362Y-2.451
X3.3709Y-2.3083
X3.4782Y-2.3047
X3.5252Y-2.5033
X3.5575Y-2.3327
X4.0087Y-1.987
X4.0295Y-2.1713
X4.0579Y-2.3426
X4.1173Y-1.9356
X4.2205Y-2.522
X4.2217Y-2.6858
X4.9772Y-1.9316
X4.9772Y-2.5472
X5.524Y-3.3661
X6.4677Y-2.522
X6.8484Y-2.4531
X6.9961Y-2.3862
X7.0016Y-2.5331
X7.0283Y-2.9949
X7.0394Y-2.2531
T4
X3.4875Y-1.8055
X3.6844Y-1.8055
T5
X2.5781Y-2.0965
X2.5781Y-2.4035
X2.5781Y-2.8465
X2.5781Y-3.1535
X2.5781Y-3.5965
X2.5781Y-3.9035
X2.5781Y-4.3465
X2.5781Y-4.6535
X2.5781Y-5.0965
X2.5781Y-5.4035
X2.5781Y-5.8465
X2.5781Y-6.1535
X2.6719Y-3.5965
X2.6719Y-3.9035
X2.6719Y-4.3465
X2.6719Y-4.6535
X2.6719Y-5.0965
X2.6719Y-5.4035
X2.6719Y-5.8465
X2.6719Y-6.1535
X3.4219Y-2.0965
X3.4219Y-2.4035
X3.4219Y-2.8465
X3.4219Y-3.1535
X4.0781Y-2.8465
X4.0781Y-3.1535
X4.0781Y-3.5965
X4.0781Y-3.9035
X4.0781Y-4.3465
X4.0781Y-4.6535
X4.0781Y-5.0965
X4.0781Y-5.4035
X4.0781Y-5.8465
X4.0781Y-6.1535
X4.1719Y-2.8465
X4.1719Y-3.1535
X4.1719Y-3.5965
X4.1719Y-3.9035
X4.1719Y-4.3465
X4.1719Y-4.6535
X4.1719Y-5.0965
X4.1719Y-5.4035
X4.1719Y-5.8465
X4.1719Y-6.1535
X4.8281Y-2.0965
X4.8281Y-2.4035
X4.9219Y-2.0965
X4.9219Y-2.4035
X5.4715Y-2.5781
X5.4715Y-2.6719
X5.5781Y-2.0965
X5.5781Y-2.4035
X5.5781Y-2.8465
X5.5781Y-3.1535
X5.5781Y-3.5965
X5.5781Y-3.9035
X5.5781Y-4.3465
X5.5781Y-4.6535
X5.5781Y-5.0965
X5.5781Y-5.4035
X5.5781Y-5.8465
X5.5781Y-6.1535
X5.6719Y-2.0965
X5.6719Y-2.4035
X5.6719Y-2.8465
X5.6719Y-3.1535
X5.6719Y-3.5965
X5.6719Y-3.9035
X5.6719Y-4.3465
X5.6719Y-4.6535
X5.6719Y-5.0965
X5.6719Y-5.4035
X5.6719Y-5.8465
X5.6719Y-6.1535
X5.7785Y-2.5781
X5.7785Y-2.6719
X7.0781Y-2.0965
X7.0781Y-2.4035
X7.0781Y-2.8465
X7.0781Y-3.1535
X7.0781Y-3.5965
X7.0781Y-3.9035
X7.0781Y-4.3465
X7.0781Y-4.6535
X7.0781Y-5.0965
X7.0781Y-5.4035
X7.0781Y-5.8465
X7.0781Y-6.1535
X7.8281Y-2.0965
X7.8281Y-2.4035
X7.8281Y-2.8465
X7.8281Y-3.1535
X7.8281Y-3.5965
X7.8281Y-3.9035
X7.8281Y-4.3465
X7.8281Y-4.6535
X7.8281Y-5.0965
X7.8281Y-5.4035
X7.8281Y-5.8465
X7.8281Y-6.1535
X8.5781Y-2.0965
X8.5781Y-2.4035
X8.5781Y-2.8465
X8.5781Y-3.1535
X8.5781Y-3.5965
X8.5781Y-3.9035
X8.5781Y-4.3465
X8.5781Y-4.6535
X8.5781Y-5.0965
X8.5781Y-5.4035
X8.5781Y-5.8465
X8.5781Y-6.1535
T6
X1.9453Y-3.9609
X1.9453Y-4.125
X1.9453Y-4.2891
X2.691Y-1.7938
X2.691Y-1.9938
X2.691Y-2.1938
X2.691Y-2.3938
X2.691Y-2.5938
X2.691Y-2.7938
X2.709Y-1.8938
X2.709Y-2.0938
X2.709Y-2.2938
X2.709Y-2.4938
X2.709Y-2.6938
X2.709Y-2.8938
X3.291Y-1.8938
X3.291Y-2.0938
X3.291Y-2.2938
X3.291Y-2.4938
X3.291Y-2.6938
X3.291Y-2.8938
X3.309Y-1.7938
X3.309Y-1.9938
X3.309Y-2.1938
X3.309Y-2.3938
X3.309Y-2.5938
X3.309Y-2.7938
X6.375Y-3.375
T7
X2.25Y-2.0177
X2.25Y-2.7677
X2.25Y-3.5177
X2.25Y-4.2677
X2.25Y-5.0177
X2.25Y-5.7677
X2.4469Y-2.1004
X2.4469Y-2.8504
X2.4469Y-3.6004
X2.4469Y-4.3504
X2.4469Y-5.1004
X2.4469Y-5.8504
X3.0Y-2.0177
X3.0Y-2.7677
X3.0Y-3.5177
X3.0Y-4.2677
X3.0Y-5.0177
X3.0Y-5.7677
X3.1969Y-2.1004
X3.1969Y-2.8504
X3.1969Y-3.6004
X3.1969Y-4.3504
X3.1969Y-5.1004
X3.1969Y-5.8504
X3.75Y-2.0177
X3.75Y-2.7677
X3.75Y-3.5177
X3.75Y-4.2677
X3.75Y-5.0177
X3.75Y-5.7677
X3.9469Y-2.1004
X3.9469Y-2.8504
X3.9469Y-3.6004
X3.9469Y-4.3504
X3.9469Y-5.1004
X3.9469Y-5.8504
X4.5Y-2.0177
X4.5Y-2.7677
X4.5Y-3.5177
X4.5Y-4.2677
X4.5Y-5.0177
X4.5Y-5.7677
X4.6969Y-2.1004
X4.6969Y-2.8504
X4.6969Y-3.6004
X4.6969Y-4.3504
X4.6969Y-5.1004
X4.6969Y-5.8504
X5.25Y-2.0177
X5.25Y-2.7677
X5.25Y-3.5177
X5.25Y-4.2677
X5.25Y-5.0177
X5.25Y-5.7677
X5.4469Y-2.1004
X5.4469Y-2.8504
X5.4469Y-3.6004
X5.4469Y-4.3504
X5.4469Y-5.1004
X5.4469Y-5.8504
X6.0Y-2.0177
X6.0Y-2.7677
X6.0Y-3.5177
X6.0Y-4.2677
X6.0Y-5.0177
X6.0Y-5.7677
X6.1969Y-2.1004
X6.1969Y-2.8504
X6.1969Y-3.6004
X6.1969Y-4.3504
X6.1969Y-5.1004
X6.1969Y-5.8504
X6.75Y-2.0177
X6.75Y-2.7677
X6.75Y-3.5177
X6.75Y-4.2677
X6.75Y-5.0177
X6.75Y-5.7677
X6.9469Y-2.1004
X6.9469Y-2.8504
X6.9469Y-3.6004
X6.9469Y-4.3504
X6.9469Y-5.1004
X6.9469Y-5.8504
X7.5Y-2.0177
X7.5Y-2.7677
X7.5Y-3.5177
X7.5Y-4.2677
X7.5Y-5.0177
X7.5Y-5.7677
X7.6969Y-2.1004
X7.6969Y-2.8504
X7.6969Y-3.6004
X7.6969Y-4.3504
X7.6969Y-5.1004
X7.6969Y-5.8504
X8.25Y-2.0177
X8.25Y-2.7677
X8.25Y-3.5177
X8.25Y-4.2677
X8.25Y-5.0177
X8.25Y-5.7677
X8.4469Y-2.1004
X8.4469Y-2.8504
X8.4469Y-3.6004
X8.4469Y-4.3504
X8.4469Y-5.1004
X8.4469Y-5.8504
T8
X3.4481Y-1.9035
X3.7241Y-1.9035
T9
X2.1Y-2.15
X2.1Y-2.9
X2.1Y-3.65
X2.1Y-4.4
X2.1Y-5.15
X2.1Y-5.9
X2.1516Y-2.0925
X2.1516Y-2.8425
X2.1516Y-3.5925
X2.1516Y-4.3425
X2.1516Y-5.0925
X2.1516Y-5.8425
X2.3484Y-2.0728
X2.3484Y-2.8228
X2.3484Y-3.5728
X2.3484Y-4.3228
X2.3484Y-5.0728
X2.3484Y-5.8228
X2.35Y-2.05
X2.35Y-2.8
X2.35Y-3.55
X2.35Y-4.3
X2.35Y-5.05
X2.35Y-5.8
X2.85Y-2.15
X2.85Y-2.9
X2.85Y-3.65
X2.85Y-4.4
X2.85Y-5.15
X2.85Y-5.9
X2.9016Y-2.0925
X2.9016Y-2.8425
X2.9016Y-3.5925
X2.9016Y-4.3425
X2.9016Y-5.0925
X2.9016Y-5.8425
X3.0984Y-2.0728
X3.0984Y-2.8228
X3.0984Y-3.5728
X3.0984Y-4.3228
X3.0984Y-5.0728
X3.0984Y-5.8228
X3.1Y-2.05
X3.1Y-2.8
X3.1Y-3.55
X3.1Y-4.3
X3.1Y-5.05
X3.1Y-5.8
X3.6Y-2.15
X3.6Y-2.9
X3.6Y-3.65
X3.6Y-4.4
X3.6Y-5.15
X3.6Y-5.9
X3.6516Y-2.0925
X3.6516Y-2.8425
X3.6516Y-3.5925
X3.6516Y-4.3425
X3.6516Y-5.0925
X3.6516Y-5.8425
X3.8484Y-2.0728
X3.8484Y-2.8228
X3.8484Y-3.5728
X3.8484Y-4.3228
X3.8484Y-5.0728
X3.8484Y-5.8228
X3.85Y-2.05
X3.85Y-2.8
X3.85Y-3.55
X3.85Y-4.3
X3.85Y-5.05
X3.85Y-5.8
X4.35Y-2.15
X4.35Y-2.9
X4.35Y-3.65
X4.35Y-4.4
X4.35Y-5.15
X4.35Y-5.9
X4.4016Y-2.0925
X4.4016Y-2.8425
X4.4016Y-3.5925
X4.4016Y-4.3425
X4.4016Y-5.0925
X4.4016Y-5.8425
X4.5984Y-2.0728
X4.5984Y-2.8228
X4.5984Y-3.5728
X4.5984Y-4.3228
X4.5984Y-5.0728
X4.5984Y-5.8228
X4.6Y-2.05
X4.6Y-2.8
X4.6Y-3.55
X4.6Y-4.3
X4.6Y-5.05
X4.6Y-5.8
X5.1Y-2.15
X5.1Y-2.9
X5.1Y-3.65
X5.1Y-4.4
X5.1Y-5.15
X5.1Y-5.9
X5.1516Y-2.0925
X5.1516Y-2.8425
X5.1516Y-3.5925
X5.1516Y-4.3425
X5.1516Y-5.0925
X5.1516Y-5.8425
X5.3484Y-2.0728
X5.3484Y-2.8228
X5.3484Y-3.5728
X5.3484Y-4.3228
X5.3484Y-5.0728
X5.3484Y-5.8228
X5.35Y-2.05
X5.35Y-2.8
X5.35Y-3.55
X5.35Y-4.3
X5.35Y-5.05
X5.35Y-5.8
X5.85Y-2.15
X5.85Y-2.9
X5.85Y-3.65
X5.85Y-4.4
X5.85Y-5.15
X5.85Y-5.9
X5.9016Y-2.0925
X5.9016Y-2.8425
X5.9016Y-3.5925
X5.9016Y-4.3425
X5.9016Y-5.0925
X5.9016Y-5.8425
X6.0984Y-2.0728
X6.0984Y-2.8228
X6.0984Y-3.5728
X6.0984Y-4.3228
X6.0984Y-5.0728
X6.0984Y-5.8228
X6.1Y-2.05
X6.1Y-2.8
X6.1Y-3.55
X6.1Y-4.3
X6.1Y-5.05
X6.1Y-5.8
X6.6Y-2.15
X6.6Y-2.9
X6.6Y-3.65
X6.6Y-4.4
X6.6Y-5.15
X6.6Y-5.9
X6.6516Y-2.0925
X6.6516Y-2.8425
X6.6516Y-3.5925
X6.6516Y-4.3425
X6.6516Y-5.0925
X6.6516Y-5.8425
X6.8484Y-2.0728
X6.8484Y-2.8228
X6.8484Y-3.5728
X6.8484Y-4.3228
X6.8484Y-5.0728
X6.8484Y-5.8228
X6.85Y-2.05
X6.85Y-2.8
X6.85Y-3.55
X6.85Y-4.3
X6.85Y-5.05
X6.85Y-5.8
X7.35Y-2.15
X7.35Y-2.9
X7.35Y-3.65
X7.35Y-4.4
X7.35Y-5.15
X7.35Y-5.9
X7.4016Y-2.0925
X7.4016Y-2.8425
X7.4016Y-3.5925
X7.4016Y-4.3425
X7.4016Y-5.0925
X7.4016Y-5.8425
X7.5984Y-2.0728
X7.5984Y-2.8228
X7.5984Y-3.5728
X7.5984Y-4.3228
X7.5984Y-5.0728
X7.5984Y-5.8228
X7.6Y-2.05
X7.6Y-2.8
X7.6Y-3.55
X7.6Y-4.3
X7.6Y-5.05
X7.6Y-5.8
X8.1Y-2.15
X8.1Y-2.9
X8.1Y-3.65
X8.1Y-4.4
X8.1Y-5.15
X8.1Y-5.9
X8.1516Y-2.0925
X8.1516Y-2.8425
X8.1516Y-3.5925
X8.1516Y-4.3425
X8.1516Y-5.0925
X8.1516Y-5.8425
X8.3484Y-2.0728
X8.3484Y-2.8228
X8.3484Y-3.5728
X8.3484Y-4.3228
X8.3484Y-5.0728
X8.3484Y-5.8228
X8.35Y-2.05
X8.35Y-2.8
X8.35Y-3.55
X8.35Y-4.3
X8.35Y-5.05
X8.35Y-5.8
T3
G00X4.0579Y-1.8214
M15
G01X4.0579Y-1.8056
M16
G05
G00X4.0579Y-1.9395
M15
G01X4.0579Y-1.9237
M16
G05
G00X4.0579Y-2.097
M15
G01X4.0579Y-2.0812
M16
G05
G00X4.239Y-2.1403
M15
G01X4.239Y-2.1245
M16
G05
G00X6.2845Y-1.8214
M15
G01X6.2845Y-1.8056
M16
G05
G00X6.2845Y-1.9395
M15
G01X6.2845Y-1.9237
M16
G05
G00X6.2845Y-2.097
M15
G01X6.2845Y-2.0812
M16
G05
G00X6.4656Y-2.1403
M15
G01X6.4656Y-2.1245
M16
G05
T0
M30
