M48
; DRILL file {KiCad 7.0.7} date 2023 November 01, Wednesday 16:24:33
; FORMAT={-:-/ absolute / metric / decimal}
; #@! TF.CreationDate,2023-11-01T16:24:33-04:00
; #@! TF.GenerationSoftware,Kicad,Pcbnew,7.0.7
; #@! TF.FileFunction,NonPlated,1,2,NPTH
FMAT,2
METRIC
; #@! TA.AperFunction,NonPlated,NPTH,ComponentDrill
T1C0.650
; #@! TA.AperFunction,NonPlated,NPTH,ComponentDrill
T2C0.800
; #@! TA.AperFunction,NonPlated,NPTH,ComponentDrill
T3C1.200
; #@! TA.AperFunction,NonPlated,NPTH,ComponentDrill
T4C1.700
; #@! TA.AperFunction,NonPlated,NPTH,ComponentDrill
T5C1.750
; #@! TA.AperFunction,NonPlated,NPTH,ComponentDrill
T6C3.988
; #@! TA.AperFunction,NonPlated,NPTH,ComponentDrill
T7C4.000
%
G90
G05
T1
X100.992Y-47.331
X106.772Y-47.331
X159.035Y-47.331
X164.815Y-47.331
T3
X51.93Y-61.35
X51.93Y-80.4
X51.93Y-99.45
X51.93Y-118.5
X51.93Y-137.55
X51.93Y-156.6
X70.98Y-61.35
X70.98Y-80.4
X70.98Y-99.45
X70.98Y-118.5
X70.98Y-137.55
X70.98Y-156.6
X90.03Y-61.35
X90.03Y-80.4
X90.03Y-99.45
X90.03Y-118.5
X90.03Y-137.55
X90.03Y-156.6
X109.08Y-61.35
X109.08Y-80.4
X109.08Y-99.45
X109.08Y-118.5
X109.08Y-137.55
X109.08Y-156.6
X128.13Y-61.35
X128.13Y-80.4
X128.13Y-99.45
X128.13Y-118.5
X128.13Y-137.55
X128.13Y-156.6
X147.18Y-61.35
X147.18Y-80.4
X147.18Y-99.45
X147.18Y-118.5
X147.18Y-137.55
X147.18Y-156.6
X166.23Y-61.35
X166.23Y-80.4
X166.23Y-99.45
X166.23Y-118.5
X166.23Y-137.55
X166.23Y-156.6
X185.28Y-61.35
X185.28Y-80.4
X185.28Y-99.45
X185.28Y-118.5
X185.28Y-137.55
X185.28Y-156.6
X204.33Y-61.35
X204.33Y-80.4
X204.33Y-99.45
X204.33Y-118.5
X204.33Y-137.55
X204.33Y-156.6
T4
X51.65Y-57.15
X51.65Y-76.2
X51.65Y-95.25
X51.65Y-114.3
X51.65Y-133.35
X51.65Y-152.4
X62.65Y-57.15
X62.65Y-76.2
X62.65Y-95.25
X62.65Y-114.3
X62.65Y-133.35
X62.65Y-152.4
X70.7Y-57.15
X70.7Y-76.2
X70.7Y-95.25
X70.7Y-114.3
X70.7Y-133.35
X70.7Y-152.4
X81.7Y-57.15
X81.7Y-76.2
X81.7Y-95.25
X81.7Y-114.3
X81.7Y-133.35
X81.7Y-152.4
X89.75Y-57.15
X89.75Y-76.2
X89.75Y-95.25
X89.75Y-114.3
X89.75Y-133.35
X89.75Y-152.4
X100.75Y-57.15
X100.75Y-76.2
X100.75Y-95.25
X100.75Y-114.3
X100.75Y-133.35
X100.75Y-152.4
X108.8Y-57.15
X108.8Y-76.2
X108.8Y-95.25
X108.8Y-114.3
X108.8Y-133.35
X108.8Y-152.4
X119.8Y-57.15
X119.8Y-76.2
X119.8Y-95.25
X119.8Y-114.3
X119.8Y-133.35
X119.8Y-152.4
X127.85Y-57.15
X127.85Y-76.2
X127.85Y-95.25
X127.85Y-114.3
X127.85Y-133.35
X127.85Y-152.4
X138.85Y-57.15
X138.85Y-76.2
X138.85Y-95.25
X138.85Y-114.3
X138.85Y-133.35
X138.85Y-152.4
X146.9Y-57.15
X146.9Y-76.2
X146.9Y-95.25
X146.9Y-114.3
X146.9Y-133.35
X146.9Y-152.4
X157.9Y-57.15
X157.9Y-76.2
X157.9Y-95.25
X157.9Y-114.3
X157.9Y-133.35
X157.9Y-152.4
X165.95Y-57.15
X165.95Y-76.2
X165.95Y-95.25
X165.95Y-114.3
X165.95Y-133.35
X165.95Y-152.4
X176.95Y-57.15
X176.95Y-76.2
X176.95Y-95.25
X176.95Y-114.3
X176.95Y-133.35
X176.95Y-152.4
X185.0Y-57.15
X185.0Y-76.2
X185.0Y-95.25
X185.0Y-114.3
X185.0Y-133.35
X185.0Y-152.4
X196.0Y-57.15
X196.0Y-76.2
X196.0Y-95.25
X196.0Y-114.3
X196.0Y-133.35
X196.0Y-152.4
X204.05Y-57.15
X204.05Y-76.2
X204.05Y-95.25
X204.05Y-114.3
X204.05Y-133.35
X204.05Y-152.4
X215.05Y-57.15
X215.05Y-76.2
X215.05Y-95.25
X215.05Y-114.3
X215.05Y-133.35
X215.05Y-152.4
T5
X52.07Y-57.15
X52.07Y-76.2
X52.07Y-95.25
X52.07Y-114.3
X52.07Y-133.35
X52.07Y-152.4
X62.23Y-57.15
X62.23Y-76.2
X62.23Y-95.25
X62.23Y-114.3
X62.23Y-133.35
X62.23Y-152.4
X71.12Y-57.15
X71.12Y-76.2
X71.12Y-95.25
X71.12Y-114.3
X71.12Y-133.35
X71.12Y-152.4
X81.28Y-57.15
X81.28Y-76.2
X81.28Y-95.25
X81.28Y-114.3
X81.28Y-133.35
X81.28Y-152.4
X90.17Y-57.15
X90.17Y-76.2
X90.17Y-95.25
X90.17Y-114.3
X90.17Y-133.35
X90.17Y-152.4
X100.33Y-57.15
X100.33Y-76.2
X100.33Y-95.25
X100.33Y-114.3
X100.33Y-133.35
X100.33Y-152.4
X109.22Y-57.15
X109.22Y-76.2
X109.22Y-95.25
X109.22Y-114.3
X109.22Y-133.35
X109.22Y-152.4
X119.38Y-57.15
X119.38Y-76.2
X119.38Y-95.25
X119.38Y-114.3
X119.38Y-133.35
X119.38Y-152.4
X128.27Y-57.15
X128.27Y-76.2
X128.27Y-95.25
X128.27Y-114.3
X128.27Y-133.35
X128.27Y-152.4
X138.43Y-57.15
X138.43Y-76.2
X138.43Y-95.25
X138.43Y-114.3
X138.43Y-133.35
X138.43Y-152.4
X147.32Y-57.15
X147.32Y-76.2
X147.32Y-95.25
X147.32Y-114.3
X147.32Y-133.35
X147.32Y-152.4
X157.48Y-57.15
X157.48Y-76.2
X157.48Y-95.25
X157.48Y-114.3
X157.48Y-133.35
X157.48Y-152.4
X166.37Y-57.15
X166.37Y-76.2
X166.37Y-95.25
X166.37Y-114.3
X166.37Y-133.35
X166.37Y-152.4
X176.53Y-57.15
X176.53Y-76.2
X176.53Y-95.25
X176.53Y-114.3
X176.53Y-133.35
X176.53Y-152.4
X185.42Y-57.15
X185.42Y-76.2
X185.42Y-95.25
X185.42Y-114.3
X185.42Y-133.35
X185.42Y-152.4
X195.58Y-57.15
X195.58Y-76.2
X195.58Y-95.25
X195.58Y-114.3
X195.58Y-133.35
X195.58Y-152.4
X204.47Y-57.15
X204.47Y-76.2
X204.47Y-95.25
X204.47Y-114.3
X204.47Y-133.35
X204.47Y-152.4
X214.63Y-57.15
X214.63Y-76.2
X214.63Y-95.25
X214.63Y-114.3
X214.63Y-133.35
X214.63Y-152.4
T6
X57.15Y-57.15
X57.15Y-76.2
X57.15Y-95.25
X57.15Y-114.3
X57.15Y-133.35
X57.15Y-152.4
X76.2Y-57.15
X76.2Y-76.2
X76.2Y-95.25
X76.2Y-114.3
X76.2Y-133.35
X76.2Y-152.4
X95.25Y-57.15
X95.25Y-76.2
X95.25Y-95.25
X95.25Y-114.3
X95.25Y-133.35
X95.25Y-152.4
X114.3Y-57.15
X114.3Y-76.2
X114.3Y-95.25
X114.3Y-114.3
X114.3Y-133.35
X114.3Y-152.4
X133.35Y-57.15
X133.35Y-76.2
X133.35Y-95.25
X133.35Y-114.3
X133.35Y-133.35
X133.35Y-152.4
X152.4Y-57.15
X152.4Y-76.2
X152.4Y-95.25
X152.4Y-114.3
X152.4Y-133.35
X152.4Y-152.4
X171.45Y-57.15
X171.45Y-76.2
X171.45Y-95.25
X171.45Y-114.3
X171.45Y-133.35
X171.45Y-152.4
X190.5Y-57.15
X190.5Y-76.2
X190.5Y-95.25
X190.5Y-114.3
X190.5Y-133.35
X190.5Y-152.4
X209.55Y-57.15
X209.55Y-76.2
X209.55Y-95.25
X209.55Y-114.3
X209.55Y-133.35
X209.55Y-152.4
T7
X66.675Y-85.725
X66.675Y-123.825
X66.675Y-104.775
X66.675Y-142.875
X104.775Y-66.675
X104.775Y-123.825
X104.775Y-142.875
X104.775Y-104.775
X161.925Y-66.675
X161.925Y-123.825
X161.925Y-142.875
X161.925Y-104.775
X200.025Y-85.725
X200.025Y-123.825
X200.025Y-66.675
X200.025Y-142.875
T2
G00X58.741Y-123.825
M15
G01X74.609Y-123.825
M16
G05
G00X58.741Y-142.875
M15
G01X74.609Y-142.875
M16
G05
G00X77.791Y-123.825
M15
G01X93.659Y-123.825
M16
G05
G00X77.791Y-142.875
M15
G01X93.659Y-142.875
M16
G05
G00X96.841Y-123.825
M15
G01X112.709Y-123.825
M16
G05
G00X96.841Y-142.875
M15
G01X112.709Y-142.875
M16
G05
G00X115.891Y-123.825
M15
G01X131.759Y-123.825
M16
G05
G00X115.891Y-142.875
M15
G01X131.759Y-142.875
M16
G05
G00X134.941Y-123.825
M15
G01X150.809Y-123.825
M16
G05
G00X134.941Y-142.875
M15
G01X150.809Y-142.875
M16
G05
G00X153.991Y-123.825
M15
G01X169.859Y-123.825
M16
G05
G00X153.991Y-142.875
M15
G01X169.86Y-142.875
M16
G05
G00X173.041Y-123.825
M15
G01X188.91Y-123.825
M16
G05
G00X173.041Y-142.875
M15
G01X188.91Y-142.875
M16
G05
G00X181.57Y-74.609
M15
G01X181.57Y-58.741
M16
G05
G00X181.57Y-93.659
M15
G01X181.57Y-77.791
M16
G05
G00X181.57Y-112.709
M15
G01X181.57Y-96.841
M16
G05
G00X181.57Y-131.759
M15
G01X181.57Y-115.891
M16
G05
G00X181.57Y-150.809
M15
G01X181.57Y-134.941
M16
G05
G00X192.09Y-142.875
M15
G01X207.959Y-142.875
M16
G05
G00X192.091Y-123.825
M15
G01X207.96Y-123.825
M16
G05
G00X200.62Y-74.609
M15
G01X200.62Y-58.741
M16
G05
G00X200.62Y-93.659
M15
G01X200.62Y-77.791
M16
G05
G00X200.62Y-112.709
M15
G01X200.62Y-96.841
M16
G05
G00X200.62Y-131.759
M15
G01X200.62Y-115.891
M16
G05
G00X200.62Y-150.809
M15
G01X200.62Y-134.941
M16
G05
T0
M30
