G04 #@! TF.GenerationSoftware,KiCad,Pcbnew,(6.0.11-0)*
G04 #@! TF.CreationDate,2023-02-07T15:52:56-05:00*
G04 #@! TF.ProjectId,bfo9000,62666f39-3030-4302-9e6b-696361645f70,rev?*
G04 #@! TF.SameCoordinates,Original*
G04 #@! TF.FileFunction,Legend,Top*
G04 #@! TF.FilePolarity,Positive*
%FSLAX46Y46*%
G04 Gerber Fmt 4.6, Leading zero omitted, Abs format (unit mm)*
G04 Created by KiCad (PCBNEW (6.0.11-0)) date 2023-02-07 15:52:56*
%MOMM*%
%LPD*%
G01*
G04 APERTURE LIST*
%ADD10C,0.150000*%
%ADD11C,0.200000*%
%ADD12C,0.381000*%
%ADD13C,0.120000*%
%ADD14C,1.752600*%
%ADD15R,1.752600X1.752600*%
%ADD16R,1.600000X1.600000*%
%ADD17C,1.600000*%
G04 APERTURE END LIST*
D10*
X70437715Y-45123204D02*
X70894858Y-45123204D01*
X70666287Y-45923204D02*
X70666287Y-45123204D01*
X71085334Y-45123204D02*
X71618668Y-45923204D01*
X71618668Y-45123204D02*
X71085334Y-45923204D01*
X72075811Y-45123204D02*
X72152001Y-45123204D01*
X72228192Y-45161300D01*
X72266287Y-45199395D01*
X72304382Y-45275585D01*
X72342477Y-45427966D01*
X72342477Y-45618442D01*
X72304382Y-45770823D01*
X72266287Y-45847014D01*
X72228192Y-45885109D01*
X72152001Y-45923204D01*
X72075811Y-45923204D01*
X71999620Y-45885109D01*
X71961525Y-45847014D01*
X71923430Y-45770823D01*
X71885334Y-45618442D01*
X71885334Y-45427966D01*
X71923430Y-45275585D01*
X71961525Y-45199395D01*
X71999620Y-45161300D01*
X72075811Y-45123204D01*
X73256763Y-45085109D02*
X72571049Y-46113680D01*
X73523430Y-45923204D02*
X73523430Y-45123204D01*
X73713906Y-45123204D01*
X73828192Y-45161300D01*
X73904382Y-45237490D01*
X73942477Y-45313680D01*
X73980572Y-45466061D01*
X73980572Y-45580347D01*
X73942477Y-45732728D01*
X73904382Y-45808919D01*
X73828192Y-45885109D01*
X73713906Y-45923204D01*
X73523430Y-45923204D01*
X74247239Y-45123204D02*
X74742477Y-45123204D01*
X74475811Y-45427966D01*
X74590096Y-45427966D01*
X74666287Y-45466061D01*
X74704382Y-45504157D01*
X74742477Y-45580347D01*
X74742477Y-45770823D01*
X74704382Y-45847014D01*
X74666287Y-45885109D01*
X74590096Y-45923204D01*
X74361525Y-45923204D01*
X74285334Y-45885109D01*
X74247239Y-45847014D01*
X70148587Y-48463204D02*
X70148587Y-47663204D01*
X70339064Y-47663204D01*
X70453349Y-47701300D01*
X70529540Y-47777490D01*
X70567635Y-47853680D01*
X70605730Y-48006061D01*
X70605730Y-48120347D01*
X70567635Y-48272728D01*
X70529540Y-48348919D01*
X70453349Y-48425109D01*
X70339064Y-48463204D01*
X70148587Y-48463204D01*
X70910492Y-47739395D02*
X70948587Y-47701300D01*
X71024778Y-47663204D01*
X71215254Y-47663204D01*
X71291444Y-47701300D01*
X71329540Y-47739395D01*
X71367635Y-47815585D01*
X71367635Y-47891776D01*
X71329540Y-48006061D01*
X70872397Y-48463204D01*
X71367635Y-48463204D01*
X70148587Y-58623204D02*
X70148587Y-57823204D01*
X70339064Y-57823204D01*
X70453349Y-57861300D01*
X70529540Y-57937490D01*
X70567635Y-58013680D01*
X70605730Y-58166061D01*
X70605730Y-58280347D01*
X70567635Y-58432728D01*
X70529540Y-58508919D01*
X70453349Y-58585109D01*
X70339064Y-58623204D01*
X70148587Y-58623204D01*
X71100968Y-57823204D02*
X71177159Y-57823204D01*
X71253349Y-57861300D01*
X71291444Y-57899395D01*
X71329540Y-57975585D01*
X71367635Y-58127966D01*
X71367635Y-58318442D01*
X71329540Y-58470823D01*
X71291444Y-58547014D01*
X71253349Y-58585109D01*
X71177159Y-58623204D01*
X71100968Y-58623204D01*
X71024778Y-58585109D01*
X70986683Y-58547014D01*
X70948587Y-58470823D01*
X70910492Y-58318442D01*
X70910492Y-58127966D01*
X70948587Y-57975585D01*
X70986683Y-57899395D01*
X71024778Y-57861300D01*
X71100968Y-57823204D01*
X70148587Y-56083204D02*
X70148587Y-55283204D01*
X70339064Y-55283204D01*
X70453349Y-55321300D01*
X70529540Y-55397490D01*
X70567635Y-55473680D01*
X70605730Y-55626061D01*
X70605730Y-55740347D01*
X70567635Y-55892728D01*
X70529540Y-55968919D01*
X70453349Y-56045109D01*
X70339064Y-56083204D01*
X70148587Y-56083204D01*
X71367635Y-56083204D02*
X70910492Y-56083204D01*
X71139064Y-56083204D02*
X71139064Y-55283204D01*
X71062873Y-55397490D01*
X70986683Y-55473680D01*
X70910492Y-55511776D01*
X70129540Y-52781300D02*
X70053349Y-52743204D01*
X69939064Y-52743204D01*
X69824778Y-52781300D01*
X69748587Y-52857490D01*
X69710492Y-52933680D01*
X69672397Y-53086061D01*
X69672397Y-53200347D01*
X69710492Y-53352728D01*
X69748587Y-53428919D01*
X69824778Y-53505109D01*
X69939064Y-53543204D01*
X70015254Y-53543204D01*
X70129540Y-53505109D01*
X70167635Y-53467014D01*
X70167635Y-53200347D01*
X70015254Y-53200347D01*
X70510492Y-53543204D02*
X70510492Y-52743204D01*
X70967635Y-53543204D01*
X70967635Y-52743204D01*
X71348587Y-53543204D02*
X71348587Y-52743204D01*
X71539064Y-52743204D01*
X71653349Y-52781300D01*
X71729540Y-52857490D01*
X71767635Y-52933680D01*
X71805730Y-53086061D01*
X71805730Y-53200347D01*
X71767635Y-53352728D01*
X71729540Y-53428919D01*
X71653349Y-53505109D01*
X71539064Y-53543204D01*
X71348587Y-53543204D01*
X70129540Y-50241300D02*
X70053349Y-50203204D01*
X69939064Y-50203204D01*
X69824778Y-50241300D01*
X69748587Y-50317490D01*
X69710492Y-50393680D01*
X69672397Y-50546061D01*
X69672397Y-50660347D01*
X69710492Y-50812728D01*
X69748587Y-50888919D01*
X69824778Y-50965109D01*
X69939064Y-51003204D01*
X70015254Y-51003204D01*
X70129540Y-50965109D01*
X70167635Y-50927014D01*
X70167635Y-50660347D01*
X70015254Y-50660347D01*
X70510492Y-51003204D02*
X70510492Y-50203204D01*
X70967635Y-51003204D01*
X70967635Y-50203204D01*
X71348587Y-51003204D02*
X71348587Y-50203204D01*
X71539064Y-50203204D01*
X71653349Y-50241300D01*
X71729540Y-50317490D01*
X71767635Y-50393680D01*
X71805730Y-50546061D01*
X71805730Y-50660347D01*
X71767635Y-50812728D01*
X71729540Y-50888919D01*
X71653349Y-50965109D01*
X71539064Y-51003204D01*
X71348587Y-51003204D01*
X70148587Y-61163204D02*
X70148587Y-60363204D01*
X70339064Y-60363204D01*
X70453349Y-60401300D01*
X70529540Y-60477490D01*
X70567635Y-60553680D01*
X70605730Y-60706061D01*
X70605730Y-60820347D01*
X70567635Y-60972728D01*
X70529540Y-61048919D01*
X70453349Y-61125109D01*
X70339064Y-61163204D01*
X70148587Y-61163204D01*
X71291444Y-60629871D02*
X71291444Y-61163204D01*
X71100968Y-60325109D02*
X70910492Y-60896538D01*
X71405730Y-60896538D01*
X70605730Y-63627014D02*
X70567635Y-63665109D01*
X70453349Y-63703204D01*
X70377159Y-63703204D01*
X70262873Y-63665109D01*
X70186683Y-63588919D01*
X70148587Y-63512728D01*
X70110492Y-63360347D01*
X70110492Y-63246061D01*
X70148587Y-63093680D01*
X70186683Y-63017490D01*
X70262873Y-62941300D01*
X70377159Y-62903204D01*
X70453349Y-62903204D01*
X70567635Y-62941300D01*
X70605730Y-62979395D01*
X71291444Y-62903204D02*
X71139064Y-62903204D01*
X71062873Y-62941300D01*
X71024778Y-62979395D01*
X70948587Y-63093680D01*
X70910492Y-63246061D01*
X70910492Y-63550823D01*
X70948587Y-63627014D01*
X70986683Y-63665109D01*
X71062873Y-63703204D01*
X71215254Y-63703204D01*
X71291444Y-63665109D01*
X71329540Y-63627014D01*
X71367635Y-63550823D01*
X71367635Y-63360347D01*
X71329540Y-63284157D01*
X71291444Y-63246061D01*
X71215254Y-63207966D01*
X71062873Y-63207966D01*
X70986683Y-63246061D01*
X70948587Y-63284157D01*
X70910492Y-63360347D01*
X70148587Y-66243204D02*
X70148587Y-65443204D01*
X70339064Y-65443204D01*
X70453349Y-65481300D01*
X70529540Y-65557490D01*
X70567635Y-65633680D01*
X70605730Y-65786061D01*
X70605730Y-65900347D01*
X70567635Y-66052728D01*
X70529540Y-66128919D01*
X70453349Y-66205109D01*
X70339064Y-66243204D01*
X70148587Y-66243204D01*
X70872397Y-65443204D02*
X71405730Y-65443204D01*
X71062873Y-66243204D01*
X70186683Y-68364157D02*
X70453349Y-68364157D01*
X70567635Y-68783204D02*
X70186683Y-68783204D01*
X70186683Y-67983204D01*
X70567635Y-67983204D01*
X71253349Y-67983204D02*
X71100968Y-67983204D01*
X71024778Y-68021300D01*
X70986683Y-68059395D01*
X70910492Y-68173680D01*
X70872397Y-68326061D01*
X70872397Y-68630823D01*
X70910492Y-68707014D01*
X70948587Y-68745109D01*
X71024778Y-68783204D01*
X71177159Y-68783204D01*
X71253349Y-68745109D01*
X71291444Y-68707014D01*
X71329540Y-68630823D01*
X71329540Y-68440347D01*
X71291444Y-68364157D01*
X71253349Y-68326061D01*
X71177159Y-68287966D01*
X71024778Y-68287966D01*
X70948587Y-68326061D01*
X70910492Y-68364157D01*
X70872397Y-68440347D01*
X70415254Y-70904157D02*
X70529540Y-70942252D01*
X70567635Y-70980347D01*
X70605730Y-71056538D01*
X70605730Y-71170823D01*
X70567635Y-71247014D01*
X70529540Y-71285109D01*
X70453349Y-71323204D01*
X70148587Y-71323204D01*
X70148587Y-70523204D01*
X70415254Y-70523204D01*
X70491444Y-70561300D01*
X70529540Y-70599395D01*
X70567635Y-70675585D01*
X70567635Y-70751776D01*
X70529540Y-70827966D01*
X70491444Y-70866061D01*
X70415254Y-70904157D01*
X70148587Y-70904157D01*
X71291444Y-70789871D02*
X71291444Y-71323204D01*
X71100968Y-70485109D02*
X70910492Y-71056538D01*
X71405730Y-71056538D01*
X70415254Y-73444157D02*
X70529540Y-73482252D01*
X70567635Y-73520347D01*
X70605730Y-73596538D01*
X70605730Y-73710823D01*
X70567635Y-73787014D01*
X70529540Y-73825109D01*
X70453349Y-73863204D01*
X70148587Y-73863204D01*
X70148587Y-73063204D01*
X70415254Y-73063204D01*
X70491444Y-73101300D01*
X70529540Y-73139395D01*
X70567635Y-73215585D01*
X70567635Y-73291776D01*
X70529540Y-73367966D01*
X70491444Y-73406061D01*
X70415254Y-73444157D01*
X70148587Y-73444157D01*
X71329540Y-73063204D02*
X70948587Y-73063204D01*
X70910492Y-73444157D01*
X70948587Y-73406061D01*
X71024778Y-73367966D01*
X71215254Y-73367966D01*
X71291444Y-73406061D01*
X71329540Y-73444157D01*
X71367635Y-73520347D01*
X71367635Y-73710823D01*
X71329540Y-73787014D01*
X71291444Y-73825109D01*
X71215254Y-73863204D01*
X71024778Y-73863204D01*
X70948587Y-73825109D01*
X70910492Y-73787014D01*
X81337254Y-73444157D02*
X81451540Y-73482252D01*
X81489635Y-73520347D01*
X81527730Y-73596538D01*
X81527730Y-73710823D01*
X81489635Y-73787014D01*
X81451540Y-73825109D01*
X81375349Y-73863204D01*
X81070587Y-73863204D01*
X81070587Y-73063204D01*
X81337254Y-73063204D01*
X81413444Y-73101300D01*
X81451540Y-73139395D01*
X81489635Y-73215585D01*
X81489635Y-73291776D01*
X81451540Y-73367966D01*
X81413444Y-73406061D01*
X81337254Y-73444157D01*
X81070587Y-73444157D01*
X82213444Y-73063204D02*
X82061064Y-73063204D01*
X81984873Y-73101300D01*
X81946778Y-73139395D01*
X81870587Y-73253680D01*
X81832492Y-73406061D01*
X81832492Y-73710823D01*
X81870587Y-73787014D01*
X81908683Y-73825109D01*
X81984873Y-73863204D01*
X82137254Y-73863204D01*
X82213444Y-73825109D01*
X82251540Y-73787014D01*
X82289635Y-73710823D01*
X82289635Y-73520347D01*
X82251540Y-73444157D01*
X82213444Y-73406061D01*
X82137254Y-73367966D01*
X81984873Y-73367966D01*
X81908683Y-73406061D01*
X81870587Y-73444157D01*
X81832492Y-73520347D01*
X81337254Y-68364157D02*
X81451540Y-68402252D01*
X81489635Y-68440347D01*
X81527730Y-68516538D01*
X81527730Y-68630823D01*
X81489635Y-68707014D01*
X81451540Y-68745109D01*
X81375349Y-68783204D01*
X81070587Y-68783204D01*
X81070587Y-67983204D01*
X81337254Y-67983204D01*
X81413444Y-68021300D01*
X81451540Y-68059395D01*
X81489635Y-68135585D01*
X81489635Y-68211776D01*
X81451540Y-68287966D01*
X81413444Y-68326061D01*
X81337254Y-68364157D01*
X81070587Y-68364157D01*
X81794397Y-67983204D02*
X82289635Y-67983204D01*
X82022968Y-68287966D01*
X82137254Y-68287966D01*
X82213444Y-68326061D01*
X82251540Y-68364157D01*
X82289635Y-68440347D01*
X82289635Y-68630823D01*
X82251540Y-68707014D01*
X82213444Y-68745109D01*
X82137254Y-68783204D01*
X81908683Y-68783204D01*
X81832492Y-68745109D01*
X81794397Y-68707014D01*
X81337254Y-65824157D02*
X81451540Y-65862252D01*
X81489635Y-65900347D01*
X81527730Y-65976538D01*
X81527730Y-66090823D01*
X81489635Y-66167014D01*
X81451540Y-66205109D01*
X81375349Y-66243204D01*
X81070587Y-66243204D01*
X81070587Y-65443204D01*
X81337254Y-65443204D01*
X81413444Y-65481300D01*
X81451540Y-65519395D01*
X81489635Y-65595585D01*
X81489635Y-65671776D01*
X81451540Y-65747966D01*
X81413444Y-65786061D01*
X81337254Y-65824157D01*
X81070587Y-65824157D01*
X82289635Y-66243204D02*
X81832492Y-66243204D01*
X82061064Y-66243204D02*
X82061064Y-65443204D01*
X81984873Y-65557490D01*
X81908683Y-65633680D01*
X81832492Y-65671776D01*
X81394397Y-55664157D02*
X81127730Y-55664157D01*
X81127730Y-56083204D02*
X81127730Y-55283204D01*
X81508683Y-55283204D01*
X82156302Y-55549871D02*
X82156302Y-56083204D01*
X81965825Y-55245109D02*
X81775349Y-55816538D01*
X82270587Y-55816538D01*
X80594397Y-52743204D02*
X80861064Y-53543204D01*
X81127730Y-52743204D01*
X81851540Y-53467014D02*
X81813444Y-53505109D01*
X81699159Y-53543204D01*
X81622968Y-53543204D01*
X81508683Y-53505109D01*
X81432492Y-53428919D01*
X81394397Y-53352728D01*
X81356302Y-53200347D01*
X81356302Y-53086061D01*
X81394397Y-52933680D01*
X81432492Y-52857490D01*
X81508683Y-52781300D01*
X81622968Y-52743204D01*
X81699159Y-52743204D01*
X81813444Y-52781300D01*
X81851540Y-52819395D01*
X82651540Y-53467014D02*
X82613444Y-53505109D01*
X82499159Y-53543204D01*
X82422968Y-53543204D01*
X82308683Y-53505109D01*
X82232492Y-53428919D01*
X82194397Y-53352728D01*
X82156302Y-53200347D01*
X82156302Y-53086061D01*
X82194397Y-52933680D01*
X82232492Y-52857490D01*
X82308683Y-52781300D01*
X82422968Y-52743204D01*
X82499159Y-52743204D01*
X82613444Y-52781300D01*
X82651540Y-52819395D01*
X81399850Y-50935109D02*
X81514136Y-50973204D01*
X81704612Y-50973204D01*
X81780803Y-50935109D01*
X81818898Y-50897014D01*
X81856993Y-50820823D01*
X81856993Y-50744633D01*
X81818898Y-50668442D01*
X81780803Y-50630347D01*
X81704612Y-50592252D01*
X81552231Y-50554157D01*
X81476041Y-50516061D01*
X81437945Y-50477966D01*
X81399850Y-50401776D01*
X81399850Y-50325585D01*
X81437945Y-50249395D01*
X81476041Y-50211300D01*
X81552231Y-50173204D01*
X81742707Y-50173204D01*
X81856993Y-50211300D01*
X82085564Y-50173204D02*
X82542707Y-50173204D01*
X82314136Y-50973204D02*
X82314136Y-50173204D01*
X81051540Y-47701300D02*
X80975349Y-47663204D01*
X80861064Y-47663204D01*
X80746778Y-47701300D01*
X80670587Y-47777490D01*
X80632492Y-47853680D01*
X80594397Y-48006061D01*
X80594397Y-48120347D01*
X80632492Y-48272728D01*
X80670587Y-48348919D01*
X80746778Y-48425109D01*
X80861064Y-48463204D01*
X80937254Y-48463204D01*
X81051540Y-48425109D01*
X81089635Y-48387014D01*
X81089635Y-48120347D01*
X80937254Y-48120347D01*
X81432492Y-48463204D02*
X81432492Y-47663204D01*
X81889635Y-48463204D01*
X81889635Y-47663204D01*
X82270587Y-48463204D02*
X82270587Y-47663204D01*
X82461064Y-47663204D01*
X82575349Y-47701300D01*
X82651540Y-47777490D01*
X82689635Y-47853680D01*
X82727730Y-48006061D01*
X82727730Y-48120347D01*
X82689635Y-48272728D01*
X82651540Y-48348919D01*
X82575349Y-48425109D01*
X82461064Y-48463204D01*
X82270587Y-48463204D01*
X81108683Y-45923204D02*
X80842016Y-45542252D01*
X80651540Y-45923204D02*
X80651540Y-45123204D01*
X80956302Y-45123204D01*
X81032492Y-45161300D01*
X81070587Y-45199395D01*
X81108683Y-45275585D01*
X81108683Y-45389871D01*
X81070587Y-45466061D01*
X81032492Y-45504157D01*
X80956302Y-45542252D01*
X80651540Y-45542252D01*
X81413444Y-45694633D02*
X81794397Y-45694633D01*
X81337254Y-45923204D02*
X81603921Y-45123204D01*
X81870587Y-45923204D01*
X82061064Y-45123204D02*
X82251540Y-45923204D01*
X82403921Y-45351776D01*
X82556302Y-45923204D01*
X82746778Y-45123204D01*
X81394397Y-58204157D02*
X81127730Y-58204157D01*
X81127730Y-58623204D02*
X81127730Y-57823204D01*
X81508683Y-57823204D01*
X82194397Y-57823204D02*
X81813444Y-57823204D01*
X81775349Y-58204157D01*
X81813444Y-58166061D01*
X81889635Y-58127966D01*
X82080111Y-58127966D01*
X82156302Y-58166061D01*
X82194397Y-58204157D01*
X82232492Y-58280347D01*
X82232492Y-58470823D01*
X82194397Y-58547014D01*
X82156302Y-58585109D01*
X82080111Y-58623204D01*
X81889635Y-58623204D01*
X81813444Y-58585109D01*
X81775349Y-58547014D01*
X81394397Y-60744157D02*
X81127730Y-60744157D01*
X81127730Y-61163204D02*
X81127730Y-60363204D01*
X81508683Y-60363204D01*
X82156302Y-60363204D02*
X82003921Y-60363204D01*
X81927730Y-60401300D01*
X81889635Y-60439395D01*
X81813444Y-60553680D01*
X81775349Y-60706061D01*
X81775349Y-61010823D01*
X81813444Y-61087014D01*
X81851540Y-61125109D01*
X81927730Y-61163204D01*
X82080111Y-61163204D01*
X82156302Y-61125109D01*
X82194397Y-61087014D01*
X82232492Y-61010823D01*
X82232492Y-60820347D01*
X82194397Y-60744157D01*
X82156302Y-60706061D01*
X82080111Y-60667966D01*
X81927730Y-60667966D01*
X81851540Y-60706061D01*
X81813444Y-60744157D01*
X81775349Y-60820347D01*
X81394397Y-63284157D02*
X81127730Y-63284157D01*
X81127730Y-63703204D02*
X81127730Y-62903204D01*
X81508683Y-62903204D01*
X81737254Y-62903204D02*
X82270587Y-62903204D01*
X81927730Y-63703204D01*
X81337254Y-70904157D02*
X81451540Y-70942252D01*
X81489635Y-70980347D01*
X81527730Y-71056538D01*
X81527730Y-71170823D01*
X81489635Y-71247014D01*
X81451540Y-71285109D01*
X81375349Y-71323204D01*
X81070587Y-71323204D01*
X81070587Y-70523204D01*
X81337254Y-70523204D01*
X81413444Y-70561300D01*
X81451540Y-70599395D01*
X81489635Y-70675585D01*
X81489635Y-70751776D01*
X81451540Y-70827966D01*
X81413444Y-70866061D01*
X81337254Y-70904157D01*
X81070587Y-70904157D01*
X81832492Y-70599395D02*
X81870587Y-70561300D01*
X81946778Y-70523204D01*
X82137254Y-70523204D01*
X82213444Y-70561300D01*
X82251540Y-70599395D01*
X82289635Y-70675585D01*
X82289635Y-70751776D01*
X82251540Y-70866061D01*
X81794397Y-71323204D01*
X82289635Y-71323204D01*
X81222968Y-51003204D02*
X80956302Y-50622252D01*
X80765825Y-51003204D02*
X80765825Y-50203204D01*
X81070587Y-50203204D01*
X81146778Y-50241300D01*
X81184873Y-50279395D01*
X81222968Y-50355585D01*
X81222968Y-50469871D01*
X81184873Y-50546061D01*
X81146778Y-50584157D01*
X81070587Y-50622252D01*
X80765825Y-50622252D01*
X81527730Y-50965109D02*
X81642016Y-51003204D01*
X81832492Y-51003204D01*
X81908683Y-50965109D01*
X81946778Y-50927014D01*
X81984873Y-50850823D01*
X81984873Y-50774633D01*
X81946778Y-50698442D01*
X81908683Y-50660347D01*
X81832492Y-50622252D01*
X81680111Y-50584157D01*
X81603921Y-50546061D01*
X81565825Y-50507966D01*
X81527730Y-50431776D01*
X81527730Y-50355585D01*
X81565825Y-50279395D01*
X81603921Y-50241300D01*
X81680111Y-50203204D01*
X81870587Y-50203204D01*
X81984873Y-50241300D01*
X82213444Y-50203204D02*
X82670587Y-50203204D01*
X82442016Y-51003204D02*
X82442016Y-50203204D01*
X70510587Y-45123204D02*
X70967730Y-45123204D01*
X70739159Y-45923204D02*
X70739159Y-45123204D01*
X71158206Y-45123204D02*
X71691540Y-45923204D01*
X71691540Y-45123204D02*
X71158206Y-45923204D01*
X72148683Y-45123204D02*
X72224873Y-45123204D01*
X72301064Y-45161300D01*
X72339159Y-45199395D01*
X72377254Y-45275585D01*
X72415349Y-45427966D01*
X72415349Y-45618442D01*
X72377254Y-45770823D01*
X72339159Y-45847014D01*
X72301064Y-45885109D01*
X72224873Y-45923204D01*
X72148683Y-45923204D01*
X72072492Y-45885109D01*
X72034397Y-45847014D01*
X71996302Y-45770823D01*
X71958206Y-45618442D01*
X71958206Y-45427966D01*
X71996302Y-45275585D01*
X72034397Y-45199395D01*
X72072492Y-45161300D01*
X72148683Y-45123204D01*
X89844793Y-48672733D02*
X89511460Y-48196543D01*
X89273365Y-48672733D02*
X89273365Y-47672733D01*
X89654317Y-47672733D01*
X89749555Y-47720353D01*
X89797174Y-47767972D01*
X89844793Y-47863210D01*
X89844793Y-48006067D01*
X89797174Y-48101305D01*
X89749555Y-48148924D01*
X89654317Y-48196543D01*
X89273365Y-48196543D01*
X90654317Y-48625114D02*
X90559079Y-48672733D01*
X90368603Y-48672733D01*
X90273365Y-48625114D01*
X90225746Y-48529876D01*
X90225746Y-48148924D01*
X90273365Y-48053686D01*
X90368603Y-48006067D01*
X90559079Y-48006067D01*
X90654317Y-48053686D01*
X90701936Y-48148924D01*
X90701936Y-48244162D01*
X90225746Y-48339400D01*
X91082889Y-48625114D02*
X91178127Y-48672733D01*
X91368603Y-48672733D01*
X91463841Y-48625114D01*
X91511460Y-48529876D01*
X91511460Y-48482257D01*
X91463841Y-48387019D01*
X91368603Y-48339400D01*
X91225746Y-48339400D01*
X91130508Y-48291781D01*
X91082889Y-48196543D01*
X91082889Y-48148924D01*
X91130508Y-48053686D01*
X91225746Y-48006067D01*
X91368603Y-48006067D01*
X91463841Y-48053686D01*
X92320984Y-48625114D02*
X92225746Y-48672733D01*
X92035269Y-48672733D01*
X91940031Y-48625114D01*
X91892412Y-48529876D01*
X91892412Y-48148924D01*
X91940031Y-48053686D01*
X92035269Y-48006067D01*
X92225746Y-48006067D01*
X92320984Y-48053686D01*
X92368603Y-48148924D01*
X92368603Y-48244162D01*
X91892412Y-48339400D01*
X92654317Y-48006067D02*
X93035269Y-48006067D01*
X92797174Y-47672733D02*
X92797174Y-48529876D01*
X92844793Y-48625114D01*
X92940031Y-48672733D01*
X93035269Y-48672733D01*
D11*
X163595993Y-91332214D02*
X163595993Y-90832214D01*
X164381707Y-90617929D02*
X164381707Y-91332214D01*
X162881707Y-91332214D01*
X162881707Y-90617929D01*
X164381707Y-90117929D02*
X163381707Y-89332214D01*
X163381707Y-90117929D02*
X164381707Y-89332214D01*
X163381707Y-88975072D02*
X163381707Y-88403643D01*
X162881707Y-88760786D02*
X164167421Y-88760786D01*
X164310278Y-88689357D01*
X164381707Y-88546500D01*
X164381707Y-88403643D01*
X164381707Y-87903643D02*
X163381707Y-87903643D01*
X163667421Y-87903643D02*
X163524564Y-87832214D01*
X163453136Y-87760786D01*
X163381707Y-87617929D01*
X163381707Y-87475072D01*
X164381707Y-86332214D02*
X163595993Y-86332214D01*
X163453136Y-86403643D01*
X163381707Y-86546500D01*
X163381707Y-86832214D01*
X163453136Y-86975072D01*
X164310278Y-86332214D02*
X164381707Y-86475072D01*
X164381707Y-86832214D01*
X164310278Y-86975072D01*
X164167421Y-87046500D01*
X164024564Y-87046500D01*
X163881707Y-86975072D01*
X163810278Y-86832214D01*
X163810278Y-86475072D01*
X163738850Y-86332214D01*
X164381707Y-84475072D02*
X162881707Y-84475072D01*
X162881707Y-84117929D01*
X162953136Y-83903643D01*
X163095993Y-83760786D01*
X163238850Y-83689357D01*
X163524564Y-83617929D01*
X163738850Y-83617929D01*
X164024564Y-83689357D01*
X164167421Y-83760786D01*
X164310278Y-83903643D01*
X164381707Y-84117929D01*
X164381707Y-84475072D01*
X164381707Y-82332214D02*
X163595993Y-82332214D01*
X163453136Y-82403643D01*
X163381707Y-82546500D01*
X163381707Y-82832214D01*
X163453136Y-82975072D01*
X164310278Y-82332214D02*
X164381707Y-82475072D01*
X164381707Y-82832214D01*
X164310278Y-82975072D01*
X164167421Y-83046500D01*
X164024564Y-83046500D01*
X163881707Y-82975072D01*
X163810278Y-82832214D01*
X163810278Y-82475072D01*
X163738850Y-82332214D01*
X163381707Y-81832214D02*
X163381707Y-81260786D01*
X162881707Y-81617929D02*
X164167421Y-81617929D01*
X164310278Y-81546500D01*
X164381707Y-81403643D01*
X164381707Y-81260786D01*
X164381707Y-80117929D02*
X163595993Y-80117929D01*
X163453136Y-80189357D01*
X163381707Y-80332214D01*
X163381707Y-80617929D01*
X163453136Y-80760786D01*
X164310278Y-80117929D02*
X164381707Y-80260786D01*
X164381707Y-80617929D01*
X164310278Y-80760786D01*
X164167421Y-80832214D01*
X164024564Y-80832214D01*
X163881707Y-80760786D01*
X163810278Y-80617929D01*
X163810278Y-80260786D01*
X163738850Y-80117929D01*
X51641359Y-105465564D02*
X51165169Y-105798897D01*
X51641359Y-106036992D02*
X50641359Y-106036992D01*
X50641359Y-105656040D01*
X50688979Y-105560802D01*
X50736598Y-105513183D01*
X50831836Y-105465564D01*
X50974693Y-105465564D01*
X51069931Y-105513183D01*
X51117550Y-105560802D01*
X51165169Y-105656040D01*
X51165169Y-106036992D01*
X50688979Y-104513183D02*
X50641359Y-104608421D01*
X50641359Y-104751278D01*
X50688979Y-104894135D01*
X50784217Y-104989373D01*
X50879455Y-105036992D01*
X51069931Y-105084611D01*
X51212788Y-105084611D01*
X51403264Y-105036992D01*
X51498502Y-104989373D01*
X51593740Y-104894135D01*
X51641359Y-104751278D01*
X51641359Y-104656040D01*
X51593740Y-104513183D01*
X51546121Y-104465564D01*
X51212788Y-104465564D01*
X51212788Y-104656040D01*
X51117550Y-103703659D02*
X51165169Y-103560802D01*
X51212788Y-103513183D01*
X51308026Y-103465564D01*
X51450883Y-103465564D01*
X51546121Y-103513183D01*
X51593740Y-103560802D01*
X51641359Y-103656040D01*
X51641359Y-104036992D01*
X50641359Y-104036992D01*
X50641359Y-103703659D01*
X50688979Y-103608421D01*
X50736598Y-103560802D01*
X50831836Y-103513183D01*
X50927074Y-103513183D01*
X51022312Y-103560802D01*
X51069931Y-103608421D01*
X51117550Y-103703659D01*
X51117550Y-104036992D01*
X50641359Y-110275612D02*
X51641359Y-109942279D01*
X50641359Y-109608945D01*
X51546121Y-108704183D02*
X51593740Y-108751802D01*
X51641359Y-108894659D01*
X51641359Y-108989898D01*
X51593740Y-109132755D01*
X51498502Y-109227993D01*
X51403264Y-109275612D01*
X51212788Y-109323231D01*
X51069931Y-109323231D01*
X50879455Y-109275612D01*
X50784217Y-109227993D01*
X50688979Y-109132755D01*
X50641359Y-108989898D01*
X50641359Y-108894659D01*
X50688979Y-108751802D01*
X50736598Y-108704183D01*
X51546121Y-107704183D02*
X51593740Y-107751802D01*
X51641359Y-107894659D01*
X51641359Y-107989898D01*
X51593740Y-108132755D01*
X51498502Y-108227993D01*
X51403264Y-108275612D01*
X51212788Y-108323231D01*
X51069931Y-108323231D01*
X50879455Y-108275612D01*
X50784217Y-108227993D01*
X50688979Y-108132755D01*
X50641359Y-107989898D01*
X50641359Y-107894659D01*
X50688979Y-107751802D01*
X50736598Y-107704183D01*
X50688979Y-101369801D02*
X50641359Y-101465039D01*
X50641359Y-101607897D01*
X50688979Y-101750754D01*
X50784217Y-101845992D01*
X50879455Y-101893611D01*
X51069931Y-101941230D01*
X51212788Y-101941230D01*
X51403264Y-101893611D01*
X51498502Y-101845992D01*
X51593740Y-101750754D01*
X51641359Y-101607897D01*
X51641359Y-101512658D01*
X51593740Y-101369801D01*
X51546121Y-101322182D01*
X51212788Y-101322182D01*
X51212788Y-101512658D01*
X51641359Y-100893611D02*
X50641359Y-100893611D01*
X51641359Y-100322182D01*
X50641359Y-100322182D01*
X51641359Y-99845992D02*
X50641359Y-99845992D01*
X50641359Y-99607897D01*
X50688979Y-99465039D01*
X50784217Y-99369801D01*
X50879455Y-99322182D01*
X51069931Y-99274563D01*
X51212788Y-99274563D01*
X51403264Y-99322182D01*
X51498502Y-99369801D01*
X51593740Y-99465039D01*
X51641359Y-99607897D01*
X51641359Y-99845992D01*
D12*
X69850064Y-44291300D02*
X67310064Y-44291300D01*
X67310064Y-41751300D02*
X67310064Y-44291300D01*
X85090064Y-41751300D02*
X67310064Y-41751300D01*
X85090064Y-44291300D02*
X85090064Y-41751300D01*
G36*
X81131632Y-50970660D02*
G01*
X81031632Y-50970660D01*
X81031632Y-50770660D01*
X81131632Y-50770660D01*
X81131632Y-50970660D01*
G37*
D10*
X81131632Y-50970660D02*
X81031632Y-50970660D01*
X81031632Y-50770660D01*
X81131632Y-50770660D01*
X81131632Y-50970660D01*
G36*
X80731632Y-50970660D02*
G01*
X80631632Y-50970660D01*
X80631632Y-50170660D01*
X80731632Y-50170660D01*
X80731632Y-50970660D01*
G37*
X80731632Y-50970660D02*
X80631632Y-50970660D01*
X80631632Y-50170660D01*
X80731632Y-50170660D01*
X80731632Y-50970660D01*
G36*
X81131632Y-50270660D02*
G01*
X80631632Y-50270660D01*
X80631632Y-50170660D01*
X81131632Y-50170660D01*
X81131632Y-50270660D01*
G37*
X81131632Y-50270660D02*
X80631632Y-50270660D01*
X80631632Y-50170660D01*
X81131632Y-50170660D01*
X81131632Y-50270660D01*
G36*
X80931632Y-50670660D02*
G01*
X80831632Y-50670660D01*
X80831632Y-50570660D01*
X80931632Y-50570660D01*
X80931632Y-50670660D01*
G37*
X80931632Y-50670660D02*
X80831632Y-50670660D01*
X80831632Y-50570660D01*
X80931632Y-50570660D01*
X80931632Y-50670660D01*
G36*
X81131632Y-50470660D02*
G01*
X81031632Y-50470660D01*
X81031632Y-50170660D01*
X81131632Y-50170660D01*
X81131632Y-50470660D01*
G37*
X81131632Y-50470660D02*
X81031632Y-50470660D01*
X81031632Y-50170660D01*
X81131632Y-50170660D01*
X81131632Y-50470660D01*
D12*
X69850064Y-46831300D02*
X67310064Y-46831300D01*
X69850064Y-44291300D02*
X69850064Y-46831300D01*
X85090064Y-74771300D02*
X85090064Y-44291300D01*
X67310064Y-74771300D02*
X85090064Y-74771300D01*
X67310064Y-44291300D02*
X67310064Y-74771300D01*
D13*
X87742889Y-46828475D02*
X87742889Y-47058475D01*
X87222889Y-43158475D02*
X94942889Y-43158475D01*
X94942889Y-43158475D02*
X94942889Y-47058475D01*
X87222889Y-43158475D02*
X87222889Y-47058475D01*
X94422889Y-46828475D02*
X94422889Y-47058475D01*
X93882889Y-46828475D02*
X94422889Y-46828475D01*
X87742889Y-46828475D02*
X88282889Y-46828475D01*
X89382889Y-46828475D02*
X92782889Y-46828475D01*
D14*
X84048664Y-45561300D03*
X68808664Y-73501300D03*
X83591464Y-48101300D03*
X84048664Y-50641300D03*
X83591464Y-53181300D03*
X84048664Y-55721300D03*
X83591464Y-58261300D03*
X84048664Y-60801300D03*
X83591464Y-63341300D03*
X84048664Y-65881300D03*
X83591464Y-68421300D03*
X84048664Y-70961300D03*
X83591464Y-73501300D03*
X68351464Y-70961300D03*
X68808664Y-68421300D03*
X68351464Y-65881300D03*
X68808664Y-63341300D03*
X68351464Y-60801300D03*
X68808664Y-58261300D03*
X68351464Y-55721300D03*
X68808664Y-53181300D03*
X68351464Y-50641300D03*
X68808664Y-48101300D03*
D15*
X68351464Y-45561300D03*
D16*
X65484430Y-61050048D03*
D17*
X65484430Y-53250048D03*
D16*
X86915698Y-61050048D03*
D17*
X86915698Y-53250048D03*
D16*
X122634478Y-61050048D03*
D17*
X122634478Y-53250048D03*
D16*
X125015730Y-61050048D03*
D17*
X125015730Y-53250048D03*
D16*
X141684494Y-61050000D03*
D17*
X141684494Y-53250000D03*
D16*
X144065746Y-61050048D03*
D17*
X144065746Y-53250048D03*
D16*
X179784526Y-61050000D03*
D17*
X179784526Y-53250000D03*
D16*
X198834542Y-61050048D03*
D17*
X198834542Y-53250048D03*
D16*
X217884558Y-61050048D03*
D17*
X217884558Y-53250048D03*
D16*
X65484430Y-80100064D03*
D17*
X65484430Y-72300064D03*
D16*
X86915698Y-80100000D03*
D17*
X86915698Y-72300000D03*
D16*
X103584462Y-80100000D03*
D17*
X103584462Y-72300000D03*
D16*
X105965714Y-80100000D03*
D17*
X105965714Y-72300000D03*
D16*
X141684494Y-80100064D03*
D17*
X141684494Y-72300064D03*
D16*
X144065746Y-80100064D03*
D17*
X144065746Y-72300064D03*
D16*
X179784526Y-80100000D03*
D17*
X179784526Y-72300000D03*
D16*
X198834542Y-80100064D03*
D17*
X198834542Y-72300064D03*
D16*
X217884558Y-80100064D03*
D17*
X217884558Y-72300064D03*
D16*
X65484430Y-99150000D03*
D17*
X65484430Y-91350000D03*
D16*
X67865682Y-99150000D03*
D17*
X67865682Y-91350000D03*
D16*
X105965714Y-99150080D03*
D17*
X105965714Y-91350080D03*
D16*
X141684494Y-99150080D03*
D17*
X141684494Y-91350080D03*
D16*
X144065746Y-99150080D03*
D17*
X144065746Y-91350080D03*
D16*
X179784526Y-99150000D03*
D17*
X179784526Y-91350000D03*
D16*
X198834542Y-99150080D03*
D17*
X198834542Y-91350080D03*
D16*
X217884558Y-99150000D03*
D17*
X217884558Y-91350000D03*
D16*
X65484430Y-118200096D03*
D17*
X65484430Y-110400096D03*
D16*
X67865682Y-118200000D03*
D17*
X67865682Y-110400000D03*
D16*
X103584462Y-118200000D03*
D17*
X103584462Y-110400000D03*
D16*
X105965714Y-118200000D03*
D17*
X105965714Y-110400000D03*
D16*
X141684494Y-118200096D03*
D17*
X141684494Y-110400096D03*
D16*
X144065746Y-118200096D03*
D17*
X144065746Y-110400096D03*
D16*
X179784526Y-118200000D03*
D17*
X179784526Y-110400000D03*
D16*
X198834542Y-118200000D03*
D17*
X198834542Y-110400000D03*
D16*
X217884558Y-118200096D03*
D17*
X217884558Y-110400096D03*
D16*
X65484430Y-137250000D03*
D17*
X65484430Y-129450000D03*
D16*
X67865682Y-137250000D03*
D17*
X67865682Y-129450000D03*
D16*
X103584462Y-137250000D03*
D17*
X103584462Y-129450000D03*
D16*
X105965714Y-137250112D03*
D17*
X105965714Y-129450112D03*
D16*
X141684494Y-137250112D03*
D17*
X141684494Y-129450112D03*
D16*
X144065746Y-137250000D03*
D17*
X144065746Y-129450000D03*
D16*
X179784526Y-137250112D03*
D17*
X179784526Y-129450112D03*
D16*
X198834542Y-137250112D03*
D17*
X198834542Y-129450112D03*
D16*
X217884558Y-137250000D03*
D17*
X217884558Y-129450000D03*
D16*
X65484430Y-156300128D03*
D17*
X65484430Y-148500128D03*
D16*
X67865682Y-156300000D03*
D17*
X67865682Y-148500000D03*
D16*
X103584462Y-156300000D03*
D17*
X103584462Y-148500000D03*
D16*
X105965714Y-156300000D03*
D17*
X105965714Y-148500000D03*
D16*
X141684494Y-156300000D03*
D17*
X141684494Y-148500000D03*
D16*
X144065746Y-156300128D03*
D17*
X144065746Y-148500128D03*
D16*
X179784526Y-156300128D03*
D17*
X179784526Y-148500128D03*
D16*
X198834542Y-156300128D03*
D17*
X198834542Y-148500128D03*
D16*
X217884558Y-156300128D03*
D17*
X217884558Y-148500128D03*
D16*
X103584462Y-99150000D03*
D17*
X103584462Y-91350000D03*
D14*
X161925136Y-85725072D03*
X49410979Y-104775088D03*
X49410979Y-108942279D03*
X49410979Y-100607897D03*
M02*
