G04 #@! TF.GenerationSoftware,KiCad,Pcbnew,(6.0.11-0)*
G04 #@! TF.CreationDate,2023-02-07T15:52:56-05:00*
G04 #@! TF.ProjectId,bfo9000,62666f39-3030-4302-9e6b-696361645f70,rev?*
G04 #@! TF.SameCoordinates,Original*
G04 #@! TF.FileFunction,Soldermask,Top*
G04 #@! TF.FilePolarity,Negative*
%FSLAX46Y46*%
G04 Gerber Fmt 4.6, Leading zero omitted, Abs format (unit mm)*
G04 Created by KiCad (PCBNEW (6.0.11-0)) date 2023-02-07 15:52:56*
%MOMM*%
%LPD*%
G01*
G04 APERTURE LIST*
G04 Aperture macros list*
%AMRoundRect*
0 Rectangle with rounded corners*
0 $1 Rounding radius*
0 $2 $3 $4 $5 $6 $7 $8 $9 X,Y pos of 4 corners*
0 Add a 4 corners polygon primitive as box body*
4,1,4,$2,$3,$4,$5,$6,$7,$8,$9,$2,$3,0*
0 Add four circle primitives for the rounded corners*
1,1,$1+$1,$2,$3*
1,1,$1+$1,$4,$5*
1,1,$1+$1,$6,$7*
1,1,$1+$1,$8,$9*
0 Add four rect primitives between the rounded corners*
20,1,$1+$1,$2,$3,$4,$5,0*
20,1,$1+$1,$4,$5,$6,$7,0*
20,1,$1+$1,$6,$7,$8,$9,0*
20,1,$1+$1,$8,$9,$2,$3,0*%
%AMHorizOval*
0 Thick line with rounded ends*
0 $1 width*
0 $2 $3 position (X,Y) of the first rounded end (center of the circle)*
0 $4 $5 position (X,Y) of the second rounded end (center of the circle)*
0 Add line between two ends*
20,1,$1,$2,$3,$4,$5,0*
0 Add two circle primitives to create the rounded ends*
1,1,$1,$2,$3*
1,1,$1,$4,$5*%
G04 Aperture macros list end*
%ADD10C,2.152600*%
%ADD11RoundRect,0.200000X-0.876300X0.876300X-0.876300X-0.876300X0.876300X-0.876300X0.876300X0.876300X0*%
%ADD12RoundRect,0.200000X-0.800000X0.800000X-0.800000X-0.800000X0.800000X-0.800000X0.800000X0.800000X0*%
%ADD13C,2.000000*%
%ADD14C,1.600000*%
%ADD15C,2.100000*%
%ADD16C,2.400000*%
%ADD17C,2.150000*%
%ADD18C,2.650000*%
%ADD19C,4.387800*%
%ADD20HorizOval,2.650000X0.654995X0.730004X-0.654995X-0.730004X0*%
%ADD21HorizOval,2.650000X0.019771X0.290016X-0.019771X-0.290016X0*%
%ADD22O,17.068750X1.200000*%
%ADD23O,1.200000X17.068750*%
%ADD24C,4.400000*%
%ADD25C,2.500000*%
%ADD26O,2.000000X2.400000*%
%ADD27C,1.200000*%
G04 APERTURE END LIST*
D10*
X84048664Y-45561300D03*
X68808664Y-73501300D03*
X83591464Y-48101300D03*
X84048664Y-50641300D03*
X83591464Y-53181300D03*
X84048664Y-55721300D03*
X83591464Y-58261300D03*
X84048664Y-60801300D03*
X83591464Y-63341300D03*
X84048664Y-65881300D03*
X83591464Y-68421300D03*
X84048664Y-70961300D03*
X83591464Y-73501300D03*
X68351464Y-70961300D03*
X68808664Y-68421300D03*
X68351464Y-65881300D03*
X68808664Y-63341300D03*
X68351464Y-60801300D03*
X68808664Y-58261300D03*
X68351464Y-55721300D03*
X68808664Y-53181300D03*
X68351464Y-50641300D03*
X68808664Y-48101300D03*
D11*
X68351464Y-45561300D03*
D12*
X65484430Y-61050048D03*
D13*
X65484430Y-53250048D03*
D12*
X86915698Y-61050048D03*
D13*
X86915698Y-53250048D03*
D12*
X122634478Y-61050048D03*
D13*
X122634478Y-53250048D03*
D12*
X125015730Y-61050048D03*
D13*
X125015730Y-53250048D03*
D12*
X141684494Y-61050000D03*
D13*
X141684494Y-53250000D03*
D12*
X144065746Y-61050048D03*
D13*
X144065746Y-53250048D03*
D12*
X179784526Y-61050000D03*
D13*
X179784526Y-53250000D03*
D12*
X198834542Y-61050048D03*
D13*
X198834542Y-53250048D03*
D12*
X217884558Y-61050048D03*
D13*
X217884558Y-53250048D03*
D12*
X65484430Y-80100064D03*
D13*
X65484430Y-72300064D03*
D12*
X86915698Y-80100000D03*
D13*
X86915698Y-72300000D03*
D12*
X103584462Y-80100000D03*
D13*
X103584462Y-72300000D03*
D12*
X105965714Y-80100000D03*
D13*
X105965714Y-72300000D03*
D12*
X141684494Y-80100064D03*
D13*
X141684494Y-72300064D03*
D12*
X144065746Y-80100064D03*
D13*
X144065746Y-72300064D03*
D12*
X179784526Y-80100000D03*
D13*
X179784526Y-72300000D03*
D12*
X198834542Y-80100064D03*
D13*
X198834542Y-72300064D03*
D12*
X217884558Y-80100064D03*
D13*
X217884558Y-72300064D03*
D12*
X65484430Y-99150000D03*
D13*
X65484430Y-91350000D03*
D12*
X67865682Y-99150000D03*
D13*
X67865682Y-91350000D03*
D12*
X105965714Y-99150080D03*
D13*
X105965714Y-91350080D03*
D12*
X141684494Y-99150080D03*
D13*
X141684494Y-91350080D03*
D12*
X144065746Y-99150080D03*
D13*
X144065746Y-91350080D03*
D12*
X179784526Y-99150000D03*
D13*
X179784526Y-91350000D03*
D12*
X198834542Y-99150080D03*
D13*
X198834542Y-91350080D03*
D12*
X217884558Y-99150000D03*
D13*
X217884558Y-91350000D03*
D12*
X65484430Y-118200096D03*
D13*
X65484430Y-110400096D03*
D12*
X67865682Y-118200000D03*
D13*
X67865682Y-110400000D03*
D12*
X103584462Y-118200000D03*
D13*
X103584462Y-110400000D03*
D12*
X105965714Y-118200000D03*
D13*
X105965714Y-110400000D03*
D12*
X141684494Y-118200096D03*
D13*
X141684494Y-110400096D03*
D12*
X144065746Y-118200096D03*
D13*
X144065746Y-110400096D03*
D12*
X179784526Y-118200000D03*
D13*
X179784526Y-110400000D03*
D12*
X198834542Y-118200000D03*
D13*
X198834542Y-110400000D03*
D12*
X217884558Y-118200096D03*
D13*
X217884558Y-110400096D03*
D12*
X65484430Y-137250000D03*
D13*
X65484430Y-129450000D03*
D12*
X67865682Y-137250000D03*
D13*
X67865682Y-129450000D03*
D12*
X103584462Y-137250000D03*
D13*
X103584462Y-129450000D03*
D12*
X105965714Y-137250112D03*
D13*
X105965714Y-129450112D03*
D12*
X141684494Y-137250112D03*
D13*
X141684494Y-129450112D03*
D12*
X144065746Y-137250000D03*
D13*
X144065746Y-129450000D03*
D12*
X179784526Y-137250112D03*
D13*
X179784526Y-129450112D03*
D12*
X198834542Y-137250112D03*
D13*
X198834542Y-129450112D03*
D12*
X217884558Y-137250000D03*
D13*
X217884558Y-129450000D03*
D12*
X65484430Y-156300128D03*
D13*
X65484430Y-148500128D03*
D12*
X67865682Y-156300000D03*
D13*
X67865682Y-148500000D03*
D12*
X103584462Y-156300000D03*
D13*
X103584462Y-148500000D03*
D12*
X105965714Y-156300000D03*
D13*
X105965714Y-148500000D03*
D12*
X141684494Y-156300000D03*
D13*
X141684494Y-148500000D03*
D12*
X144065746Y-156300128D03*
D13*
X144065746Y-148500128D03*
D12*
X179784526Y-156300128D03*
D13*
X179784526Y-148500128D03*
D12*
X198834542Y-156300128D03*
D13*
X198834542Y-148500128D03*
D12*
X217884558Y-156300128D03*
D13*
X217884558Y-148500128D03*
D12*
X103584462Y-99150000D03*
D13*
X103584462Y-91350000D03*
D14*
X90030000Y-80400000D03*
D15*
X100750000Y-76200000D03*
X89750000Y-76200000D03*
D16*
X95250000Y-70300000D03*
X100250000Y-72400000D03*
D17*
X100330000Y-76200000D03*
X90170000Y-76200000D03*
D18*
X92750000Y-72200000D03*
D19*
X95250000Y-76200000D03*
D20*
X92094995Y-72929996D03*
D18*
X97790000Y-71120000D03*
D21*
X97769771Y-71409984D03*
D14*
X128130000Y-61350000D03*
D15*
X138850000Y-57150000D03*
X127850000Y-57150000D03*
D16*
X133350000Y-51250000D03*
X138350000Y-53350000D03*
D17*
X138430000Y-57150000D03*
X128270000Y-57150000D03*
D18*
X130850000Y-53150000D03*
D19*
X133350000Y-57150000D03*
D20*
X130194995Y-53879996D03*
D18*
X135890000Y-52070000D03*
D21*
X135869771Y-52359984D03*
D14*
X51930000Y-61350000D03*
D15*
X62650000Y-57150000D03*
X51650000Y-57150000D03*
D16*
X57150000Y-51250000D03*
X62150000Y-53350000D03*
D17*
X62230000Y-57150000D03*
X52070000Y-57150000D03*
D18*
X54650000Y-53150000D03*
D19*
X57150000Y-57150000D03*
D20*
X53994995Y-53879996D03*
D18*
X59690000Y-52070000D03*
D21*
X59669771Y-52359984D03*
D14*
X70980000Y-61350000D03*
D15*
X81700000Y-57150000D03*
X70700000Y-57150000D03*
D16*
X76200000Y-51250000D03*
X81200000Y-53350000D03*
D17*
X81280000Y-57150000D03*
X71120000Y-57150000D03*
D18*
X73700000Y-53150000D03*
D19*
X76200000Y-57150000D03*
D20*
X73044995Y-53879996D03*
D18*
X78740000Y-52070000D03*
D21*
X78719771Y-52359984D03*
D14*
X90030000Y-61350000D03*
D15*
X100750000Y-57150000D03*
X89750000Y-57150000D03*
D16*
X95250000Y-51250000D03*
X100250000Y-53350000D03*
D17*
X100330000Y-57150000D03*
X90170000Y-57150000D03*
D18*
X92750000Y-53150000D03*
D19*
X95250000Y-57150000D03*
D20*
X92094995Y-53879996D03*
D18*
X97790000Y-52070000D03*
D21*
X97769771Y-52359984D03*
D14*
X109080000Y-61350000D03*
D15*
X119800000Y-57150000D03*
X108800000Y-57150000D03*
D16*
X114300000Y-51250000D03*
X119300000Y-53350000D03*
D17*
X119380000Y-57150000D03*
X109220000Y-57150000D03*
D18*
X111800000Y-53150000D03*
D19*
X114300000Y-57150000D03*
D20*
X111144995Y-53879996D03*
D18*
X116840000Y-52070000D03*
D21*
X116819771Y-52359984D03*
D14*
X166230000Y-61350000D03*
D15*
X176950000Y-57150000D03*
X165950000Y-57150000D03*
D16*
X171450000Y-51250000D03*
X176450000Y-53350000D03*
D17*
X176530000Y-57150000D03*
X166370000Y-57150000D03*
D18*
X168950000Y-53150000D03*
D19*
X171450000Y-57150000D03*
D20*
X168294995Y-53879996D03*
D18*
X173990000Y-52070000D03*
D21*
X173969771Y-52359984D03*
D14*
X185280000Y-61350000D03*
D15*
X196000000Y-57150000D03*
X185000000Y-57150000D03*
D16*
X190500000Y-51250000D03*
X195500000Y-53350000D03*
D17*
X195580000Y-57150000D03*
X185420000Y-57150000D03*
D18*
X188000000Y-53150000D03*
D19*
X190500000Y-57150000D03*
D20*
X187344995Y-53879996D03*
D18*
X193040000Y-52070000D03*
D21*
X193019771Y-52359984D03*
D14*
X204330000Y-61350000D03*
D15*
X215050000Y-57150000D03*
X204050000Y-57150000D03*
D16*
X209550000Y-51250000D03*
X214550000Y-53350000D03*
D17*
X214630000Y-57150000D03*
X204470000Y-57150000D03*
D18*
X207050000Y-53150000D03*
D19*
X209550000Y-57150000D03*
D20*
X206394995Y-53879996D03*
D18*
X212090000Y-52070000D03*
D21*
X212069771Y-52359984D03*
D14*
X51930000Y-80400000D03*
D15*
X62650000Y-76200000D03*
X51650000Y-76200000D03*
D16*
X57150000Y-70300000D03*
X62150000Y-72400000D03*
D17*
X62230000Y-76200000D03*
X52070000Y-76200000D03*
D18*
X54650000Y-72200000D03*
D19*
X57150000Y-76200000D03*
D20*
X53994995Y-72929996D03*
D18*
X59690000Y-71120000D03*
D21*
X59669771Y-71409984D03*
D14*
X70980000Y-80400000D03*
D15*
X81700000Y-76200000D03*
X70700000Y-76200000D03*
D16*
X76200000Y-70300000D03*
X81200000Y-72400000D03*
D17*
X81280000Y-76200000D03*
X71120000Y-76200000D03*
D18*
X73700000Y-72200000D03*
D19*
X76200000Y-76200000D03*
D20*
X73044995Y-72929996D03*
D18*
X78740000Y-71120000D03*
D21*
X78719771Y-71409984D03*
D14*
X109080000Y-80400000D03*
D15*
X119800000Y-76200000D03*
X108800000Y-76200000D03*
D16*
X114300000Y-70300000D03*
X119300000Y-72400000D03*
D17*
X119380000Y-76200000D03*
X109220000Y-76200000D03*
D18*
X111800000Y-72200000D03*
D19*
X114300000Y-76200000D03*
D20*
X111144995Y-72929996D03*
D18*
X116840000Y-71120000D03*
D21*
X116819771Y-71409984D03*
D14*
X128130000Y-80400000D03*
D15*
X138850000Y-76200000D03*
X127850000Y-76200000D03*
D16*
X133350000Y-70300000D03*
X138350000Y-72400000D03*
D17*
X138430000Y-76200000D03*
X128270000Y-76200000D03*
D18*
X130850000Y-72200000D03*
D19*
X133350000Y-76200000D03*
D20*
X130194995Y-72929996D03*
D18*
X135890000Y-71120000D03*
D21*
X135869771Y-71409984D03*
D14*
X147180000Y-80400000D03*
D15*
X157900000Y-76200000D03*
X146900000Y-76200000D03*
D16*
X152400000Y-70300000D03*
X157400000Y-72400000D03*
D17*
X157480000Y-76200000D03*
X147320000Y-76200000D03*
D18*
X149900000Y-72200000D03*
D19*
X152400000Y-76200000D03*
D20*
X149244995Y-72929996D03*
D18*
X154940000Y-71120000D03*
D21*
X154919771Y-71409984D03*
D14*
X166230000Y-80400000D03*
D15*
X176950000Y-76200000D03*
X165950000Y-76200000D03*
D16*
X171450000Y-70300000D03*
X176450000Y-72400000D03*
D17*
X176530000Y-76200000D03*
X166370000Y-76200000D03*
D18*
X168950000Y-72200000D03*
D19*
X171450000Y-76200000D03*
D20*
X168294995Y-72929996D03*
D18*
X173990000Y-71120000D03*
D21*
X173969771Y-71409984D03*
D14*
X185280000Y-80400000D03*
D15*
X196000000Y-76200000D03*
X185000000Y-76200000D03*
D16*
X190500000Y-70300000D03*
X195500000Y-72400000D03*
D17*
X195580000Y-76200000D03*
X185420000Y-76200000D03*
D18*
X188000000Y-72200000D03*
D19*
X190500000Y-76200000D03*
D20*
X187344995Y-72929996D03*
D18*
X193040000Y-71120000D03*
D21*
X193019771Y-71409984D03*
D14*
X204330000Y-80400000D03*
D15*
X215050000Y-76200000D03*
X204050000Y-76200000D03*
D16*
X209550000Y-70300000D03*
X214550000Y-72400000D03*
D17*
X214630000Y-76200000D03*
X204470000Y-76200000D03*
D18*
X207050000Y-72200000D03*
D19*
X209550000Y-76200000D03*
D20*
X206394995Y-72929996D03*
D18*
X212090000Y-71120000D03*
D21*
X212069771Y-71409984D03*
D14*
X51930000Y-99450000D03*
D15*
X62650000Y-95250000D03*
X51650000Y-95250000D03*
D16*
X57150000Y-89350000D03*
X62150000Y-91450000D03*
D17*
X62230000Y-95250000D03*
X52070000Y-95250000D03*
D18*
X54650000Y-91250000D03*
D19*
X57150000Y-95250000D03*
D20*
X53994995Y-91979996D03*
D18*
X59690000Y-90170000D03*
D21*
X59669771Y-90459984D03*
D14*
X70980000Y-99450000D03*
D15*
X81700000Y-95250000D03*
X70700000Y-95250000D03*
D16*
X76200000Y-89350000D03*
X81200000Y-91450000D03*
D17*
X81280000Y-95250000D03*
X71120000Y-95250000D03*
D18*
X73700000Y-91250000D03*
D19*
X76200000Y-95250000D03*
D20*
X73044995Y-91979996D03*
D18*
X78740000Y-90170000D03*
D21*
X78719771Y-90459984D03*
D14*
X90030000Y-99450000D03*
D15*
X100750000Y-95250000D03*
X89750000Y-95250000D03*
D16*
X95250000Y-89350000D03*
X100250000Y-91450000D03*
D17*
X100330000Y-95250000D03*
X90170000Y-95250000D03*
D18*
X92750000Y-91250000D03*
D19*
X95250000Y-95250000D03*
D20*
X92094995Y-91979996D03*
D18*
X97790000Y-90170000D03*
D21*
X97769771Y-90459984D03*
D14*
X109080000Y-99450000D03*
D15*
X119800000Y-95250000D03*
X108800000Y-95250000D03*
D16*
X114300000Y-89350000D03*
X119300000Y-91450000D03*
D17*
X119380000Y-95250000D03*
X109220000Y-95250000D03*
D18*
X111800000Y-91250000D03*
D19*
X114300000Y-95250000D03*
D20*
X111144995Y-91979996D03*
D18*
X116840000Y-90170000D03*
D21*
X116819771Y-90459984D03*
D14*
X128130000Y-99450000D03*
D15*
X138850000Y-95250000D03*
X127850000Y-95250000D03*
D16*
X133350000Y-89350000D03*
X138350000Y-91450000D03*
D17*
X138430000Y-95250000D03*
X128270000Y-95250000D03*
D18*
X130850000Y-91250000D03*
D19*
X133350000Y-95250000D03*
D20*
X130194995Y-91979996D03*
D18*
X135890000Y-90170000D03*
D21*
X135869771Y-90459984D03*
D14*
X147180000Y-99450000D03*
D15*
X157900000Y-95250000D03*
X146900000Y-95250000D03*
D16*
X152400000Y-89350000D03*
X157400000Y-91450000D03*
D17*
X157480000Y-95250000D03*
X147320000Y-95250000D03*
D18*
X149900000Y-91250000D03*
D19*
X152400000Y-95250000D03*
D20*
X149244995Y-91979996D03*
D18*
X154940000Y-90170000D03*
D21*
X154919771Y-90459984D03*
D14*
X166230000Y-99450000D03*
D15*
X176950000Y-95250000D03*
X165950000Y-95250000D03*
D16*
X171450000Y-89350000D03*
X176450000Y-91450000D03*
D17*
X176530000Y-95250000D03*
X166370000Y-95250000D03*
D18*
X168950000Y-91250000D03*
D19*
X171450000Y-95250000D03*
D20*
X168294995Y-91979996D03*
D18*
X173990000Y-90170000D03*
D21*
X173969771Y-90459984D03*
D14*
X185280000Y-99450000D03*
D15*
X196000000Y-95250000D03*
X185000000Y-95250000D03*
D16*
X190500000Y-89350000D03*
X195500000Y-91450000D03*
D17*
X195580000Y-95250000D03*
X185420000Y-95250000D03*
D18*
X188000000Y-91250000D03*
D19*
X190500000Y-95250000D03*
D20*
X187344995Y-91979996D03*
D18*
X193040000Y-90170000D03*
D21*
X193019771Y-90459984D03*
D14*
X204330000Y-99450000D03*
D15*
X215050000Y-95250000D03*
X204050000Y-95250000D03*
D16*
X209550000Y-89350000D03*
X214550000Y-91450000D03*
D17*
X214630000Y-95250000D03*
X204470000Y-95250000D03*
D18*
X207050000Y-91250000D03*
D19*
X209550000Y-95250000D03*
D20*
X206394995Y-91979996D03*
D18*
X212090000Y-90170000D03*
D21*
X212069771Y-90459984D03*
D14*
X51930000Y-118500000D03*
D15*
X62650000Y-114300000D03*
X51650000Y-114300000D03*
D16*
X57150000Y-108400000D03*
X62150000Y-110500000D03*
D17*
X62230000Y-114300000D03*
X52070000Y-114300000D03*
D18*
X54650000Y-110300000D03*
D19*
X57150000Y-114300000D03*
D20*
X53994995Y-111029996D03*
D18*
X59690000Y-109220000D03*
D21*
X59669771Y-109509984D03*
D14*
X70980000Y-118500000D03*
D15*
X81700000Y-114300000D03*
X70700000Y-114300000D03*
D16*
X76200000Y-108400000D03*
X81200000Y-110500000D03*
D17*
X81280000Y-114300000D03*
X71120000Y-114300000D03*
D18*
X73700000Y-110300000D03*
D19*
X76200000Y-114300000D03*
D20*
X73044995Y-111029996D03*
D18*
X78740000Y-109220000D03*
D21*
X78719771Y-109509984D03*
D14*
X90030000Y-118500000D03*
D15*
X100750000Y-114300000D03*
X89750000Y-114300000D03*
D16*
X95250000Y-108400000D03*
X100250000Y-110500000D03*
D17*
X100330000Y-114300000D03*
X90170000Y-114300000D03*
D18*
X92750000Y-110300000D03*
D19*
X95250000Y-114300000D03*
D20*
X92094995Y-111029996D03*
D18*
X97790000Y-109220000D03*
D21*
X97769771Y-109509984D03*
D14*
X109080000Y-118500000D03*
D15*
X119800000Y-114300000D03*
X108800000Y-114300000D03*
D16*
X114300000Y-108400000D03*
X119300000Y-110500000D03*
D17*
X119380000Y-114300000D03*
X109220000Y-114300000D03*
D18*
X111800000Y-110300000D03*
D19*
X114300000Y-114300000D03*
D20*
X111144995Y-111029996D03*
D18*
X116840000Y-109220000D03*
D21*
X116819771Y-109509984D03*
D14*
X128130000Y-118500000D03*
D15*
X138850000Y-114300000D03*
X127850000Y-114300000D03*
D16*
X133350000Y-108400000D03*
X138350000Y-110500000D03*
D17*
X138430000Y-114300000D03*
X128270000Y-114300000D03*
D18*
X130850000Y-110300000D03*
D19*
X133350000Y-114300000D03*
D20*
X130194995Y-111029996D03*
D18*
X135890000Y-109220000D03*
D21*
X135869771Y-109509984D03*
D14*
X147180000Y-118500000D03*
D15*
X157900000Y-114300000D03*
X146900000Y-114300000D03*
D16*
X152400000Y-108400000D03*
X157400000Y-110500000D03*
D17*
X157480000Y-114300000D03*
X147320000Y-114300000D03*
D18*
X149900000Y-110300000D03*
D19*
X152400000Y-114300000D03*
D20*
X149244995Y-111029996D03*
D18*
X154940000Y-109220000D03*
D21*
X154919771Y-109509984D03*
D14*
X166230000Y-118500000D03*
D15*
X176950000Y-114300000D03*
X165950000Y-114300000D03*
D16*
X171450000Y-108400000D03*
X176450000Y-110500000D03*
D17*
X176530000Y-114300000D03*
X166370000Y-114300000D03*
D18*
X168950000Y-110300000D03*
D19*
X171450000Y-114300000D03*
D20*
X168294995Y-111029996D03*
D18*
X173990000Y-109220000D03*
D21*
X173969771Y-109509984D03*
D14*
X185280000Y-118500000D03*
D15*
X196000000Y-114300000D03*
X185000000Y-114300000D03*
D16*
X190500000Y-108400000D03*
X195500000Y-110500000D03*
D17*
X195580000Y-114300000D03*
X185420000Y-114300000D03*
D18*
X188000000Y-110300000D03*
D19*
X190500000Y-114300000D03*
D20*
X187344995Y-111029996D03*
D18*
X193040000Y-109220000D03*
D21*
X193019771Y-109509984D03*
D14*
X204330000Y-118500000D03*
D15*
X215050000Y-114300000D03*
X204050000Y-114300000D03*
D16*
X209550000Y-108400000D03*
X214550000Y-110500000D03*
D17*
X214630000Y-114300000D03*
X204470000Y-114300000D03*
D18*
X207050000Y-110300000D03*
D19*
X209550000Y-114300000D03*
D20*
X206394995Y-111029996D03*
D18*
X212090000Y-109220000D03*
D21*
X212069771Y-109509984D03*
D14*
X51930000Y-137550000D03*
D15*
X62650000Y-133350000D03*
X51650000Y-133350000D03*
D16*
X57150000Y-127450000D03*
X62150000Y-129550000D03*
D17*
X62230000Y-133350000D03*
X52070000Y-133350000D03*
D18*
X54650000Y-129350000D03*
D19*
X57150000Y-133350000D03*
D20*
X53994995Y-130079996D03*
D18*
X59690000Y-128270000D03*
D21*
X59669771Y-128559984D03*
D14*
X70980000Y-137550000D03*
D15*
X81700000Y-133350000D03*
X70700000Y-133350000D03*
D16*
X76200000Y-127450000D03*
X81200000Y-129550000D03*
D17*
X81280000Y-133350000D03*
X71120000Y-133350000D03*
D18*
X73700000Y-129350000D03*
D19*
X76200000Y-133350000D03*
D20*
X73044995Y-130079996D03*
D18*
X78740000Y-128270000D03*
D21*
X78719771Y-128559984D03*
D14*
X90030000Y-137550000D03*
D15*
X100750000Y-133350000D03*
X89750000Y-133350000D03*
D16*
X95250000Y-127450000D03*
X100250000Y-129550000D03*
D17*
X100330000Y-133350000D03*
X90170000Y-133350000D03*
D18*
X92750000Y-129350000D03*
D19*
X95250000Y-133350000D03*
D20*
X92094995Y-130079996D03*
D18*
X97790000Y-128270000D03*
D21*
X97769771Y-128559984D03*
D14*
X109080000Y-137550000D03*
D15*
X119800000Y-133350000D03*
X108800000Y-133350000D03*
D16*
X114300000Y-127450000D03*
X119300000Y-129550000D03*
D17*
X119380000Y-133350000D03*
X109220000Y-133350000D03*
D18*
X111800000Y-129350000D03*
D19*
X114300000Y-133350000D03*
D20*
X111144995Y-130079996D03*
D18*
X116840000Y-128270000D03*
D21*
X116819771Y-128559984D03*
D14*
X128130000Y-137550000D03*
D15*
X138850000Y-133350000D03*
X127850000Y-133350000D03*
D16*
X133350000Y-127450000D03*
X138350000Y-129550000D03*
D17*
X138430000Y-133350000D03*
X128270000Y-133350000D03*
D18*
X130850000Y-129350000D03*
D19*
X133350000Y-133350000D03*
D20*
X130194995Y-130079996D03*
D18*
X135890000Y-128270000D03*
D21*
X135869771Y-128559984D03*
D14*
X147180000Y-137550000D03*
D15*
X157900000Y-133350000D03*
X146900000Y-133350000D03*
D16*
X152400000Y-127450000D03*
X157400000Y-129550000D03*
D17*
X157480000Y-133350000D03*
X147320000Y-133350000D03*
D18*
X149900000Y-129350000D03*
D19*
X152400000Y-133350000D03*
D20*
X149244995Y-130079996D03*
D18*
X154940000Y-128270000D03*
D21*
X154919771Y-128559984D03*
D14*
X166230000Y-137550000D03*
D15*
X176950000Y-133350000D03*
X165950000Y-133350000D03*
D16*
X171450000Y-127450000D03*
X176450000Y-129550000D03*
D17*
X176530000Y-133350000D03*
X166370000Y-133350000D03*
D18*
X168950000Y-129350000D03*
D19*
X171450000Y-133350000D03*
D20*
X168294995Y-130079996D03*
D18*
X173990000Y-128270000D03*
D21*
X173969771Y-128559984D03*
D14*
X185280000Y-137550000D03*
D15*
X196000000Y-133350000D03*
X185000000Y-133350000D03*
D16*
X190500000Y-127450000D03*
X195500000Y-129550000D03*
D17*
X195580000Y-133350000D03*
X185420000Y-133350000D03*
D18*
X188000000Y-129350000D03*
D19*
X190500000Y-133350000D03*
D20*
X187344995Y-130079996D03*
D18*
X193040000Y-128270000D03*
D21*
X193019771Y-128559984D03*
D14*
X204330000Y-137550000D03*
D15*
X215050000Y-133350000D03*
X204050000Y-133350000D03*
D16*
X209550000Y-127450000D03*
X214550000Y-129550000D03*
D17*
X214630000Y-133350000D03*
X204470000Y-133350000D03*
D18*
X207050000Y-129350000D03*
D19*
X209550000Y-133350000D03*
D20*
X206394995Y-130079996D03*
D18*
X212090000Y-128270000D03*
D21*
X212069771Y-128559984D03*
D14*
X51930000Y-156600000D03*
D15*
X62650000Y-152400000D03*
X51650000Y-152400000D03*
D16*
X57150000Y-146500000D03*
X62150000Y-148600000D03*
D17*
X62230000Y-152400000D03*
X52070000Y-152400000D03*
D18*
X54650000Y-148400000D03*
D19*
X57150000Y-152400000D03*
D20*
X53994995Y-149129996D03*
D18*
X59690000Y-147320000D03*
D21*
X59669771Y-147609984D03*
D14*
X70980000Y-156600000D03*
D15*
X81700000Y-152400000D03*
X70700000Y-152400000D03*
D16*
X76200000Y-146500000D03*
X81200000Y-148600000D03*
D17*
X81280000Y-152400000D03*
X71120000Y-152400000D03*
D18*
X73700000Y-148400000D03*
D19*
X76200000Y-152400000D03*
D20*
X73044995Y-149129996D03*
D18*
X78740000Y-147320000D03*
D21*
X78719771Y-147609984D03*
D14*
X90030000Y-156600000D03*
D15*
X100750000Y-152400000D03*
X89750000Y-152400000D03*
D16*
X95250000Y-146500000D03*
X100250000Y-148600000D03*
D17*
X100330000Y-152400000D03*
X90170000Y-152400000D03*
D18*
X92750000Y-148400000D03*
D19*
X95250000Y-152400000D03*
D20*
X92094995Y-149129996D03*
D18*
X97790000Y-147320000D03*
D21*
X97769771Y-147609984D03*
D14*
X109080000Y-156600000D03*
D15*
X119800000Y-152400000D03*
X108800000Y-152400000D03*
D16*
X114300000Y-146500000D03*
X119300000Y-148600000D03*
D17*
X119380000Y-152400000D03*
X109220000Y-152400000D03*
D18*
X111800000Y-148400000D03*
D19*
X114300000Y-152400000D03*
D20*
X111144995Y-149129996D03*
D18*
X116840000Y-147320000D03*
D21*
X116819771Y-147609984D03*
D14*
X128130000Y-156600000D03*
D15*
X138850000Y-152400000D03*
X127850000Y-152400000D03*
D16*
X133350000Y-146500000D03*
X138350000Y-148600000D03*
D17*
X138430000Y-152400000D03*
X128270000Y-152400000D03*
D18*
X130850000Y-148400000D03*
D19*
X133350000Y-152400000D03*
D20*
X130194995Y-149129996D03*
D18*
X135890000Y-147320000D03*
D21*
X135869771Y-147609984D03*
D14*
X147180000Y-156600000D03*
D15*
X157900000Y-152400000D03*
X146900000Y-152400000D03*
D16*
X152400000Y-146500000D03*
X157400000Y-148600000D03*
D17*
X157480000Y-152400000D03*
X147320000Y-152400000D03*
D18*
X149900000Y-148400000D03*
D19*
X152400000Y-152400000D03*
D20*
X149244995Y-149129996D03*
D18*
X154940000Y-147320000D03*
D21*
X154919771Y-147609984D03*
D14*
X166230000Y-156600000D03*
D15*
X176950000Y-152400000D03*
X165950000Y-152400000D03*
D16*
X171450000Y-146500000D03*
X176450000Y-148600000D03*
D17*
X176530000Y-152400000D03*
X166370000Y-152400000D03*
D18*
X168950000Y-148400000D03*
D19*
X171450000Y-152400000D03*
D20*
X168294995Y-149129996D03*
D18*
X173990000Y-147320000D03*
D21*
X173969771Y-147609984D03*
D14*
X185280000Y-156600000D03*
D15*
X196000000Y-152400000D03*
X185000000Y-152400000D03*
D16*
X190500000Y-146500000D03*
X195500000Y-148600000D03*
D17*
X195580000Y-152400000D03*
X185420000Y-152400000D03*
D18*
X188000000Y-148400000D03*
D19*
X190500000Y-152400000D03*
D20*
X187344995Y-149129996D03*
D18*
X193040000Y-147320000D03*
D21*
X193019771Y-147609984D03*
D14*
X204330000Y-156600000D03*
D15*
X215050000Y-152400000D03*
X204050000Y-152400000D03*
D16*
X209550000Y-146500000D03*
X214550000Y-148600000D03*
D17*
X214630000Y-152400000D03*
X204470000Y-152400000D03*
D18*
X207050000Y-148400000D03*
D19*
X209550000Y-152400000D03*
D20*
X206394995Y-149129996D03*
D18*
X212090000Y-147320000D03*
D21*
X212069771Y-147609984D03*
D14*
X147180000Y-61350000D03*
D15*
X157900000Y-57150000D03*
X146900000Y-57150000D03*
D16*
X152400000Y-51250000D03*
X157400000Y-53350000D03*
D17*
X157480000Y-57150000D03*
X147320000Y-57150000D03*
D18*
X149900000Y-53150000D03*
D19*
X152400000Y-57150000D03*
D20*
X149244995Y-53879996D03*
D18*
X154940000Y-52070000D03*
D21*
X154919771Y-52359984D03*
D13*
X146775120Y-67865682D03*
X138975120Y-67865682D03*
X146775120Y-65484430D03*
X138975120Y-65484430D03*
D22*
X200025168Y-123825104D03*
X180975152Y-123825104D03*
X161925000Y-123825000D03*
X142875120Y-123825104D03*
X123825104Y-123825104D03*
X104775088Y-123825104D03*
X85725072Y-123825104D03*
X66675056Y-123825104D03*
D23*
X200620481Y-142875120D03*
X200620481Y-123825104D03*
X200620481Y-104775088D03*
X200620481Y-85725072D03*
X200620481Y-66675056D03*
X181570465Y-66675056D03*
X181570465Y-85725072D03*
X181570465Y-104775088D03*
X181570465Y-123825104D03*
X181570465Y-142874880D03*
D22*
X66675056Y-142875120D03*
X85725072Y-142875120D03*
X104775088Y-142875120D03*
X123825104Y-142875120D03*
X142875120Y-142874880D03*
X161925136Y-142874880D03*
X180975152Y-142874880D03*
X200024832Y-142874880D03*
D24*
X200025168Y-142875120D03*
X200025168Y-66675056D03*
X161925136Y-104775088D03*
X66675056Y-104775088D03*
X104775088Y-104775088D03*
X66675056Y-142875120D03*
X161925000Y-142875000D03*
X104775000Y-142875000D03*
X104775000Y-123825000D03*
X161925000Y-123825000D03*
X161925000Y-66675000D03*
X104775000Y-66675000D03*
X66675000Y-85725000D03*
X66675000Y-123825000D03*
X200025000Y-85725000D03*
X200025000Y-123825000D03*
D25*
X94592889Y-48348475D03*
D17*
X93582889Y-45858475D03*
X88582889Y-45858475D03*
D25*
X87582889Y-48348475D03*
D14*
X91082889Y-44648475D03*
D26*
X103070401Y-49062536D03*
D27*
X105370401Y-44462536D03*
X105370401Y-51462536D03*
D26*
X103070401Y-46062536D03*
X103070401Y-53062536D03*
X107670401Y-54162536D03*
X164225136Y-54162536D03*
X159625136Y-53062536D03*
X159625136Y-46062536D03*
D27*
X161925136Y-51462536D03*
X161925136Y-44462536D03*
D26*
X159625136Y-49062536D03*
D10*
X161925136Y-85725072D03*
X49410979Y-104775088D03*
X49410979Y-108942279D03*
X49410979Y-100607897D03*
G36*
X180715200Y-148132528D02*
G01*
X180719409Y-148141063D01*
X180719540Y-148141405D01*
X180727007Y-148167883D01*
X180763984Y-148226798D01*
X180826670Y-148256241D01*
X180895328Y-148247119D01*
X180948146Y-148202333D01*
X180968549Y-148134198D01*
X180970004Y-148132826D01*
X180971920Y-148133400D01*
X180972465Y-148134772D01*
X180972465Y-148859896D01*
X180971465Y-148861628D01*
X180969465Y-148861628D01*
X180968546Y-148860459D01*
X180948869Y-148793444D01*
X180896526Y-148748089D01*
X180827973Y-148738232D01*
X180764954Y-148767012D01*
X180728909Y-148820612D01*
X180727024Y-148826165D01*
X180725520Y-148827484D01*
X180723626Y-148826841D01*
X180723232Y-148824891D01*
X180757716Y-148721229D01*
X180782138Y-148527914D01*
X180782525Y-148500206D01*
X180763511Y-148306288D01*
X180711491Y-148133991D01*
X180711948Y-148132044D01*
X180713863Y-148131466D01*
X180715200Y-148132528D01*
G37*
G36*
X199765216Y-148132528D02*
G01*
X199769425Y-148141063D01*
X199769556Y-148141405D01*
X199777023Y-148167883D01*
X199814000Y-148226798D01*
X199876686Y-148256241D01*
X199945344Y-148247119D01*
X199998162Y-148202333D01*
X200018565Y-148134198D01*
X200020020Y-148132826D01*
X200021936Y-148133400D01*
X200022481Y-148134772D01*
X200022481Y-148859896D01*
X200021481Y-148861628D01*
X200019481Y-148861628D01*
X200018562Y-148860459D01*
X199998885Y-148793444D01*
X199946542Y-148748089D01*
X199877989Y-148738232D01*
X199814970Y-148767012D01*
X199778925Y-148820612D01*
X199777040Y-148826165D01*
X199775536Y-148827484D01*
X199773642Y-148826841D01*
X199773248Y-148824891D01*
X199807732Y-148721229D01*
X199832154Y-148527914D01*
X199832541Y-148500206D01*
X199813527Y-148306288D01*
X199761507Y-148133991D01*
X199761964Y-148132044D01*
X199763879Y-148131466D01*
X199765216Y-148132528D01*
G37*
G36*
X99087815Y-147771829D02*
G01*
X99088653Y-147773057D01*
X99103727Y-147841253D01*
X99152861Y-147890061D01*
X99220586Y-147904557D01*
X99285525Y-147880090D01*
X99312254Y-147852406D01*
X99329472Y-147827818D01*
X99329696Y-147827551D01*
X99353744Y-147803503D01*
X99355676Y-147802985D01*
X99357090Y-147804399D01*
X99356729Y-147806155D01*
X99245279Y-147947528D01*
X99143201Y-148141548D01*
X99078187Y-148350924D01*
X99052419Y-148568638D01*
X99062105Y-148716420D01*
X99061220Y-148718214D01*
X99059224Y-148718345D01*
X99058246Y-148717280D01*
X99033531Y-148654095D01*
X98977436Y-148613475D01*
X98908284Y-148609632D01*
X98848537Y-148643497D01*
X98846537Y-148643481D01*
X98845551Y-148641741D01*
X98845995Y-148640501D01*
X98848099Y-148637894D01*
X98959552Y-148435997D01*
X99034250Y-148217819D01*
X99069943Y-147989891D01*
X99084705Y-147773353D01*
X99085820Y-147771693D01*
X99087815Y-147771829D01*
G37*
G36*
X118137815Y-147771829D02*
G01*
X118138653Y-147773057D01*
X118153727Y-147841253D01*
X118202861Y-147890061D01*
X118270586Y-147904557D01*
X118335525Y-147880090D01*
X118362254Y-147852406D01*
X118379472Y-147827818D01*
X118379696Y-147827551D01*
X118403744Y-147803503D01*
X118405676Y-147802985D01*
X118407090Y-147804399D01*
X118406729Y-147806155D01*
X118295279Y-147947528D01*
X118193201Y-148141548D01*
X118128187Y-148350924D01*
X118102419Y-148568638D01*
X118112105Y-148716420D01*
X118111220Y-148718214D01*
X118109224Y-148718345D01*
X118108246Y-148717280D01*
X118083531Y-148654095D01*
X118027436Y-148613475D01*
X117958284Y-148609632D01*
X117898537Y-148643497D01*
X117896537Y-148643481D01*
X117895551Y-148641741D01*
X117895995Y-148640501D01*
X117898099Y-148637894D01*
X118009552Y-148435997D01*
X118084250Y-148217819D01*
X118119943Y-147989891D01*
X118134705Y-147773353D01*
X118135820Y-147771693D01*
X118137815Y-147771829D01*
G37*
G36*
X137187815Y-147771829D02*
G01*
X137188653Y-147773057D01*
X137203727Y-147841253D01*
X137252861Y-147890061D01*
X137320586Y-147904557D01*
X137385525Y-147880090D01*
X137412254Y-147852406D01*
X137429472Y-147827818D01*
X137429696Y-147827551D01*
X137453744Y-147803503D01*
X137455676Y-147802985D01*
X137457090Y-147804399D01*
X137456729Y-147806155D01*
X137345279Y-147947528D01*
X137243201Y-148141548D01*
X137178187Y-148350924D01*
X137152419Y-148568638D01*
X137162105Y-148716420D01*
X137161220Y-148718214D01*
X137159224Y-148718345D01*
X137158246Y-148717280D01*
X137133531Y-148654095D01*
X137077436Y-148613475D01*
X137008284Y-148609632D01*
X136948537Y-148643497D01*
X136946537Y-148643481D01*
X136945551Y-148641741D01*
X136945995Y-148640501D01*
X136948099Y-148637894D01*
X137059552Y-148435997D01*
X137134250Y-148217819D01*
X137169943Y-147989891D01*
X137184705Y-147773353D01*
X137185820Y-147771693D01*
X137187815Y-147771829D01*
G37*
G36*
X156237815Y-147771829D02*
G01*
X156238653Y-147773057D01*
X156253727Y-147841253D01*
X156302861Y-147890061D01*
X156370586Y-147904557D01*
X156435525Y-147880090D01*
X156462254Y-147852406D01*
X156479472Y-147827818D01*
X156479696Y-147827551D01*
X156503744Y-147803503D01*
X156505676Y-147802985D01*
X156507090Y-147804399D01*
X156506729Y-147806155D01*
X156395279Y-147947528D01*
X156293201Y-148141548D01*
X156228187Y-148350924D01*
X156202419Y-148568638D01*
X156212105Y-148716420D01*
X156211220Y-148718214D01*
X156209224Y-148718345D01*
X156208246Y-148717280D01*
X156183531Y-148654095D01*
X156127436Y-148613475D01*
X156058284Y-148609632D01*
X155998537Y-148643497D01*
X155996537Y-148643481D01*
X155995551Y-148641741D01*
X155995995Y-148640501D01*
X155998099Y-148637894D01*
X156109552Y-148435997D01*
X156184250Y-148217819D01*
X156219943Y-147989891D01*
X156234705Y-147773353D01*
X156235820Y-147771693D01*
X156237815Y-147771829D01*
G37*
G36*
X80037815Y-147771829D02*
G01*
X80038653Y-147773057D01*
X80053727Y-147841253D01*
X80102861Y-147890061D01*
X80170586Y-147904557D01*
X80235525Y-147880090D01*
X80262254Y-147852406D01*
X80279472Y-147827818D01*
X80279696Y-147827551D01*
X80303744Y-147803503D01*
X80305676Y-147802985D01*
X80307090Y-147804399D01*
X80306729Y-147806155D01*
X80195279Y-147947528D01*
X80093201Y-148141548D01*
X80028187Y-148350924D01*
X80002419Y-148568638D01*
X80012105Y-148716420D01*
X80011220Y-148718214D01*
X80009224Y-148718345D01*
X80008246Y-148717280D01*
X79983531Y-148654095D01*
X79927436Y-148613475D01*
X79858284Y-148609632D01*
X79798537Y-148643497D01*
X79796537Y-148643481D01*
X79795551Y-148641741D01*
X79795995Y-148640501D01*
X79798099Y-148637894D01*
X79909552Y-148435997D01*
X79984250Y-148217819D01*
X80019943Y-147989891D01*
X80034705Y-147773353D01*
X80035820Y-147771693D01*
X80037815Y-147771829D01*
G37*
G36*
X175287815Y-147771829D02*
G01*
X175288653Y-147773057D01*
X175303727Y-147841253D01*
X175352861Y-147890061D01*
X175420586Y-147904557D01*
X175485525Y-147880090D01*
X175512254Y-147852406D01*
X175529472Y-147827818D01*
X175529696Y-147827551D01*
X175553744Y-147803503D01*
X175555676Y-147802985D01*
X175557090Y-147804399D01*
X175556729Y-147806155D01*
X175445279Y-147947528D01*
X175343201Y-148141548D01*
X175278187Y-148350924D01*
X175252419Y-148568638D01*
X175262105Y-148716420D01*
X175261220Y-148718214D01*
X175259224Y-148718345D01*
X175258246Y-148717280D01*
X175233531Y-148654095D01*
X175177436Y-148613475D01*
X175108284Y-148609632D01*
X175048537Y-148643497D01*
X175046537Y-148643481D01*
X175045551Y-148641741D01*
X175045995Y-148640501D01*
X175048099Y-148637894D01*
X175159552Y-148435997D01*
X175234250Y-148217819D01*
X175269943Y-147989891D01*
X175284705Y-147773353D01*
X175285820Y-147771693D01*
X175287815Y-147771829D01*
G37*
G36*
X194337815Y-147771829D02*
G01*
X194338653Y-147773057D01*
X194353727Y-147841253D01*
X194402861Y-147890061D01*
X194470586Y-147904557D01*
X194535525Y-147880090D01*
X194562254Y-147852406D01*
X194579472Y-147827818D01*
X194579696Y-147827551D01*
X194603744Y-147803503D01*
X194605676Y-147802985D01*
X194607090Y-147804399D01*
X194606729Y-147806155D01*
X194495279Y-147947528D01*
X194393201Y-148141548D01*
X194328187Y-148350924D01*
X194302419Y-148568638D01*
X194312105Y-148716420D01*
X194311220Y-148718214D01*
X194309224Y-148718345D01*
X194308246Y-148717280D01*
X194283531Y-148654095D01*
X194227436Y-148613475D01*
X194158284Y-148609632D01*
X194098537Y-148643497D01*
X194096537Y-148643481D01*
X194095551Y-148641741D01*
X194095995Y-148640501D01*
X194098099Y-148637894D01*
X194209552Y-148435997D01*
X194284250Y-148217819D01*
X194319943Y-147989891D01*
X194334705Y-147773353D01*
X194335820Y-147771693D01*
X194337815Y-147771829D01*
G37*
G36*
X213387815Y-147771829D02*
G01*
X213388653Y-147773057D01*
X213403727Y-147841253D01*
X213452861Y-147890061D01*
X213520586Y-147904557D01*
X213585525Y-147880090D01*
X213612254Y-147852406D01*
X213629472Y-147827818D01*
X213629696Y-147827551D01*
X213653744Y-147803503D01*
X213655676Y-147802985D01*
X213657090Y-147804399D01*
X213656729Y-147806155D01*
X213545279Y-147947528D01*
X213443201Y-148141548D01*
X213378187Y-148350924D01*
X213352419Y-148568638D01*
X213362105Y-148716420D01*
X213361220Y-148718214D01*
X213359224Y-148718345D01*
X213358246Y-148717280D01*
X213333531Y-148654095D01*
X213277436Y-148613475D01*
X213208284Y-148609632D01*
X213148537Y-148643497D01*
X213146537Y-148643481D01*
X213145551Y-148641741D01*
X213145995Y-148640501D01*
X213148099Y-148637894D01*
X213259552Y-148435997D01*
X213334250Y-148217819D01*
X213369943Y-147989891D01*
X213384705Y-147773353D01*
X213385820Y-147771693D01*
X213387815Y-147771829D01*
G37*
G36*
X60987815Y-147771829D02*
G01*
X60988653Y-147773057D01*
X61003727Y-147841253D01*
X61052861Y-147890061D01*
X61120586Y-147904557D01*
X61185525Y-147880090D01*
X61212254Y-147852406D01*
X61229472Y-147827818D01*
X61229696Y-147827551D01*
X61253744Y-147803503D01*
X61255676Y-147802985D01*
X61257090Y-147804399D01*
X61256729Y-147806155D01*
X61145279Y-147947528D01*
X61043201Y-148141548D01*
X60978187Y-148350924D01*
X60952419Y-148568638D01*
X60962105Y-148716420D01*
X60961220Y-148718214D01*
X60959224Y-148718345D01*
X60958246Y-148717280D01*
X60933531Y-148654095D01*
X60877436Y-148613475D01*
X60808284Y-148609632D01*
X60748537Y-148643497D01*
X60746537Y-148643481D01*
X60745551Y-148641741D01*
X60745995Y-148640501D01*
X60748099Y-148637894D01*
X60859552Y-148435997D01*
X60934250Y-148217819D01*
X60969943Y-147989891D01*
X60984705Y-147773353D01*
X60985820Y-147771693D01*
X60987815Y-147771829D01*
G37*
G36*
X77400185Y-146531109D02*
G01*
X77401101Y-146532420D01*
X77413130Y-146592271D01*
X77461320Y-146642014D01*
X77528752Y-146657807D01*
X77594087Y-146634612D01*
X77629822Y-146594143D01*
X77633241Y-146587923D01*
X77633422Y-146587649D01*
X77634775Y-146585929D01*
X77636632Y-146585186D01*
X77638204Y-146586423D01*
X77638098Y-146588133D01*
X77617918Y-146624689D01*
X77617805Y-146624869D01*
X77594256Y-146658501D01*
X77567101Y-146716735D01*
X77567039Y-146716857D01*
X77529990Y-146783972D01*
X77514118Y-146830331D01*
X77514039Y-146830528D01*
X77496794Y-146867510D01*
X77480268Y-146929187D01*
X77480228Y-146929317D01*
X77455292Y-147002149D01*
X77447678Y-147050769D01*
X77447634Y-147050978D01*
X77437106Y-147090268D01*
X77431560Y-147153661D01*
X77431544Y-147153796D01*
X77419599Y-147230077D01*
X77418162Y-147251146D01*
X77417047Y-147252806D01*
X77415051Y-147252670D01*
X77414214Y-147251442D01*
X77399140Y-147183244D01*
X77350006Y-147134436D01*
X77282281Y-147119940D01*
X77217342Y-147144407D01*
X77202064Y-147160231D01*
X77200141Y-147160783D01*
X77198703Y-147159393D01*
X77198880Y-147157865D01*
X77294420Y-146987268D01*
X77364892Y-146779663D01*
X77396359Y-146562633D01*
X77397141Y-146532762D01*
X77398186Y-146531056D01*
X77400185Y-146531109D01*
G37*
G36*
X191700185Y-146531109D02*
G01*
X191701101Y-146532420D01*
X191713130Y-146592271D01*
X191761320Y-146642014D01*
X191828752Y-146657807D01*
X191894087Y-146634612D01*
X191929822Y-146594143D01*
X191933241Y-146587923D01*
X191933422Y-146587649D01*
X191934775Y-146585929D01*
X191936632Y-146585186D01*
X191938204Y-146586423D01*
X191938098Y-146588133D01*
X191917918Y-146624689D01*
X191917805Y-146624869D01*
X191894256Y-146658501D01*
X191867101Y-146716735D01*
X191867039Y-146716857D01*
X191829990Y-146783972D01*
X191814118Y-146830331D01*
X191814039Y-146830528D01*
X191796794Y-146867510D01*
X191780268Y-146929187D01*
X191780228Y-146929317D01*
X191755292Y-147002149D01*
X191747678Y-147050769D01*
X191747634Y-147050978D01*
X191737106Y-147090268D01*
X191731560Y-147153661D01*
X191731544Y-147153796D01*
X191719599Y-147230077D01*
X191718162Y-147251146D01*
X191717047Y-147252806D01*
X191715051Y-147252670D01*
X191714214Y-147251442D01*
X191699140Y-147183244D01*
X191650006Y-147134436D01*
X191582281Y-147119940D01*
X191517342Y-147144407D01*
X191502064Y-147160231D01*
X191500141Y-147160783D01*
X191498703Y-147159393D01*
X191498880Y-147157865D01*
X191594420Y-146987268D01*
X191664892Y-146779663D01*
X191696359Y-146562633D01*
X191697141Y-146532762D01*
X191698186Y-146531056D01*
X191700185Y-146531109D01*
G37*
G36*
X172650185Y-146531109D02*
G01*
X172651101Y-146532420D01*
X172663130Y-146592271D01*
X172711320Y-146642014D01*
X172778752Y-146657807D01*
X172844087Y-146634612D01*
X172879822Y-146594143D01*
X172883241Y-146587923D01*
X172883422Y-146587649D01*
X172884775Y-146585929D01*
X172886632Y-146585186D01*
X172888204Y-146586423D01*
X172888098Y-146588133D01*
X172867918Y-146624689D01*
X172867805Y-146624869D01*
X172844256Y-146658501D01*
X172817101Y-146716735D01*
X172817039Y-146716857D01*
X172779990Y-146783972D01*
X172764118Y-146830331D01*
X172764039Y-146830528D01*
X172746794Y-146867510D01*
X172730268Y-146929187D01*
X172730228Y-146929317D01*
X172705292Y-147002149D01*
X172697678Y-147050769D01*
X172697634Y-147050978D01*
X172687106Y-147090268D01*
X172681560Y-147153661D01*
X172681544Y-147153796D01*
X172669599Y-147230077D01*
X172668162Y-147251146D01*
X172667047Y-147252806D01*
X172665051Y-147252670D01*
X172664214Y-147251442D01*
X172649140Y-147183244D01*
X172600006Y-147134436D01*
X172532281Y-147119940D01*
X172467342Y-147144407D01*
X172452064Y-147160231D01*
X172450141Y-147160783D01*
X172448703Y-147159393D01*
X172448880Y-147157865D01*
X172544420Y-146987268D01*
X172614892Y-146779663D01*
X172646359Y-146562633D01*
X172647141Y-146532762D01*
X172648186Y-146531056D01*
X172650185Y-146531109D01*
G37*
G36*
X210750185Y-146531109D02*
G01*
X210751101Y-146532420D01*
X210763130Y-146592271D01*
X210811320Y-146642014D01*
X210878752Y-146657807D01*
X210944087Y-146634612D01*
X210979822Y-146594143D01*
X210983241Y-146587923D01*
X210983422Y-146587649D01*
X210984775Y-146585929D01*
X210986632Y-146585186D01*
X210988204Y-146586423D01*
X210988098Y-146588133D01*
X210967918Y-146624689D01*
X210967805Y-146624869D01*
X210944256Y-146658501D01*
X210917101Y-146716735D01*
X210917039Y-146716857D01*
X210879990Y-146783972D01*
X210864118Y-146830331D01*
X210864039Y-146830528D01*
X210846794Y-146867510D01*
X210830268Y-146929187D01*
X210830228Y-146929317D01*
X210805292Y-147002149D01*
X210797678Y-147050769D01*
X210797634Y-147050978D01*
X210787106Y-147090268D01*
X210781560Y-147153661D01*
X210781544Y-147153796D01*
X210769599Y-147230077D01*
X210768162Y-147251146D01*
X210767047Y-147252806D01*
X210765051Y-147252670D01*
X210764214Y-147251442D01*
X210749140Y-147183244D01*
X210700006Y-147134436D01*
X210632281Y-147119940D01*
X210567342Y-147144407D01*
X210552064Y-147160231D01*
X210550141Y-147160783D01*
X210548703Y-147159393D01*
X210548880Y-147157865D01*
X210644420Y-146987268D01*
X210714892Y-146779663D01*
X210746359Y-146562633D01*
X210747141Y-146532762D01*
X210748186Y-146531056D01*
X210750185Y-146531109D01*
G37*
G36*
X58350185Y-146531109D02*
G01*
X58351101Y-146532420D01*
X58363130Y-146592271D01*
X58411320Y-146642014D01*
X58478752Y-146657807D01*
X58544087Y-146634612D01*
X58579822Y-146594143D01*
X58583241Y-146587923D01*
X58583422Y-146587649D01*
X58584775Y-146585929D01*
X58586632Y-146585186D01*
X58588204Y-146586423D01*
X58588098Y-146588133D01*
X58567918Y-146624689D01*
X58567805Y-146624869D01*
X58544256Y-146658501D01*
X58517101Y-146716735D01*
X58517039Y-146716857D01*
X58479990Y-146783972D01*
X58464118Y-146830331D01*
X58464039Y-146830528D01*
X58446794Y-146867510D01*
X58430268Y-146929187D01*
X58430228Y-146929317D01*
X58405292Y-147002149D01*
X58397678Y-147050769D01*
X58397634Y-147050978D01*
X58387106Y-147090268D01*
X58381560Y-147153661D01*
X58381544Y-147153796D01*
X58369599Y-147230077D01*
X58368162Y-147251146D01*
X58367047Y-147252806D01*
X58365051Y-147252670D01*
X58364214Y-147251442D01*
X58349140Y-147183244D01*
X58300006Y-147134436D01*
X58232281Y-147119940D01*
X58167342Y-147144407D01*
X58152064Y-147160231D01*
X58150141Y-147160783D01*
X58148703Y-147159393D01*
X58148880Y-147157865D01*
X58244420Y-146987268D01*
X58314892Y-146779663D01*
X58346359Y-146562633D01*
X58347141Y-146532762D01*
X58348186Y-146531056D01*
X58350185Y-146531109D01*
G37*
G36*
X153600185Y-146531109D02*
G01*
X153601101Y-146532420D01*
X153613130Y-146592271D01*
X153661320Y-146642014D01*
X153728752Y-146657807D01*
X153794087Y-146634612D01*
X153829822Y-146594143D01*
X153833241Y-146587923D01*
X153833422Y-146587649D01*
X153834775Y-146585929D01*
X153836632Y-146585186D01*
X153838204Y-146586423D01*
X153838098Y-146588133D01*
X153817918Y-146624689D01*
X153817805Y-146624869D01*
X153794256Y-146658501D01*
X153767101Y-146716735D01*
X153767039Y-146716857D01*
X153729990Y-146783972D01*
X153714118Y-146830331D01*
X153714039Y-146830528D01*
X153696794Y-146867510D01*
X153680268Y-146929187D01*
X153680228Y-146929317D01*
X153655292Y-147002149D01*
X153647678Y-147050769D01*
X153647634Y-147050978D01*
X153637106Y-147090268D01*
X153631560Y-147153661D01*
X153631544Y-147153796D01*
X153619599Y-147230077D01*
X153618162Y-147251146D01*
X153617047Y-147252806D01*
X153615051Y-147252670D01*
X153614214Y-147251442D01*
X153599140Y-147183244D01*
X153550006Y-147134436D01*
X153482281Y-147119940D01*
X153417342Y-147144407D01*
X153402064Y-147160231D01*
X153400141Y-147160783D01*
X153398703Y-147159393D01*
X153398880Y-147157865D01*
X153494420Y-146987268D01*
X153564892Y-146779663D01*
X153596359Y-146562633D01*
X153597141Y-146532762D01*
X153598186Y-146531056D01*
X153600185Y-146531109D01*
G37*
G36*
X134550185Y-146531109D02*
G01*
X134551101Y-146532420D01*
X134563130Y-146592271D01*
X134611320Y-146642014D01*
X134678752Y-146657807D01*
X134744087Y-146634612D01*
X134779822Y-146594143D01*
X134783241Y-146587923D01*
X134783422Y-146587649D01*
X134784775Y-146585929D01*
X134786632Y-146585186D01*
X134788204Y-146586423D01*
X134788098Y-146588133D01*
X134767918Y-146624689D01*
X134767805Y-146624869D01*
X134744256Y-146658501D01*
X134717101Y-146716735D01*
X134717039Y-146716857D01*
X134679990Y-146783972D01*
X134664118Y-146830331D01*
X134664039Y-146830528D01*
X134646794Y-146867510D01*
X134630268Y-146929187D01*
X134630228Y-146929317D01*
X134605292Y-147002149D01*
X134597678Y-147050769D01*
X134597634Y-147050978D01*
X134587106Y-147090268D01*
X134581560Y-147153661D01*
X134581544Y-147153796D01*
X134569599Y-147230077D01*
X134568162Y-147251146D01*
X134567047Y-147252806D01*
X134565051Y-147252670D01*
X134564214Y-147251442D01*
X134549140Y-147183244D01*
X134500006Y-147134436D01*
X134432281Y-147119940D01*
X134367342Y-147144407D01*
X134352064Y-147160231D01*
X134350141Y-147160783D01*
X134348703Y-147159393D01*
X134348880Y-147157865D01*
X134444420Y-146987268D01*
X134514892Y-146779663D01*
X134546359Y-146562633D01*
X134547141Y-146532762D01*
X134548186Y-146531056D01*
X134550185Y-146531109D01*
G37*
G36*
X115500185Y-146531109D02*
G01*
X115501101Y-146532420D01*
X115513130Y-146592271D01*
X115561320Y-146642014D01*
X115628752Y-146657807D01*
X115694087Y-146634612D01*
X115729822Y-146594143D01*
X115733241Y-146587923D01*
X115733422Y-146587649D01*
X115734775Y-146585929D01*
X115736632Y-146585186D01*
X115738204Y-146586423D01*
X115738098Y-146588133D01*
X115717918Y-146624689D01*
X115717805Y-146624869D01*
X115694256Y-146658501D01*
X115667101Y-146716735D01*
X115667039Y-146716857D01*
X115629990Y-146783972D01*
X115614118Y-146830331D01*
X115614039Y-146830528D01*
X115596794Y-146867510D01*
X115580268Y-146929187D01*
X115580228Y-146929317D01*
X115555292Y-147002149D01*
X115547678Y-147050769D01*
X115547634Y-147050978D01*
X115537106Y-147090268D01*
X115531560Y-147153661D01*
X115531544Y-147153796D01*
X115519599Y-147230077D01*
X115518162Y-147251146D01*
X115517047Y-147252806D01*
X115515051Y-147252670D01*
X115514214Y-147251442D01*
X115499140Y-147183244D01*
X115450006Y-147134436D01*
X115382281Y-147119940D01*
X115317342Y-147144407D01*
X115302064Y-147160231D01*
X115300141Y-147160783D01*
X115298703Y-147159393D01*
X115298880Y-147157865D01*
X115394420Y-146987268D01*
X115464892Y-146779663D01*
X115496359Y-146562633D01*
X115497141Y-146532762D01*
X115498186Y-146531056D01*
X115500185Y-146531109D01*
G37*
G36*
X96450185Y-146531109D02*
G01*
X96451101Y-146532420D01*
X96463130Y-146592271D01*
X96511320Y-146642014D01*
X96578752Y-146657807D01*
X96644087Y-146634612D01*
X96679822Y-146594143D01*
X96683241Y-146587923D01*
X96683422Y-146587649D01*
X96684775Y-146585929D01*
X96686632Y-146585186D01*
X96688204Y-146586423D01*
X96688098Y-146588133D01*
X96667918Y-146624689D01*
X96667805Y-146624869D01*
X96644256Y-146658501D01*
X96617101Y-146716735D01*
X96617039Y-146716857D01*
X96579990Y-146783972D01*
X96564118Y-146830331D01*
X96564039Y-146830528D01*
X96546794Y-146867510D01*
X96530268Y-146929187D01*
X96530228Y-146929317D01*
X96505292Y-147002149D01*
X96497678Y-147050769D01*
X96497634Y-147050978D01*
X96487106Y-147090268D01*
X96481560Y-147153661D01*
X96481544Y-147153796D01*
X96469599Y-147230077D01*
X96468162Y-147251146D01*
X96467047Y-147252806D01*
X96465051Y-147252670D01*
X96464214Y-147251442D01*
X96449140Y-147183244D01*
X96400006Y-147134436D01*
X96332281Y-147119940D01*
X96267342Y-147144407D01*
X96252064Y-147160231D01*
X96250141Y-147160783D01*
X96248703Y-147159393D01*
X96248880Y-147157865D01*
X96344420Y-146987268D01*
X96414892Y-146779663D01*
X96446359Y-146562633D01*
X96447141Y-146532762D01*
X96448186Y-146531056D01*
X96450185Y-146531109D01*
G37*
G36*
X180971526Y-136256721D02*
G01*
X180972465Y-136258416D01*
X180972465Y-138241808D01*
X180971465Y-138243540D01*
X180969465Y-138243540D01*
X180968546Y-138242371D01*
X180948869Y-138175356D01*
X180896526Y-138130001D01*
X180827973Y-138120144D01*
X180764736Y-138149024D01*
X180758455Y-138154871D01*
X180741421Y-138171905D01*
X180739489Y-138172423D01*
X180738075Y-138171009D01*
X180738344Y-138169380D01*
X180767417Y-138125870D01*
X180782526Y-138049913D01*
X180782526Y-136450311D01*
X180767417Y-136374354D01*
X180738344Y-136330844D01*
X180738213Y-136328848D01*
X180739876Y-136327737D01*
X180741421Y-136328319D01*
X180758289Y-136345187D01*
X180819338Y-136378521D01*
X180888420Y-136373581D01*
X180943864Y-136332076D01*
X180968160Y-136266938D01*
X180968466Y-136258345D01*
X180969527Y-136256649D01*
X180971526Y-136256721D01*
G37*
G36*
X200021542Y-136256721D02*
G01*
X200022481Y-136258416D01*
X200022481Y-138241808D01*
X200021481Y-138243540D01*
X200019481Y-138243540D01*
X200018562Y-138242371D01*
X199998885Y-138175356D01*
X199946542Y-138130001D01*
X199877989Y-138120144D01*
X199814752Y-138149024D01*
X199808471Y-138154871D01*
X199791437Y-138171905D01*
X199789505Y-138172423D01*
X199788091Y-138171009D01*
X199788360Y-138169380D01*
X199817433Y-138125870D01*
X199832542Y-138049913D01*
X199832542Y-136450311D01*
X199817433Y-136374354D01*
X199788360Y-136330844D01*
X199788229Y-136328848D01*
X199789892Y-136327737D01*
X199791437Y-136328319D01*
X199808305Y-136345187D01*
X199869354Y-136378521D01*
X199938436Y-136373581D01*
X199993880Y-136332076D01*
X200018176Y-136266938D01*
X200018482Y-136258345D01*
X200019543Y-136256649D01*
X200021542Y-136256721D01*
G37*
G36*
X180715200Y-129082512D02*
G01*
X180719409Y-129091047D01*
X180719540Y-129091389D01*
X180727007Y-129117867D01*
X180763984Y-129176782D01*
X180826670Y-129206225D01*
X180895328Y-129197103D01*
X180948146Y-129152317D01*
X180968549Y-129084182D01*
X180970004Y-129082810D01*
X180971920Y-129083384D01*
X180972465Y-129084756D01*
X180972465Y-129809880D01*
X180971465Y-129811612D01*
X180969465Y-129811612D01*
X180968546Y-129810443D01*
X180948869Y-129743428D01*
X180896526Y-129698073D01*
X180827973Y-129688216D01*
X180764954Y-129716996D01*
X180728909Y-129770596D01*
X180727024Y-129776149D01*
X180725520Y-129777468D01*
X180723626Y-129776825D01*
X180723232Y-129774875D01*
X180757716Y-129671213D01*
X180782138Y-129477898D01*
X180782525Y-129450190D01*
X180763511Y-129256272D01*
X180711491Y-129083975D01*
X180711948Y-129082028D01*
X180713863Y-129081450D01*
X180715200Y-129082512D01*
G37*
G36*
X199765216Y-129082512D02*
G01*
X199769425Y-129091047D01*
X199769556Y-129091389D01*
X199777023Y-129117867D01*
X199814000Y-129176782D01*
X199876686Y-129206225D01*
X199945344Y-129197103D01*
X199998162Y-129152317D01*
X200018565Y-129084182D01*
X200020020Y-129082810D01*
X200021936Y-129083384D01*
X200022481Y-129084756D01*
X200022481Y-129809880D01*
X200021481Y-129811612D01*
X200019481Y-129811612D01*
X200018562Y-129810443D01*
X199998885Y-129743428D01*
X199946542Y-129698073D01*
X199877989Y-129688216D01*
X199814970Y-129716996D01*
X199778925Y-129770596D01*
X199777040Y-129776149D01*
X199775536Y-129777468D01*
X199773642Y-129776825D01*
X199773248Y-129774875D01*
X199807732Y-129671213D01*
X199832154Y-129477898D01*
X199832541Y-129450190D01*
X199813527Y-129256272D01*
X199761507Y-129083975D01*
X199761964Y-129082028D01*
X199763879Y-129081450D01*
X199765216Y-129082512D01*
G37*
G36*
X60987815Y-128721829D02*
G01*
X60988653Y-128723057D01*
X61003727Y-128791253D01*
X61052861Y-128840061D01*
X61120586Y-128854557D01*
X61185525Y-128830090D01*
X61212254Y-128802406D01*
X61229472Y-128777818D01*
X61229696Y-128777551D01*
X61253744Y-128753503D01*
X61255676Y-128752985D01*
X61257090Y-128754399D01*
X61256729Y-128756155D01*
X61145279Y-128897528D01*
X61043201Y-129091548D01*
X60978187Y-129300924D01*
X60952419Y-129518638D01*
X60962105Y-129666420D01*
X60961220Y-129668214D01*
X60959224Y-129668345D01*
X60958246Y-129667280D01*
X60933531Y-129604095D01*
X60877436Y-129563475D01*
X60808284Y-129559632D01*
X60748537Y-129593497D01*
X60746537Y-129593481D01*
X60745551Y-129591741D01*
X60745995Y-129590501D01*
X60748099Y-129587894D01*
X60859552Y-129385997D01*
X60934250Y-129167819D01*
X60969943Y-128939891D01*
X60984705Y-128723353D01*
X60985820Y-128721693D01*
X60987815Y-128721829D01*
G37*
G36*
X156237815Y-128721829D02*
G01*
X156238653Y-128723057D01*
X156253727Y-128791253D01*
X156302861Y-128840061D01*
X156370586Y-128854557D01*
X156435525Y-128830090D01*
X156462254Y-128802406D01*
X156479472Y-128777818D01*
X156479696Y-128777551D01*
X156503744Y-128753503D01*
X156505676Y-128752985D01*
X156507090Y-128754399D01*
X156506729Y-128756155D01*
X156395279Y-128897528D01*
X156293201Y-129091548D01*
X156228187Y-129300924D01*
X156202419Y-129518638D01*
X156212105Y-129666420D01*
X156211220Y-129668214D01*
X156209224Y-129668345D01*
X156208246Y-129667280D01*
X156183531Y-129604095D01*
X156127436Y-129563475D01*
X156058284Y-129559632D01*
X155998537Y-129593497D01*
X155996537Y-129593481D01*
X155995551Y-129591741D01*
X155995995Y-129590501D01*
X155998099Y-129587894D01*
X156109552Y-129385997D01*
X156184250Y-129167819D01*
X156219943Y-128939891D01*
X156234705Y-128723353D01*
X156235820Y-128721693D01*
X156237815Y-128721829D01*
G37*
G36*
X175287815Y-128721829D02*
G01*
X175288653Y-128723057D01*
X175303727Y-128791253D01*
X175352861Y-128840061D01*
X175420586Y-128854557D01*
X175485525Y-128830090D01*
X175512254Y-128802406D01*
X175529472Y-128777818D01*
X175529696Y-128777551D01*
X175553744Y-128753503D01*
X175555676Y-128752985D01*
X175557090Y-128754399D01*
X175556729Y-128756155D01*
X175445279Y-128897528D01*
X175343201Y-129091548D01*
X175278187Y-129300924D01*
X175252419Y-129518638D01*
X175262105Y-129666420D01*
X175261220Y-129668214D01*
X175259224Y-129668345D01*
X175258246Y-129667280D01*
X175233531Y-129604095D01*
X175177436Y-129563475D01*
X175108284Y-129559632D01*
X175048537Y-129593497D01*
X175046537Y-129593481D01*
X175045551Y-129591741D01*
X175045995Y-129590501D01*
X175048099Y-129587894D01*
X175159552Y-129385997D01*
X175234250Y-129167819D01*
X175269943Y-128939891D01*
X175284705Y-128723353D01*
X175285820Y-128721693D01*
X175287815Y-128721829D01*
G37*
G36*
X99087815Y-128721829D02*
G01*
X99088653Y-128723057D01*
X99103727Y-128791253D01*
X99152861Y-128840061D01*
X99220586Y-128854557D01*
X99285525Y-128830090D01*
X99312254Y-128802406D01*
X99329472Y-128777818D01*
X99329696Y-128777551D01*
X99353744Y-128753503D01*
X99355676Y-128752985D01*
X99357090Y-128754399D01*
X99356729Y-128756155D01*
X99245279Y-128897528D01*
X99143201Y-129091548D01*
X99078187Y-129300924D01*
X99052419Y-129518638D01*
X99062105Y-129666420D01*
X99061220Y-129668214D01*
X99059224Y-129668345D01*
X99058246Y-129667280D01*
X99033531Y-129604095D01*
X98977436Y-129563475D01*
X98908284Y-129559632D01*
X98848537Y-129593497D01*
X98846537Y-129593481D01*
X98845551Y-129591741D01*
X98845995Y-129590501D01*
X98848099Y-129587894D01*
X98959552Y-129385997D01*
X99034250Y-129167819D01*
X99069943Y-128939891D01*
X99084705Y-128723353D01*
X99085820Y-128721693D01*
X99087815Y-128721829D01*
G37*
G36*
X80037815Y-128721829D02*
G01*
X80038653Y-128723057D01*
X80053727Y-128791253D01*
X80102861Y-128840061D01*
X80170586Y-128854557D01*
X80235525Y-128830090D01*
X80262254Y-128802406D01*
X80279472Y-128777818D01*
X80279696Y-128777551D01*
X80303744Y-128753503D01*
X80305676Y-128752985D01*
X80307090Y-128754399D01*
X80306729Y-128756155D01*
X80195279Y-128897528D01*
X80093201Y-129091548D01*
X80028187Y-129300924D01*
X80002419Y-129518638D01*
X80012105Y-129666420D01*
X80011220Y-129668214D01*
X80009224Y-129668345D01*
X80008246Y-129667280D01*
X79983531Y-129604095D01*
X79927436Y-129563475D01*
X79858284Y-129559632D01*
X79798537Y-129593497D01*
X79796537Y-129593481D01*
X79795551Y-129591741D01*
X79795995Y-129590501D01*
X79798099Y-129587894D01*
X79909552Y-129385997D01*
X79984250Y-129167819D01*
X80019943Y-128939891D01*
X80034705Y-128723353D01*
X80035820Y-128721693D01*
X80037815Y-128721829D01*
G37*
G36*
X213387815Y-128721829D02*
G01*
X213388653Y-128723057D01*
X213403727Y-128791253D01*
X213452861Y-128840061D01*
X213520586Y-128854557D01*
X213585525Y-128830090D01*
X213612254Y-128802406D01*
X213629472Y-128777818D01*
X213629696Y-128777551D01*
X213653744Y-128753503D01*
X213655676Y-128752985D01*
X213657090Y-128754399D01*
X213656729Y-128756155D01*
X213545279Y-128897528D01*
X213443201Y-129091548D01*
X213378187Y-129300924D01*
X213352419Y-129518638D01*
X213362105Y-129666420D01*
X213361220Y-129668214D01*
X213359224Y-129668345D01*
X213358246Y-129667280D01*
X213333531Y-129604095D01*
X213277436Y-129563475D01*
X213208284Y-129559632D01*
X213148537Y-129593497D01*
X213146537Y-129593481D01*
X213145551Y-129591741D01*
X213145995Y-129590501D01*
X213148099Y-129587894D01*
X213259552Y-129385997D01*
X213334250Y-129167819D01*
X213369943Y-128939891D01*
X213384705Y-128723353D01*
X213385820Y-128721693D01*
X213387815Y-128721829D01*
G37*
G36*
X118137815Y-128721829D02*
G01*
X118138653Y-128723057D01*
X118153727Y-128791253D01*
X118202861Y-128840061D01*
X118270586Y-128854557D01*
X118335525Y-128830090D01*
X118362254Y-128802406D01*
X118379472Y-128777818D01*
X118379696Y-128777551D01*
X118403744Y-128753503D01*
X118405676Y-128752985D01*
X118407090Y-128754399D01*
X118406729Y-128756155D01*
X118295279Y-128897528D01*
X118193201Y-129091548D01*
X118128187Y-129300924D01*
X118102419Y-129518638D01*
X118112105Y-129666420D01*
X118111220Y-129668214D01*
X118109224Y-129668345D01*
X118108246Y-129667280D01*
X118083531Y-129604095D01*
X118027436Y-129563475D01*
X117958284Y-129559632D01*
X117898537Y-129593497D01*
X117896537Y-129593481D01*
X117895551Y-129591741D01*
X117895995Y-129590501D01*
X117898099Y-129587894D01*
X118009552Y-129385997D01*
X118084250Y-129167819D01*
X118119943Y-128939891D01*
X118134705Y-128723353D01*
X118135820Y-128721693D01*
X118137815Y-128721829D01*
G37*
G36*
X194337815Y-128721829D02*
G01*
X194338653Y-128723057D01*
X194353727Y-128791253D01*
X194402861Y-128840061D01*
X194470586Y-128854557D01*
X194535525Y-128830090D01*
X194562254Y-128802406D01*
X194579472Y-128777818D01*
X194579696Y-128777551D01*
X194603744Y-128753503D01*
X194605676Y-128752985D01*
X194607090Y-128754399D01*
X194606729Y-128756155D01*
X194495279Y-128897528D01*
X194393201Y-129091548D01*
X194328187Y-129300924D01*
X194302419Y-129518638D01*
X194312105Y-129666420D01*
X194311220Y-129668214D01*
X194309224Y-129668345D01*
X194308246Y-129667280D01*
X194283531Y-129604095D01*
X194227436Y-129563475D01*
X194158284Y-129559632D01*
X194098537Y-129593497D01*
X194096537Y-129593481D01*
X194095551Y-129591741D01*
X194095995Y-129590501D01*
X194098099Y-129587894D01*
X194209552Y-129385997D01*
X194284250Y-129167819D01*
X194319943Y-128939891D01*
X194334705Y-128723353D01*
X194335820Y-128721693D01*
X194337815Y-128721829D01*
G37*
G36*
X137187815Y-128721829D02*
G01*
X137188653Y-128723057D01*
X137203727Y-128791253D01*
X137252861Y-128840061D01*
X137320586Y-128854557D01*
X137385525Y-128830090D01*
X137412254Y-128802406D01*
X137429472Y-128777818D01*
X137429696Y-128777551D01*
X137453744Y-128753503D01*
X137455676Y-128752985D01*
X137457090Y-128754399D01*
X137456729Y-128756155D01*
X137345279Y-128897528D01*
X137243201Y-129091548D01*
X137178187Y-129300924D01*
X137152419Y-129518638D01*
X137162105Y-129666420D01*
X137161220Y-129668214D01*
X137159224Y-129668345D01*
X137158246Y-129667280D01*
X137133531Y-129604095D01*
X137077436Y-129563475D01*
X137008284Y-129559632D01*
X136948537Y-129593497D01*
X136946537Y-129593481D01*
X136945551Y-129591741D01*
X136945995Y-129590501D01*
X136948099Y-129587894D01*
X137059552Y-129385997D01*
X137134250Y-129167819D01*
X137169943Y-128939891D01*
X137184705Y-128723353D01*
X137185820Y-128721693D01*
X137187815Y-128721829D01*
G37*
G36*
X77400185Y-127481109D02*
G01*
X77401101Y-127482420D01*
X77413130Y-127542271D01*
X77461320Y-127592014D01*
X77528752Y-127607807D01*
X77594087Y-127584612D01*
X77629822Y-127544143D01*
X77633241Y-127537923D01*
X77633422Y-127537649D01*
X77634775Y-127535929D01*
X77636632Y-127535186D01*
X77638204Y-127536423D01*
X77638098Y-127538133D01*
X77617918Y-127574689D01*
X77617805Y-127574869D01*
X77594256Y-127608501D01*
X77567101Y-127666735D01*
X77567039Y-127666857D01*
X77529990Y-127733972D01*
X77514118Y-127780331D01*
X77514039Y-127780528D01*
X77496794Y-127817510D01*
X77480268Y-127879187D01*
X77480228Y-127879317D01*
X77455292Y-127952149D01*
X77447678Y-128000769D01*
X77447634Y-128000978D01*
X77437106Y-128040268D01*
X77431560Y-128103661D01*
X77431544Y-128103796D01*
X77419599Y-128180077D01*
X77418162Y-128201146D01*
X77417047Y-128202806D01*
X77415051Y-128202670D01*
X77414214Y-128201442D01*
X77399140Y-128133244D01*
X77350006Y-128084436D01*
X77282281Y-128069940D01*
X77217342Y-128094407D01*
X77202064Y-128110231D01*
X77200141Y-128110783D01*
X77198703Y-128109393D01*
X77198880Y-128107865D01*
X77294420Y-127937268D01*
X77364892Y-127729663D01*
X77396359Y-127512633D01*
X77397141Y-127482762D01*
X77398186Y-127481056D01*
X77400185Y-127481109D01*
G37*
G36*
X58350185Y-127481109D02*
G01*
X58351101Y-127482420D01*
X58363130Y-127542271D01*
X58411320Y-127592014D01*
X58478752Y-127607807D01*
X58544087Y-127584612D01*
X58579822Y-127544143D01*
X58583241Y-127537923D01*
X58583422Y-127537649D01*
X58584775Y-127535929D01*
X58586632Y-127535186D01*
X58588204Y-127536423D01*
X58588098Y-127538133D01*
X58567918Y-127574689D01*
X58567805Y-127574869D01*
X58544256Y-127608501D01*
X58517101Y-127666735D01*
X58517039Y-127666857D01*
X58479990Y-127733972D01*
X58464118Y-127780331D01*
X58464039Y-127780528D01*
X58446794Y-127817510D01*
X58430268Y-127879187D01*
X58430228Y-127879317D01*
X58405292Y-127952149D01*
X58397678Y-128000769D01*
X58397634Y-128000978D01*
X58387106Y-128040268D01*
X58381560Y-128103661D01*
X58381544Y-128103796D01*
X58369599Y-128180077D01*
X58368162Y-128201146D01*
X58367047Y-128202806D01*
X58365051Y-128202670D01*
X58364214Y-128201442D01*
X58349140Y-128133244D01*
X58300006Y-128084436D01*
X58232281Y-128069940D01*
X58167342Y-128094407D01*
X58152064Y-128110231D01*
X58150141Y-128110783D01*
X58148703Y-128109393D01*
X58148880Y-128107865D01*
X58244420Y-127937268D01*
X58314892Y-127729663D01*
X58346359Y-127512633D01*
X58347141Y-127482762D01*
X58348186Y-127481056D01*
X58350185Y-127481109D01*
G37*
G36*
X210750185Y-127481109D02*
G01*
X210751101Y-127482420D01*
X210763130Y-127542271D01*
X210811320Y-127592014D01*
X210878752Y-127607807D01*
X210944087Y-127584612D01*
X210979822Y-127544143D01*
X210983241Y-127537923D01*
X210983422Y-127537649D01*
X210984775Y-127535929D01*
X210986632Y-127535186D01*
X210988204Y-127536423D01*
X210988098Y-127538133D01*
X210967918Y-127574689D01*
X210967805Y-127574869D01*
X210944256Y-127608501D01*
X210917101Y-127666735D01*
X210917039Y-127666857D01*
X210879990Y-127733972D01*
X210864118Y-127780331D01*
X210864039Y-127780528D01*
X210846794Y-127817510D01*
X210830268Y-127879187D01*
X210830228Y-127879317D01*
X210805292Y-127952149D01*
X210797678Y-128000769D01*
X210797634Y-128000978D01*
X210787106Y-128040268D01*
X210781560Y-128103661D01*
X210781544Y-128103796D01*
X210769599Y-128180077D01*
X210768162Y-128201146D01*
X210767047Y-128202806D01*
X210765051Y-128202670D01*
X210764214Y-128201442D01*
X210749140Y-128133244D01*
X210700006Y-128084436D01*
X210632281Y-128069940D01*
X210567342Y-128094407D01*
X210552064Y-128110231D01*
X210550141Y-128110783D01*
X210548703Y-128109393D01*
X210548880Y-128107865D01*
X210644420Y-127937268D01*
X210714892Y-127729663D01*
X210746359Y-127512633D01*
X210747141Y-127482762D01*
X210748186Y-127481056D01*
X210750185Y-127481109D01*
G37*
G36*
X191700185Y-127481109D02*
G01*
X191701101Y-127482420D01*
X191713130Y-127542271D01*
X191761320Y-127592014D01*
X191828752Y-127607807D01*
X191894087Y-127584612D01*
X191929822Y-127544143D01*
X191933241Y-127537923D01*
X191933422Y-127537649D01*
X191934775Y-127535929D01*
X191936632Y-127535186D01*
X191938204Y-127536423D01*
X191938098Y-127538133D01*
X191917918Y-127574689D01*
X191917805Y-127574869D01*
X191894256Y-127608501D01*
X191867101Y-127666735D01*
X191867039Y-127666857D01*
X191829990Y-127733972D01*
X191814118Y-127780331D01*
X191814039Y-127780528D01*
X191796794Y-127817510D01*
X191780268Y-127879187D01*
X191780228Y-127879317D01*
X191755292Y-127952149D01*
X191747678Y-128000769D01*
X191747634Y-128000978D01*
X191737106Y-128040268D01*
X191731560Y-128103661D01*
X191731544Y-128103796D01*
X191719599Y-128180077D01*
X191718162Y-128201146D01*
X191717047Y-128202806D01*
X191715051Y-128202670D01*
X191714214Y-128201442D01*
X191699140Y-128133244D01*
X191650006Y-128084436D01*
X191582281Y-128069940D01*
X191517342Y-128094407D01*
X191502064Y-128110231D01*
X191500141Y-128110783D01*
X191498703Y-128109393D01*
X191498880Y-128107865D01*
X191594420Y-127937268D01*
X191664892Y-127729663D01*
X191696359Y-127512633D01*
X191697141Y-127482762D01*
X191698186Y-127481056D01*
X191700185Y-127481109D01*
G37*
G36*
X96450185Y-127481109D02*
G01*
X96451101Y-127482420D01*
X96463130Y-127542271D01*
X96511320Y-127592014D01*
X96578752Y-127607807D01*
X96644087Y-127584612D01*
X96679822Y-127544143D01*
X96683241Y-127537923D01*
X96683422Y-127537649D01*
X96684775Y-127535929D01*
X96686632Y-127535186D01*
X96688204Y-127536423D01*
X96688098Y-127538133D01*
X96667918Y-127574689D01*
X96667805Y-127574869D01*
X96644256Y-127608501D01*
X96617101Y-127666735D01*
X96617039Y-127666857D01*
X96579990Y-127733972D01*
X96564118Y-127780331D01*
X96564039Y-127780528D01*
X96546794Y-127817510D01*
X96530268Y-127879187D01*
X96530228Y-127879317D01*
X96505292Y-127952149D01*
X96497678Y-128000769D01*
X96497634Y-128000978D01*
X96487106Y-128040268D01*
X96481560Y-128103661D01*
X96481544Y-128103796D01*
X96469599Y-128180077D01*
X96468162Y-128201146D01*
X96467047Y-128202806D01*
X96465051Y-128202670D01*
X96464214Y-128201442D01*
X96449140Y-128133244D01*
X96400006Y-128084436D01*
X96332281Y-128069940D01*
X96267342Y-128094407D01*
X96252064Y-128110231D01*
X96250141Y-128110783D01*
X96248703Y-128109393D01*
X96248880Y-128107865D01*
X96344420Y-127937268D01*
X96414892Y-127729663D01*
X96446359Y-127512633D01*
X96447141Y-127482762D01*
X96448186Y-127481056D01*
X96450185Y-127481109D01*
G37*
G36*
X172650185Y-127481109D02*
G01*
X172651101Y-127482420D01*
X172663130Y-127542271D01*
X172711320Y-127592014D01*
X172778752Y-127607807D01*
X172844087Y-127584612D01*
X172879822Y-127544143D01*
X172883241Y-127537923D01*
X172883422Y-127537649D01*
X172884775Y-127535929D01*
X172886632Y-127535186D01*
X172888204Y-127536423D01*
X172888098Y-127538133D01*
X172867918Y-127574689D01*
X172867805Y-127574869D01*
X172844256Y-127608501D01*
X172817101Y-127666735D01*
X172817039Y-127666857D01*
X172779990Y-127733972D01*
X172764118Y-127780331D01*
X172764039Y-127780528D01*
X172746794Y-127817510D01*
X172730268Y-127879187D01*
X172730228Y-127879317D01*
X172705292Y-127952149D01*
X172697678Y-128000769D01*
X172697634Y-128000978D01*
X172687106Y-128040268D01*
X172681560Y-128103661D01*
X172681544Y-128103796D01*
X172669599Y-128180077D01*
X172668162Y-128201146D01*
X172667047Y-128202806D01*
X172665051Y-128202670D01*
X172664214Y-128201442D01*
X172649140Y-128133244D01*
X172600006Y-128084436D01*
X172532281Y-128069940D01*
X172467342Y-128094407D01*
X172452064Y-128110231D01*
X172450141Y-128110783D01*
X172448703Y-128109393D01*
X172448880Y-128107865D01*
X172544420Y-127937268D01*
X172614892Y-127729663D01*
X172646359Y-127512633D01*
X172647141Y-127482762D01*
X172648186Y-127481056D01*
X172650185Y-127481109D01*
G37*
G36*
X153600185Y-127481109D02*
G01*
X153601101Y-127482420D01*
X153613130Y-127542271D01*
X153661320Y-127592014D01*
X153728752Y-127607807D01*
X153794087Y-127584612D01*
X153829822Y-127544143D01*
X153833241Y-127537923D01*
X153833422Y-127537649D01*
X153834775Y-127535929D01*
X153836632Y-127535186D01*
X153838204Y-127536423D01*
X153838098Y-127538133D01*
X153817918Y-127574689D01*
X153817805Y-127574869D01*
X153794256Y-127608501D01*
X153767101Y-127666735D01*
X153767039Y-127666857D01*
X153729990Y-127733972D01*
X153714118Y-127780331D01*
X153714039Y-127780528D01*
X153696794Y-127817510D01*
X153680268Y-127879187D01*
X153680228Y-127879317D01*
X153655292Y-127952149D01*
X153647678Y-128000769D01*
X153647634Y-128000978D01*
X153637106Y-128040268D01*
X153631560Y-128103661D01*
X153631544Y-128103796D01*
X153619599Y-128180077D01*
X153618162Y-128201146D01*
X153617047Y-128202806D01*
X153615051Y-128202670D01*
X153614214Y-128201442D01*
X153599140Y-128133244D01*
X153550006Y-128084436D01*
X153482281Y-128069940D01*
X153417342Y-128094407D01*
X153402064Y-128110231D01*
X153400141Y-128110783D01*
X153398703Y-128109393D01*
X153398880Y-128107865D01*
X153494420Y-127937268D01*
X153564892Y-127729663D01*
X153596359Y-127512633D01*
X153597141Y-127482762D01*
X153598186Y-127481056D01*
X153600185Y-127481109D01*
G37*
G36*
X134550185Y-127481109D02*
G01*
X134551101Y-127482420D01*
X134563130Y-127542271D01*
X134611320Y-127592014D01*
X134678752Y-127607807D01*
X134744087Y-127584612D01*
X134779822Y-127544143D01*
X134783241Y-127537923D01*
X134783422Y-127537649D01*
X134784775Y-127535929D01*
X134786632Y-127535186D01*
X134788204Y-127536423D01*
X134788098Y-127538133D01*
X134767918Y-127574689D01*
X134767805Y-127574869D01*
X134744256Y-127608501D01*
X134717101Y-127666735D01*
X134717039Y-127666857D01*
X134679990Y-127733972D01*
X134664118Y-127780331D01*
X134664039Y-127780528D01*
X134646794Y-127817510D01*
X134630268Y-127879187D01*
X134630228Y-127879317D01*
X134605292Y-127952149D01*
X134597678Y-128000769D01*
X134597634Y-128000978D01*
X134587106Y-128040268D01*
X134581560Y-128103661D01*
X134581544Y-128103796D01*
X134569599Y-128180077D01*
X134568162Y-128201146D01*
X134567047Y-128202806D01*
X134565051Y-128202670D01*
X134564214Y-128201442D01*
X134549140Y-128133244D01*
X134500006Y-128084436D01*
X134432281Y-128069940D01*
X134367342Y-128094407D01*
X134352064Y-128110231D01*
X134350141Y-128110783D01*
X134348703Y-128109393D01*
X134348880Y-128107865D01*
X134444420Y-127937268D01*
X134514892Y-127729663D01*
X134546359Y-127512633D01*
X134547141Y-127482762D01*
X134548186Y-127481056D01*
X134550185Y-127481109D01*
G37*
G36*
X115500185Y-127481109D02*
G01*
X115501101Y-127482420D01*
X115513130Y-127542271D01*
X115561320Y-127592014D01*
X115628752Y-127607807D01*
X115694087Y-127584612D01*
X115729822Y-127544143D01*
X115733241Y-127537923D01*
X115733422Y-127537649D01*
X115734775Y-127535929D01*
X115736632Y-127535186D01*
X115738204Y-127536423D01*
X115738098Y-127538133D01*
X115717918Y-127574689D01*
X115717805Y-127574869D01*
X115694256Y-127608501D01*
X115667101Y-127666735D01*
X115667039Y-127666857D01*
X115629990Y-127733972D01*
X115614118Y-127780331D01*
X115614039Y-127780528D01*
X115596794Y-127817510D01*
X115580268Y-127879187D01*
X115580228Y-127879317D01*
X115555292Y-127952149D01*
X115547678Y-128000769D01*
X115547634Y-128000978D01*
X115537106Y-128040268D01*
X115531560Y-128103661D01*
X115531544Y-128103796D01*
X115519599Y-128180077D01*
X115518162Y-128201146D01*
X115517047Y-128202806D01*
X115515051Y-128202670D01*
X115514214Y-128201442D01*
X115499140Y-128133244D01*
X115450006Y-128084436D01*
X115382281Y-128069940D01*
X115317342Y-128094407D01*
X115302064Y-128110231D01*
X115300141Y-128110783D01*
X115298703Y-128109393D01*
X115298880Y-128107865D01*
X115394420Y-127937268D01*
X115464892Y-127729663D01*
X115496359Y-127512633D01*
X115497141Y-127482762D01*
X115498186Y-127481056D01*
X115500185Y-127481109D01*
G37*
G36*
X180971526Y-117206609D02*
G01*
X180972465Y-117208304D01*
X180972465Y-119191696D01*
X180971465Y-119193428D01*
X180969465Y-119193428D01*
X180968546Y-119192259D01*
X180948869Y-119125244D01*
X180896526Y-119079889D01*
X180827973Y-119070032D01*
X180764736Y-119098912D01*
X180758455Y-119104759D01*
X180741421Y-119121793D01*
X180739489Y-119122311D01*
X180738075Y-119120897D01*
X180738344Y-119119268D01*
X180767417Y-119075758D01*
X180782526Y-118999801D01*
X180782526Y-117400199D01*
X180767417Y-117324242D01*
X180738344Y-117280732D01*
X180738213Y-117278736D01*
X180739876Y-117277625D01*
X180741421Y-117278207D01*
X180758289Y-117295075D01*
X180819338Y-117328409D01*
X180888420Y-117323469D01*
X180943864Y-117281964D01*
X180968160Y-117216826D01*
X180968466Y-117208233D01*
X180969527Y-117206537D01*
X180971526Y-117206609D01*
G37*
G36*
X200021542Y-117206609D02*
G01*
X200022481Y-117208304D01*
X200022481Y-119191696D01*
X200021481Y-119193428D01*
X200019481Y-119193428D01*
X200018562Y-119192259D01*
X199998885Y-119125244D01*
X199946542Y-119079889D01*
X199877989Y-119070032D01*
X199814752Y-119098912D01*
X199808471Y-119104759D01*
X199791437Y-119121793D01*
X199789505Y-119122311D01*
X199788091Y-119120897D01*
X199788360Y-119119268D01*
X199817433Y-119075758D01*
X199832542Y-118999801D01*
X199832542Y-117400199D01*
X199817433Y-117324242D01*
X199788360Y-117280732D01*
X199788229Y-117278736D01*
X199789892Y-117277625D01*
X199791437Y-117278207D01*
X199808305Y-117295075D01*
X199869354Y-117328409D01*
X199938436Y-117323469D01*
X199993880Y-117281964D01*
X200018176Y-117216826D01*
X200018482Y-117208233D01*
X200019543Y-117206537D01*
X200021542Y-117206609D01*
G37*
G36*
X199765216Y-110032400D02*
G01*
X199769425Y-110040935D01*
X199769556Y-110041277D01*
X199777023Y-110067755D01*
X199814000Y-110126670D01*
X199876686Y-110156113D01*
X199945344Y-110146991D01*
X199998162Y-110102205D01*
X200018565Y-110034070D01*
X200020020Y-110032698D01*
X200021936Y-110033272D01*
X200022481Y-110034644D01*
X200022481Y-110759768D01*
X200021481Y-110761500D01*
X200019481Y-110761500D01*
X200018562Y-110760331D01*
X199998885Y-110693316D01*
X199946542Y-110647961D01*
X199877989Y-110638104D01*
X199814970Y-110666884D01*
X199778925Y-110720484D01*
X199777040Y-110726037D01*
X199775536Y-110727356D01*
X199773642Y-110726713D01*
X199773248Y-110724763D01*
X199807732Y-110621101D01*
X199832154Y-110427786D01*
X199832541Y-110400078D01*
X199813527Y-110206160D01*
X199761507Y-110033863D01*
X199761964Y-110031916D01*
X199763879Y-110031338D01*
X199765216Y-110032400D01*
G37*
G36*
X180715200Y-110032400D02*
G01*
X180719409Y-110040935D01*
X180719540Y-110041277D01*
X180727007Y-110067755D01*
X180763984Y-110126670D01*
X180826670Y-110156113D01*
X180895328Y-110146991D01*
X180948146Y-110102205D01*
X180968549Y-110034070D01*
X180970004Y-110032698D01*
X180971920Y-110033272D01*
X180972465Y-110034644D01*
X180972465Y-110759768D01*
X180971465Y-110761500D01*
X180969465Y-110761500D01*
X180968546Y-110760331D01*
X180948869Y-110693316D01*
X180896526Y-110647961D01*
X180827973Y-110638104D01*
X180764954Y-110666884D01*
X180728909Y-110720484D01*
X180727024Y-110726037D01*
X180725520Y-110727356D01*
X180723626Y-110726713D01*
X180723232Y-110724763D01*
X180757716Y-110621101D01*
X180782138Y-110427786D01*
X180782525Y-110400078D01*
X180763511Y-110206160D01*
X180711491Y-110033863D01*
X180711948Y-110031916D01*
X180713863Y-110031338D01*
X180715200Y-110032400D01*
G37*
G36*
X175287815Y-109671829D02*
G01*
X175288653Y-109673057D01*
X175303727Y-109741253D01*
X175352861Y-109790061D01*
X175420586Y-109804557D01*
X175485525Y-109780090D01*
X175512254Y-109752406D01*
X175529472Y-109727818D01*
X175529696Y-109727551D01*
X175553744Y-109703503D01*
X175555676Y-109702985D01*
X175557090Y-109704399D01*
X175556729Y-109706155D01*
X175445279Y-109847528D01*
X175343201Y-110041548D01*
X175278187Y-110250924D01*
X175252419Y-110468638D01*
X175262105Y-110616420D01*
X175261220Y-110618214D01*
X175259224Y-110618345D01*
X175258246Y-110617280D01*
X175233531Y-110554095D01*
X175177436Y-110513475D01*
X175108284Y-110509632D01*
X175048537Y-110543497D01*
X175046537Y-110543481D01*
X175045551Y-110541741D01*
X175045995Y-110540501D01*
X175048099Y-110537894D01*
X175159552Y-110335997D01*
X175234250Y-110117819D01*
X175269943Y-109889891D01*
X175284705Y-109673353D01*
X175285820Y-109671693D01*
X175287815Y-109671829D01*
G37*
G36*
X80037815Y-109671829D02*
G01*
X80038653Y-109673057D01*
X80053727Y-109741253D01*
X80102861Y-109790061D01*
X80170586Y-109804557D01*
X80235525Y-109780090D01*
X80262254Y-109752406D01*
X80279472Y-109727818D01*
X80279696Y-109727551D01*
X80303744Y-109703503D01*
X80305676Y-109702985D01*
X80307090Y-109704399D01*
X80306729Y-109706155D01*
X80195279Y-109847528D01*
X80093201Y-110041548D01*
X80028187Y-110250924D01*
X80002419Y-110468638D01*
X80012105Y-110616420D01*
X80011220Y-110618214D01*
X80009224Y-110618345D01*
X80008246Y-110617280D01*
X79983531Y-110554095D01*
X79927436Y-110513475D01*
X79858284Y-110509632D01*
X79798537Y-110543497D01*
X79796537Y-110543481D01*
X79795551Y-110541741D01*
X79795995Y-110540501D01*
X79798099Y-110537894D01*
X79909552Y-110335997D01*
X79984250Y-110117819D01*
X80019943Y-109889891D01*
X80034705Y-109673353D01*
X80035820Y-109671693D01*
X80037815Y-109671829D01*
G37*
G36*
X213387815Y-109671829D02*
G01*
X213388653Y-109673057D01*
X213403727Y-109741253D01*
X213452861Y-109790061D01*
X213520586Y-109804557D01*
X213585525Y-109780090D01*
X213612254Y-109752406D01*
X213629472Y-109727818D01*
X213629696Y-109727551D01*
X213653744Y-109703503D01*
X213655676Y-109702985D01*
X213657090Y-109704399D01*
X213656729Y-109706155D01*
X213545279Y-109847528D01*
X213443201Y-110041548D01*
X213378187Y-110250924D01*
X213352419Y-110468638D01*
X213362105Y-110616420D01*
X213361220Y-110618214D01*
X213359224Y-110618345D01*
X213358246Y-110617280D01*
X213333531Y-110554095D01*
X213277436Y-110513475D01*
X213208284Y-110509632D01*
X213148537Y-110543497D01*
X213146537Y-110543481D01*
X213145551Y-110541741D01*
X213145995Y-110540501D01*
X213148099Y-110537894D01*
X213259552Y-110335997D01*
X213334250Y-110117819D01*
X213369943Y-109889891D01*
X213384705Y-109673353D01*
X213385820Y-109671693D01*
X213387815Y-109671829D01*
G37*
G36*
X194337815Y-109671829D02*
G01*
X194338653Y-109673057D01*
X194353727Y-109741253D01*
X194402861Y-109790061D01*
X194470586Y-109804557D01*
X194535525Y-109780090D01*
X194562254Y-109752406D01*
X194579472Y-109727818D01*
X194579696Y-109727551D01*
X194603744Y-109703503D01*
X194605676Y-109702985D01*
X194607090Y-109704399D01*
X194606729Y-109706155D01*
X194495279Y-109847528D01*
X194393201Y-110041548D01*
X194328187Y-110250924D01*
X194302419Y-110468638D01*
X194312105Y-110616420D01*
X194311220Y-110618214D01*
X194309224Y-110618345D01*
X194308246Y-110617280D01*
X194283531Y-110554095D01*
X194227436Y-110513475D01*
X194158284Y-110509632D01*
X194098537Y-110543497D01*
X194096537Y-110543481D01*
X194095551Y-110541741D01*
X194095995Y-110540501D01*
X194098099Y-110537894D01*
X194209552Y-110335997D01*
X194284250Y-110117819D01*
X194319943Y-109889891D01*
X194334705Y-109673353D01*
X194335820Y-109671693D01*
X194337815Y-109671829D01*
G37*
G36*
X60987815Y-109671829D02*
G01*
X60988653Y-109673057D01*
X61003727Y-109741253D01*
X61052861Y-109790061D01*
X61120586Y-109804557D01*
X61185525Y-109780090D01*
X61212254Y-109752406D01*
X61229472Y-109727818D01*
X61229696Y-109727551D01*
X61253744Y-109703503D01*
X61255676Y-109702985D01*
X61257090Y-109704399D01*
X61256729Y-109706155D01*
X61145279Y-109847528D01*
X61043201Y-110041548D01*
X60978187Y-110250924D01*
X60952419Y-110468638D01*
X60962105Y-110616420D01*
X60961220Y-110618214D01*
X60959224Y-110618345D01*
X60958246Y-110617280D01*
X60933531Y-110554095D01*
X60877436Y-110513475D01*
X60808284Y-110509632D01*
X60748537Y-110543497D01*
X60746537Y-110543481D01*
X60745551Y-110541741D01*
X60745995Y-110540501D01*
X60748099Y-110537894D01*
X60859552Y-110335997D01*
X60934250Y-110117819D01*
X60969943Y-109889891D01*
X60984705Y-109673353D01*
X60985820Y-109671693D01*
X60987815Y-109671829D01*
G37*
G36*
X156237815Y-109671829D02*
G01*
X156238653Y-109673057D01*
X156253727Y-109741253D01*
X156302861Y-109790061D01*
X156370586Y-109804557D01*
X156435525Y-109780090D01*
X156462254Y-109752406D01*
X156479472Y-109727818D01*
X156479696Y-109727551D01*
X156503744Y-109703503D01*
X156505676Y-109702985D01*
X156507090Y-109704399D01*
X156506729Y-109706155D01*
X156395279Y-109847528D01*
X156293201Y-110041548D01*
X156228187Y-110250924D01*
X156202419Y-110468638D01*
X156212105Y-110616420D01*
X156211220Y-110618214D01*
X156209224Y-110618345D01*
X156208246Y-110617280D01*
X156183531Y-110554095D01*
X156127436Y-110513475D01*
X156058284Y-110509632D01*
X155998537Y-110543497D01*
X155996537Y-110543481D01*
X155995551Y-110541741D01*
X155995995Y-110540501D01*
X155998099Y-110537894D01*
X156109552Y-110335997D01*
X156184250Y-110117819D01*
X156219943Y-109889891D01*
X156234705Y-109673353D01*
X156235820Y-109671693D01*
X156237815Y-109671829D01*
G37*
G36*
X118137815Y-109671829D02*
G01*
X118138653Y-109673057D01*
X118153727Y-109741253D01*
X118202861Y-109790061D01*
X118270586Y-109804557D01*
X118335525Y-109780090D01*
X118362254Y-109752406D01*
X118379472Y-109727818D01*
X118379696Y-109727551D01*
X118403744Y-109703503D01*
X118405676Y-109702985D01*
X118407090Y-109704399D01*
X118406729Y-109706155D01*
X118295279Y-109847528D01*
X118193201Y-110041548D01*
X118128187Y-110250924D01*
X118102419Y-110468638D01*
X118112105Y-110616420D01*
X118111220Y-110618214D01*
X118109224Y-110618345D01*
X118108246Y-110617280D01*
X118083531Y-110554095D01*
X118027436Y-110513475D01*
X117958284Y-110509632D01*
X117898537Y-110543497D01*
X117896537Y-110543481D01*
X117895551Y-110541741D01*
X117895995Y-110540501D01*
X117898099Y-110537894D01*
X118009552Y-110335997D01*
X118084250Y-110117819D01*
X118119943Y-109889891D01*
X118134705Y-109673353D01*
X118135820Y-109671693D01*
X118137815Y-109671829D01*
G37*
G36*
X137187815Y-109671829D02*
G01*
X137188653Y-109673057D01*
X137203727Y-109741253D01*
X137252861Y-109790061D01*
X137320586Y-109804557D01*
X137385525Y-109780090D01*
X137412254Y-109752406D01*
X137429472Y-109727818D01*
X137429696Y-109727551D01*
X137453744Y-109703503D01*
X137455676Y-109702985D01*
X137457090Y-109704399D01*
X137456729Y-109706155D01*
X137345279Y-109847528D01*
X137243201Y-110041548D01*
X137178187Y-110250924D01*
X137152419Y-110468638D01*
X137162105Y-110616420D01*
X137161220Y-110618214D01*
X137159224Y-110618345D01*
X137158246Y-110617280D01*
X137133531Y-110554095D01*
X137077436Y-110513475D01*
X137008284Y-110509632D01*
X136948537Y-110543497D01*
X136946537Y-110543481D01*
X136945551Y-110541741D01*
X136945995Y-110540501D01*
X136948099Y-110537894D01*
X137059552Y-110335997D01*
X137134250Y-110117819D01*
X137169943Y-109889891D01*
X137184705Y-109673353D01*
X137185820Y-109671693D01*
X137187815Y-109671829D01*
G37*
G36*
X99087815Y-109671829D02*
G01*
X99088653Y-109673057D01*
X99103727Y-109741253D01*
X99152861Y-109790061D01*
X99220586Y-109804557D01*
X99285525Y-109780090D01*
X99312254Y-109752406D01*
X99329472Y-109727818D01*
X99329696Y-109727551D01*
X99353744Y-109703503D01*
X99355676Y-109702985D01*
X99357090Y-109704399D01*
X99356729Y-109706155D01*
X99245279Y-109847528D01*
X99143201Y-110041548D01*
X99078187Y-110250924D01*
X99052419Y-110468638D01*
X99062105Y-110616420D01*
X99061220Y-110618214D01*
X99059224Y-110618345D01*
X99058246Y-110617280D01*
X99033531Y-110554095D01*
X98977436Y-110513475D01*
X98908284Y-110509632D01*
X98848537Y-110543497D01*
X98846537Y-110543481D01*
X98845551Y-110541741D01*
X98845995Y-110540501D01*
X98848099Y-110537894D01*
X98959552Y-110335997D01*
X99034250Y-110117819D01*
X99069943Y-109889891D01*
X99084705Y-109673353D01*
X99085820Y-109671693D01*
X99087815Y-109671829D01*
G37*
G36*
X134550185Y-108431109D02*
G01*
X134551101Y-108432420D01*
X134563130Y-108492271D01*
X134611320Y-108542014D01*
X134678752Y-108557807D01*
X134744087Y-108534612D01*
X134779822Y-108494143D01*
X134783241Y-108487923D01*
X134783422Y-108487649D01*
X134784775Y-108485929D01*
X134786632Y-108485186D01*
X134788204Y-108486423D01*
X134788098Y-108488133D01*
X134767918Y-108524689D01*
X134767805Y-108524869D01*
X134744256Y-108558501D01*
X134717101Y-108616735D01*
X134717039Y-108616857D01*
X134679990Y-108683972D01*
X134664118Y-108730331D01*
X134664039Y-108730528D01*
X134646794Y-108767510D01*
X134630268Y-108829187D01*
X134630228Y-108829317D01*
X134605292Y-108902149D01*
X134597678Y-108950769D01*
X134597634Y-108950978D01*
X134587106Y-108990268D01*
X134581560Y-109053661D01*
X134581544Y-109053796D01*
X134569599Y-109130077D01*
X134568162Y-109151146D01*
X134567047Y-109152806D01*
X134565051Y-109152670D01*
X134564214Y-109151442D01*
X134549140Y-109083244D01*
X134500006Y-109034436D01*
X134432281Y-109019940D01*
X134367342Y-109044407D01*
X134352064Y-109060231D01*
X134350141Y-109060783D01*
X134348703Y-109059393D01*
X134348880Y-109057865D01*
X134444420Y-108887268D01*
X134514892Y-108679663D01*
X134546359Y-108462633D01*
X134547141Y-108432762D01*
X134548186Y-108431056D01*
X134550185Y-108431109D01*
G37*
G36*
X115500185Y-108431109D02*
G01*
X115501101Y-108432420D01*
X115513130Y-108492271D01*
X115561320Y-108542014D01*
X115628752Y-108557807D01*
X115694087Y-108534612D01*
X115729822Y-108494143D01*
X115733241Y-108487923D01*
X115733422Y-108487649D01*
X115734775Y-108485929D01*
X115736632Y-108485186D01*
X115738204Y-108486423D01*
X115738098Y-108488133D01*
X115717918Y-108524689D01*
X115717805Y-108524869D01*
X115694256Y-108558501D01*
X115667101Y-108616735D01*
X115667039Y-108616857D01*
X115629990Y-108683972D01*
X115614118Y-108730331D01*
X115614039Y-108730528D01*
X115596794Y-108767510D01*
X115580268Y-108829187D01*
X115580228Y-108829317D01*
X115555292Y-108902149D01*
X115547678Y-108950769D01*
X115547634Y-108950978D01*
X115537106Y-108990268D01*
X115531560Y-109053661D01*
X115531544Y-109053796D01*
X115519599Y-109130077D01*
X115518162Y-109151146D01*
X115517047Y-109152806D01*
X115515051Y-109152670D01*
X115514214Y-109151442D01*
X115499140Y-109083244D01*
X115450006Y-109034436D01*
X115382281Y-109019940D01*
X115317342Y-109044407D01*
X115302064Y-109060231D01*
X115300141Y-109060783D01*
X115298703Y-109059393D01*
X115298880Y-109057865D01*
X115394420Y-108887268D01*
X115464892Y-108679663D01*
X115496359Y-108462633D01*
X115497141Y-108432762D01*
X115498186Y-108431056D01*
X115500185Y-108431109D01*
G37*
G36*
X172650185Y-108431109D02*
G01*
X172651101Y-108432420D01*
X172663130Y-108492271D01*
X172711320Y-108542014D01*
X172778752Y-108557807D01*
X172844087Y-108534612D01*
X172879822Y-108494143D01*
X172883241Y-108487923D01*
X172883422Y-108487649D01*
X172884775Y-108485929D01*
X172886632Y-108485186D01*
X172888204Y-108486423D01*
X172888098Y-108488133D01*
X172867918Y-108524689D01*
X172867805Y-108524869D01*
X172844256Y-108558501D01*
X172817101Y-108616735D01*
X172817039Y-108616857D01*
X172779990Y-108683972D01*
X172764118Y-108730331D01*
X172764039Y-108730528D01*
X172746794Y-108767510D01*
X172730268Y-108829187D01*
X172730228Y-108829317D01*
X172705292Y-108902149D01*
X172697678Y-108950769D01*
X172697634Y-108950978D01*
X172687106Y-108990268D01*
X172681560Y-109053661D01*
X172681544Y-109053796D01*
X172669599Y-109130077D01*
X172668162Y-109151146D01*
X172667047Y-109152806D01*
X172665051Y-109152670D01*
X172664214Y-109151442D01*
X172649140Y-109083244D01*
X172600006Y-109034436D01*
X172532281Y-109019940D01*
X172467342Y-109044407D01*
X172452064Y-109060231D01*
X172450141Y-109060783D01*
X172448703Y-109059393D01*
X172448880Y-109057865D01*
X172544420Y-108887268D01*
X172614892Y-108679663D01*
X172646359Y-108462633D01*
X172647141Y-108432762D01*
X172648186Y-108431056D01*
X172650185Y-108431109D01*
G37*
G36*
X96450185Y-108431109D02*
G01*
X96451101Y-108432420D01*
X96463130Y-108492271D01*
X96511320Y-108542014D01*
X96578752Y-108557807D01*
X96644087Y-108534612D01*
X96679822Y-108494143D01*
X96683241Y-108487923D01*
X96683422Y-108487649D01*
X96684775Y-108485929D01*
X96686632Y-108485186D01*
X96688204Y-108486423D01*
X96688098Y-108488133D01*
X96667918Y-108524689D01*
X96667805Y-108524869D01*
X96644256Y-108558501D01*
X96617101Y-108616735D01*
X96617039Y-108616857D01*
X96579990Y-108683972D01*
X96564118Y-108730331D01*
X96564039Y-108730528D01*
X96546794Y-108767510D01*
X96530268Y-108829187D01*
X96530228Y-108829317D01*
X96505292Y-108902149D01*
X96497678Y-108950769D01*
X96497634Y-108950978D01*
X96487106Y-108990268D01*
X96481560Y-109053661D01*
X96481544Y-109053796D01*
X96469599Y-109130077D01*
X96468162Y-109151146D01*
X96467047Y-109152806D01*
X96465051Y-109152670D01*
X96464214Y-109151442D01*
X96449140Y-109083244D01*
X96400006Y-109034436D01*
X96332281Y-109019940D01*
X96267342Y-109044407D01*
X96252064Y-109060231D01*
X96250141Y-109060783D01*
X96248703Y-109059393D01*
X96248880Y-109057865D01*
X96344420Y-108887268D01*
X96414892Y-108679663D01*
X96446359Y-108462633D01*
X96447141Y-108432762D01*
X96448186Y-108431056D01*
X96450185Y-108431109D01*
G37*
G36*
X77400185Y-108431109D02*
G01*
X77401101Y-108432420D01*
X77413130Y-108492271D01*
X77461320Y-108542014D01*
X77528752Y-108557807D01*
X77594087Y-108534612D01*
X77629822Y-108494143D01*
X77633241Y-108487923D01*
X77633422Y-108487649D01*
X77634775Y-108485929D01*
X77636632Y-108485186D01*
X77638204Y-108486423D01*
X77638098Y-108488133D01*
X77617918Y-108524689D01*
X77617805Y-108524869D01*
X77594256Y-108558501D01*
X77567101Y-108616735D01*
X77567039Y-108616857D01*
X77529990Y-108683972D01*
X77514118Y-108730331D01*
X77514039Y-108730528D01*
X77496794Y-108767510D01*
X77480268Y-108829187D01*
X77480228Y-108829317D01*
X77455292Y-108902149D01*
X77447678Y-108950769D01*
X77447634Y-108950978D01*
X77437106Y-108990268D01*
X77431560Y-109053661D01*
X77431544Y-109053796D01*
X77419599Y-109130077D01*
X77418162Y-109151146D01*
X77417047Y-109152806D01*
X77415051Y-109152670D01*
X77414214Y-109151442D01*
X77399140Y-109083244D01*
X77350006Y-109034436D01*
X77282281Y-109019940D01*
X77217342Y-109044407D01*
X77202064Y-109060231D01*
X77200141Y-109060783D01*
X77198703Y-109059393D01*
X77198880Y-109057865D01*
X77294420Y-108887268D01*
X77364892Y-108679663D01*
X77396359Y-108462633D01*
X77397141Y-108432762D01*
X77398186Y-108431056D01*
X77400185Y-108431109D01*
G37*
G36*
X153600185Y-108431109D02*
G01*
X153601101Y-108432420D01*
X153613130Y-108492271D01*
X153661320Y-108542014D01*
X153728752Y-108557807D01*
X153794087Y-108534612D01*
X153829822Y-108494143D01*
X153833241Y-108487923D01*
X153833422Y-108487649D01*
X153834775Y-108485929D01*
X153836632Y-108485186D01*
X153838204Y-108486423D01*
X153838098Y-108488133D01*
X153817918Y-108524689D01*
X153817805Y-108524869D01*
X153794256Y-108558501D01*
X153767101Y-108616735D01*
X153767039Y-108616857D01*
X153729990Y-108683972D01*
X153714118Y-108730331D01*
X153714039Y-108730528D01*
X153696794Y-108767510D01*
X153680268Y-108829187D01*
X153680228Y-108829317D01*
X153655292Y-108902149D01*
X153647678Y-108950769D01*
X153647634Y-108950978D01*
X153637106Y-108990268D01*
X153631560Y-109053661D01*
X153631544Y-109053796D01*
X153619599Y-109130077D01*
X153618162Y-109151146D01*
X153617047Y-109152806D01*
X153615051Y-109152670D01*
X153614214Y-109151442D01*
X153599140Y-109083244D01*
X153550006Y-109034436D01*
X153482281Y-109019940D01*
X153417342Y-109044407D01*
X153402064Y-109060231D01*
X153400141Y-109060783D01*
X153398703Y-109059393D01*
X153398880Y-109057865D01*
X153494420Y-108887268D01*
X153564892Y-108679663D01*
X153596359Y-108462633D01*
X153597141Y-108432762D01*
X153598186Y-108431056D01*
X153600185Y-108431109D01*
G37*
G36*
X210750185Y-108431109D02*
G01*
X210751101Y-108432420D01*
X210763130Y-108492271D01*
X210811320Y-108542014D01*
X210878752Y-108557807D01*
X210944087Y-108534612D01*
X210979822Y-108494143D01*
X210983241Y-108487923D01*
X210983422Y-108487649D01*
X210984775Y-108485929D01*
X210986632Y-108485186D01*
X210988204Y-108486423D01*
X210988098Y-108488133D01*
X210967918Y-108524689D01*
X210967805Y-108524869D01*
X210944256Y-108558501D01*
X210917101Y-108616735D01*
X210917039Y-108616857D01*
X210879990Y-108683972D01*
X210864118Y-108730331D01*
X210864039Y-108730528D01*
X210846794Y-108767510D01*
X210830268Y-108829187D01*
X210830228Y-108829317D01*
X210805292Y-108902149D01*
X210797678Y-108950769D01*
X210797634Y-108950978D01*
X210787106Y-108990268D01*
X210781560Y-109053661D01*
X210781544Y-109053796D01*
X210769599Y-109130077D01*
X210768162Y-109151146D01*
X210767047Y-109152806D01*
X210765051Y-109152670D01*
X210764214Y-109151442D01*
X210749140Y-109083244D01*
X210700006Y-109034436D01*
X210632281Y-109019940D01*
X210567342Y-109044407D01*
X210552064Y-109060231D01*
X210550141Y-109060783D01*
X210548703Y-109059393D01*
X210548880Y-109057865D01*
X210644420Y-108887268D01*
X210714892Y-108679663D01*
X210746359Y-108462633D01*
X210747141Y-108432762D01*
X210748186Y-108431056D01*
X210750185Y-108431109D01*
G37*
G36*
X191700185Y-108431109D02*
G01*
X191701101Y-108432420D01*
X191713130Y-108492271D01*
X191761320Y-108542014D01*
X191828752Y-108557807D01*
X191894087Y-108534612D01*
X191929822Y-108494143D01*
X191933241Y-108487923D01*
X191933422Y-108487649D01*
X191934775Y-108485929D01*
X191936632Y-108485186D01*
X191938204Y-108486423D01*
X191938098Y-108488133D01*
X191917918Y-108524689D01*
X191917805Y-108524869D01*
X191894256Y-108558501D01*
X191867101Y-108616735D01*
X191867039Y-108616857D01*
X191829990Y-108683972D01*
X191814118Y-108730331D01*
X191814039Y-108730528D01*
X191796794Y-108767510D01*
X191780268Y-108829187D01*
X191780228Y-108829317D01*
X191755292Y-108902149D01*
X191747678Y-108950769D01*
X191747634Y-108950978D01*
X191737106Y-108990268D01*
X191731560Y-109053661D01*
X191731544Y-109053796D01*
X191719599Y-109130077D01*
X191718162Y-109151146D01*
X191717047Y-109152806D01*
X191715051Y-109152670D01*
X191714214Y-109151442D01*
X191699140Y-109083244D01*
X191650006Y-109034436D01*
X191582281Y-109019940D01*
X191517342Y-109044407D01*
X191502064Y-109060231D01*
X191500141Y-109060783D01*
X191498703Y-109059393D01*
X191498880Y-109057865D01*
X191594420Y-108887268D01*
X191664892Y-108679663D01*
X191696359Y-108462633D01*
X191697141Y-108432762D01*
X191698186Y-108431056D01*
X191700185Y-108431109D01*
G37*
G36*
X58350185Y-108431109D02*
G01*
X58351101Y-108432420D01*
X58363130Y-108492271D01*
X58411320Y-108542014D01*
X58478752Y-108557807D01*
X58544087Y-108534612D01*
X58579822Y-108494143D01*
X58583241Y-108487923D01*
X58583422Y-108487649D01*
X58584775Y-108485929D01*
X58586632Y-108485186D01*
X58588204Y-108486423D01*
X58588098Y-108488133D01*
X58567918Y-108524689D01*
X58567805Y-108524869D01*
X58544256Y-108558501D01*
X58517101Y-108616735D01*
X58517039Y-108616857D01*
X58479990Y-108683972D01*
X58464118Y-108730331D01*
X58464039Y-108730528D01*
X58446794Y-108767510D01*
X58430268Y-108829187D01*
X58430228Y-108829317D01*
X58405292Y-108902149D01*
X58397678Y-108950769D01*
X58397634Y-108950978D01*
X58387106Y-108990268D01*
X58381560Y-109053661D01*
X58381544Y-109053796D01*
X58369599Y-109130077D01*
X58368162Y-109151146D01*
X58367047Y-109152806D01*
X58365051Y-109152670D01*
X58364214Y-109151442D01*
X58349140Y-109083244D01*
X58300006Y-109034436D01*
X58232281Y-109019940D01*
X58167342Y-109044407D01*
X58152064Y-109060231D01*
X58150141Y-109060783D01*
X58148703Y-109059393D01*
X58148880Y-109057865D01*
X58244420Y-108887268D01*
X58314892Y-108679663D01*
X58346359Y-108462633D01*
X58347141Y-108432762D01*
X58348186Y-108431056D01*
X58350185Y-108431109D01*
G37*
G36*
X200021542Y-98156689D02*
G01*
X200022481Y-98158384D01*
X200022481Y-100141776D01*
X200021481Y-100143508D01*
X200019481Y-100143508D01*
X200018562Y-100142339D01*
X199998885Y-100075324D01*
X199946542Y-100029969D01*
X199877989Y-100020112D01*
X199814752Y-100048992D01*
X199808471Y-100054839D01*
X199791437Y-100071873D01*
X199789505Y-100072391D01*
X199788091Y-100070977D01*
X199788360Y-100069348D01*
X199817433Y-100025838D01*
X199832542Y-99949881D01*
X199832542Y-98350279D01*
X199817433Y-98274322D01*
X199788360Y-98230812D01*
X199788229Y-98228816D01*
X199789892Y-98227705D01*
X199791437Y-98228287D01*
X199808305Y-98245155D01*
X199869354Y-98278489D01*
X199938436Y-98273549D01*
X199993880Y-98232044D01*
X200018176Y-98166906D01*
X200018482Y-98158313D01*
X200019543Y-98156617D01*
X200021542Y-98156689D01*
G37*
G36*
X180971526Y-98156609D02*
G01*
X180972465Y-98158304D01*
X180972465Y-100141696D01*
X180971465Y-100143428D01*
X180969465Y-100143428D01*
X180968546Y-100142259D01*
X180948869Y-100075244D01*
X180896526Y-100029889D01*
X180827973Y-100020032D01*
X180764736Y-100048912D01*
X180758455Y-100054759D01*
X180741421Y-100071793D01*
X180739489Y-100072311D01*
X180738075Y-100070897D01*
X180738344Y-100069268D01*
X180767417Y-100025758D01*
X180782526Y-99949801D01*
X180782526Y-98350199D01*
X180767417Y-98274242D01*
X180738344Y-98230732D01*
X180738213Y-98228736D01*
X180739876Y-98227625D01*
X180741421Y-98228207D01*
X180758289Y-98245075D01*
X180819338Y-98278409D01*
X180888420Y-98273469D01*
X180943864Y-98231964D01*
X180968160Y-98166826D01*
X180968466Y-98158233D01*
X180969527Y-98156537D01*
X180971526Y-98156609D01*
G37*
G36*
X199765216Y-90982480D02*
G01*
X199769425Y-90991015D01*
X199769556Y-90991357D01*
X199777023Y-91017835D01*
X199814000Y-91076750D01*
X199876686Y-91106193D01*
X199945344Y-91097071D01*
X199998162Y-91052285D01*
X200018565Y-90984150D01*
X200020020Y-90982778D01*
X200021936Y-90983352D01*
X200022481Y-90984724D01*
X200022481Y-91709848D01*
X200021481Y-91711580D01*
X200019481Y-91711580D01*
X200018562Y-91710411D01*
X199998885Y-91643396D01*
X199946542Y-91598041D01*
X199877989Y-91588184D01*
X199814970Y-91616964D01*
X199778925Y-91670564D01*
X199777040Y-91676117D01*
X199775536Y-91677436D01*
X199773642Y-91676793D01*
X199773248Y-91674843D01*
X199807732Y-91571181D01*
X199832154Y-91377866D01*
X199832541Y-91350158D01*
X199813527Y-91156240D01*
X199761507Y-90983943D01*
X199761964Y-90981996D01*
X199763879Y-90981418D01*
X199765216Y-90982480D01*
G37*
G36*
X180715200Y-90982400D02*
G01*
X180719409Y-90990935D01*
X180719540Y-90991277D01*
X180727007Y-91017755D01*
X180763984Y-91076670D01*
X180826670Y-91106113D01*
X180895328Y-91096991D01*
X180948146Y-91052205D01*
X180968549Y-90984070D01*
X180970004Y-90982698D01*
X180971920Y-90983272D01*
X180972465Y-90984644D01*
X180972465Y-91709768D01*
X180971465Y-91711500D01*
X180969465Y-91711500D01*
X180968546Y-91710331D01*
X180948869Y-91643316D01*
X180896526Y-91597961D01*
X180827973Y-91588104D01*
X180764954Y-91616884D01*
X180728909Y-91670484D01*
X180727024Y-91676037D01*
X180725520Y-91677356D01*
X180723626Y-91676713D01*
X180723232Y-91674763D01*
X180757716Y-91571101D01*
X180782138Y-91377786D01*
X180782525Y-91350078D01*
X180763511Y-91156160D01*
X180711491Y-90983863D01*
X180711948Y-90981916D01*
X180713863Y-90981338D01*
X180715200Y-90982400D01*
G37*
G36*
X194337815Y-90621829D02*
G01*
X194338653Y-90623057D01*
X194353727Y-90691253D01*
X194402861Y-90740061D01*
X194470586Y-90754557D01*
X194535525Y-90730090D01*
X194562254Y-90702406D01*
X194579472Y-90677818D01*
X194579696Y-90677551D01*
X194603744Y-90653503D01*
X194605676Y-90652985D01*
X194607090Y-90654399D01*
X194606729Y-90656155D01*
X194495279Y-90797528D01*
X194393201Y-90991548D01*
X194328187Y-91200924D01*
X194302419Y-91418638D01*
X194312105Y-91566420D01*
X194311220Y-91568214D01*
X194309224Y-91568345D01*
X194308246Y-91567280D01*
X194283531Y-91504095D01*
X194227436Y-91463475D01*
X194158284Y-91459632D01*
X194098537Y-91493497D01*
X194096537Y-91493481D01*
X194095551Y-91491741D01*
X194095995Y-91490501D01*
X194098099Y-91487894D01*
X194209552Y-91285997D01*
X194284250Y-91067819D01*
X194319943Y-90839891D01*
X194334705Y-90623353D01*
X194335820Y-90621693D01*
X194337815Y-90621829D01*
G37*
G36*
X175287815Y-90621829D02*
G01*
X175288653Y-90623057D01*
X175303727Y-90691253D01*
X175352861Y-90740061D01*
X175420586Y-90754557D01*
X175485525Y-90730090D01*
X175512254Y-90702406D01*
X175529472Y-90677818D01*
X175529696Y-90677551D01*
X175553744Y-90653503D01*
X175555676Y-90652985D01*
X175557090Y-90654399D01*
X175556729Y-90656155D01*
X175445279Y-90797528D01*
X175343201Y-90991548D01*
X175278187Y-91200924D01*
X175252419Y-91418638D01*
X175262105Y-91566420D01*
X175261220Y-91568214D01*
X175259224Y-91568345D01*
X175258246Y-91567280D01*
X175233531Y-91504095D01*
X175177436Y-91463475D01*
X175108284Y-91459632D01*
X175048537Y-91493497D01*
X175046537Y-91493481D01*
X175045551Y-91491741D01*
X175045995Y-91490501D01*
X175048099Y-91487894D01*
X175159552Y-91285997D01*
X175234250Y-91067819D01*
X175269943Y-90839891D01*
X175284705Y-90623353D01*
X175285820Y-90621693D01*
X175287815Y-90621829D01*
G37*
G36*
X137187815Y-90621829D02*
G01*
X137188653Y-90623057D01*
X137203727Y-90691253D01*
X137252861Y-90740061D01*
X137320586Y-90754557D01*
X137385525Y-90730090D01*
X137412254Y-90702406D01*
X137429472Y-90677818D01*
X137429696Y-90677551D01*
X137453744Y-90653503D01*
X137455676Y-90652985D01*
X137457090Y-90654399D01*
X137456729Y-90656155D01*
X137345279Y-90797528D01*
X137243201Y-90991548D01*
X137178187Y-91200924D01*
X137152419Y-91418638D01*
X137162105Y-91566420D01*
X137161220Y-91568214D01*
X137159224Y-91568345D01*
X137158246Y-91567280D01*
X137133531Y-91504095D01*
X137077436Y-91463475D01*
X137008284Y-91459632D01*
X136948537Y-91493497D01*
X136946537Y-91493481D01*
X136945551Y-91491741D01*
X136945995Y-91490501D01*
X136948099Y-91487894D01*
X137059552Y-91285997D01*
X137134250Y-91067819D01*
X137169943Y-90839891D01*
X137184705Y-90623353D01*
X137185820Y-90621693D01*
X137187815Y-90621829D01*
G37*
G36*
X156237815Y-90621829D02*
G01*
X156238653Y-90623057D01*
X156253727Y-90691253D01*
X156302861Y-90740061D01*
X156370586Y-90754557D01*
X156435525Y-90730090D01*
X156462254Y-90702406D01*
X156479472Y-90677818D01*
X156479696Y-90677551D01*
X156503744Y-90653503D01*
X156505676Y-90652985D01*
X156507090Y-90654399D01*
X156506729Y-90656155D01*
X156395279Y-90797528D01*
X156293201Y-90991548D01*
X156228187Y-91200924D01*
X156202419Y-91418638D01*
X156212105Y-91566420D01*
X156211220Y-91568214D01*
X156209224Y-91568345D01*
X156208246Y-91567280D01*
X156183531Y-91504095D01*
X156127436Y-91463475D01*
X156058284Y-91459632D01*
X155998537Y-91493497D01*
X155996537Y-91493481D01*
X155995551Y-91491741D01*
X155995995Y-91490501D01*
X155998099Y-91487894D01*
X156109552Y-91285997D01*
X156184250Y-91067819D01*
X156219943Y-90839891D01*
X156234705Y-90623353D01*
X156235820Y-90621693D01*
X156237815Y-90621829D01*
G37*
G36*
X80037815Y-90621829D02*
G01*
X80038653Y-90623057D01*
X80053727Y-90691253D01*
X80102861Y-90740061D01*
X80170586Y-90754557D01*
X80235525Y-90730090D01*
X80262254Y-90702406D01*
X80279472Y-90677818D01*
X80279696Y-90677551D01*
X80303744Y-90653503D01*
X80305676Y-90652985D01*
X80307090Y-90654399D01*
X80306729Y-90656155D01*
X80195279Y-90797528D01*
X80093201Y-90991548D01*
X80028187Y-91200924D01*
X80002419Y-91418638D01*
X80012105Y-91566420D01*
X80011220Y-91568214D01*
X80009224Y-91568345D01*
X80008246Y-91567280D01*
X79983531Y-91504095D01*
X79927436Y-91463475D01*
X79858284Y-91459632D01*
X79798537Y-91493497D01*
X79796537Y-91493481D01*
X79795551Y-91491741D01*
X79795995Y-91490501D01*
X79798099Y-91487894D01*
X79909552Y-91285997D01*
X79984250Y-91067819D01*
X80019943Y-90839891D01*
X80034705Y-90623353D01*
X80035820Y-90621693D01*
X80037815Y-90621829D01*
G37*
G36*
X99087815Y-90621829D02*
G01*
X99088653Y-90623057D01*
X99103727Y-90691253D01*
X99152861Y-90740061D01*
X99220586Y-90754557D01*
X99285525Y-90730090D01*
X99312254Y-90702406D01*
X99329472Y-90677818D01*
X99329696Y-90677551D01*
X99353744Y-90653503D01*
X99355676Y-90652985D01*
X99357090Y-90654399D01*
X99356729Y-90656155D01*
X99245279Y-90797528D01*
X99143201Y-90991548D01*
X99078187Y-91200924D01*
X99052419Y-91418638D01*
X99062105Y-91566420D01*
X99061220Y-91568214D01*
X99059224Y-91568345D01*
X99058246Y-91567280D01*
X99033531Y-91504095D01*
X98977436Y-91463475D01*
X98908284Y-91459632D01*
X98848537Y-91493497D01*
X98846537Y-91493481D01*
X98845551Y-91491741D01*
X98845995Y-91490501D01*
X98848099Y-91487894D01*
X98959552Y-91285997D01*
X99034250Y-91067819D01*
X99069943Y-90839891D01*
X99084705Y-90623353D01*
X99085820Y-90621693D01*
X99087815Y-90621829D01*
G37*
G36*
X213387815Y-90621829D02*
G01*
X213388653Y-90623057D01*
X213403727Y-90691253D01*
X213452861Y-90740061D01*
X213520586Y-90754557D01*
X213585525Y-90730090D01*
X213612254Y-90702406D01*
X213629472Y-90677818D01*
X213629696Y-90677551D01*
X213653744Y-90653503D01*
X213655676Y-90652985D01*
X213657090Y-90654399D01*
X213656729Y-90656155D01*
X213545279Y-90797528D01*
X213443201Y-90991548D01*
X213378187Y-91200924D01*
X213352419Y-91418638D01*
X213362105Y-91566420D01*
X213361220Y-91568214D01*
X213359224Y-91568345D01*
X213358246Y-91567280D01*
X213333531Y-91504095D01*
X213277436Y-91463475D01*
X213208284Y-91459632D01*
X213148537Y-91493497D01*
X213146537Y-91493481D01*
X213145551Y-91491741D01*
X213145995Y-91490501D01*
X213148099Y-91487894D01*
X213259552Y-91285997D01*
X213334250Y-91067819D01*
X213369943Y-90839891D01*
X213384705Y-90623353D01*
X213385820Y-90621693D01*
X213387815Y-90621829D01*
G37*
G36*
X60987815Y-90621829D02*
G01*
X60988653Y-90623057D01*
X61003727Y-90691253D01*
X61052861Y-90740061D01*
X61120586Y-90754557D01*
X61185525Y-90730090D01*
X61212254Y-90702406D01*
X61229472Y-90677818D01*
X61229696Y-90677551D01*
X61253744Y-90653503D01*
X61255676Y-90652985D01*
X61257090Y-90654399D01*
X61256729Y-90656155D01*
X61145279Y-90797528D01*
X61043201Y-90991548D01*
X60978187Y-91200924D01*
X60952419Y-91418638D01*
X60962105Y-91566420D01*
X60961220Y-91568214D01*
X60959224Y-91568345D01*
X60958246Y-91567280D01*
X60933531Y-91504095D01*
X60877436Y-91463475D01*
X60808284Y-91459632D01*
X60748537Y-91493497D01*
X60746537Y-91493481D01*
X60745551Y-91491741D01*
X60745995Y-91490501D01*
X60748099Y-91487894D01*
X60859552Y-91285997D01*
X60934250Y-91067819D01*
X60969943Y-90839891D01*
X60984705Y-90623353D01*
X60985820Y-90621693D01*
X60987815Y-90621829D01*
G37*
G36*
X118137815Y-90621829D02*
G01*
X118138653Y-90623057D01*
X118153727Y-90691253D01*
X118202861Y-90740061D01*
X118270586Y-90754557D01*
X118335525Y-90730090D01*
X118362254Y-90702406D01*
X118379472Y-90677818D01*
X118379696Y-90677551D01*
X118403744Y-90653503D01*
X118405676Y-90652985D01*
X118407090Y-90654399D01*
X118406729Y-90656155D01*
X118295279Y-90797528D01*
X118193201Y-90991548D01*
X118128187Y-91200924D01*
X118102419Y-91418638D01*
X118112105Y-91566420D01*
X118111220Y-91568214D01*
X118109224Y-91568345D01*
X118108246Y-91567280D01*
X118083531Y-91504095D01*
X118027436Y-91463475D01*
X117958284Y-91459632D01*
X117898537Y-91493497D01*
X117896537Y-91493481D01*
X117895551Y-91491741D01*
X117895995Y-91490501D01*
X117898099Y-91487894D01*
X118009552Y-91285997D01*
X118084250Y-91067819D01*
X118119943Y-90839891D01*
X118134705Y-90623353D01*
X118135820Y-90621693D01*
X118137815Y-90621829D01*
G37*
G36*
X115500185Y-89381109D02*
G01*
X115501101Y-89382420D01*
X115513130Y-89442271D01*
X115561320Y-89492014D01*
X115628752Y-89507807D01*
X115694087Y-89484612D01*
X115729822Y-89444143D01*
X115733241Y-89437923D01*
X115733422Y-89437649D01*
X115734775Y-89435929D01*
X115736632Y-89435186D01*
X115738204Y-89436423D01*
X115738098Y-89438133D01*
X115717918Y-89474689D01*
X115717805Y-89474869D01*
X115694256Y-89508501D01*
X115667101Y-89566735D01*
X115667039Y-89566857D01*
X115629990Y-89633972D01*
X115614118Y-89680331D01*
X115614039Y-89680528D01*
X115596794Y-89717510D01*
X115580268Y-89779187D01*
X115580228Y-89779317D01*
X115555292Y-89852149D01*
X115547678Y-89900769D01*
X115547634Y-89900978D01*
X115537106Y-89940268D01*
X115531560Y-90003661D01*
X115531544Y-90003796D01*
X115519599Y-90080077D01*
X115518162Y-90101146D01*
X115517047Y-90102806D01*
X115515051Y-90102670D01*
X115514214Y-90101442D01*
X115499140Y-90033244D01*
X115450006Y-89984436D01*
X115382281Y-89969940D01*
X115317342Y-89994407D01*
X115302064Y-90010231D01*
X115300141Y-90010783D01*
X115298703Y-90009393D01*
X115298880Y-90007865D01*
X115394420Y-89837268D01*
X115464892Y-89629663D01*
X115496359Y-89412633D01*
X115497141Y-89382762D01*
X115498186Y-89381056D01*
X115500185Y-89381109D01*
G37*
G36*
X96450185Y-89381109D02*
G01*
X96451101Y-89382420D01*
X96463130Y-89442271D01*
X96511320Y-89492014D01*
X96578752Y-89507807D01*
X96644087Y-89484612D01*
X96679822Y-89444143D01*
X96683241Y-89437923D01*
X96683422Y-89437649D01*
X96684775Y-89435929D01*
X96686632Y-89435186D01*
X96688204Y-89436423D01*
X96688098Y-89438133D01*
X96667918Y-89474689D01*
X96667805Y-89474869D01*
X96644256Y-89508501D01*
X96617101Y-89566735D01*
X96617039Y-89566857D01*
X96579990Y-89633972D01*
X96564118Y-89680331D01*
X96564039Y-89680528D01*
X96546794Y-89717510D01*
X96530268Y-89779187D01*
X96530228Y-89779317D01*
X96505292Y-89852149D01*
X96497678Y-89900769D01*
X96497634Y-89900978D01*
X96487106Y-89940268D01*
X96481560Y-90003661D01*
X96481544Y-90003796D01*
X96469599Y-90080077D01*
X96468162Y-90101146D01*
X96467047Y-90102806D01*
X96465051Y-90102670D01*
X96464214Y-90101442D01*
X96449140Y-90033244D01*
X96400006Y-89984436D01*
X96332281Y-89969940D01*
X96267342Y-89994407D01*
X96252064Y-90010231D01*
X96250141Y-90010783D01*
X96248703Y-90009393D01*
X96248880Y-90007865D01*
X96344420Y-89837268D01*
X96414892Y-89629663D01*
X96446359Y-89412633D01*
X96447141Y-89382762D01*
X96448186Y-89381056D01*
X96450185Y-89381109D01*
G37*
G36*
X153600185Y-89381109D02*
G01*
X153601101Y-89382420D01*
X153613130Y-89442271D01*
X153661320Y-89492014D01*
X153728752Y-89507807D01*
X153794087Y-89484612D01*
X153829822Y-89444143D01*
X153833241Y-89437923D01*
X153833422Y-89437649D01*
X153834775Y-89435929D01*
X153836632Y-89435186D01*
X153838204Y-89436423D01*
X153838098Y-89438133D01*
X153817918Y-89474689D01*
X153817805Y-89474869D01*
X153794256Y-89508501D01*
X153767101Y-89566735D01*
X153767039Y-89566857D01*
X153729990Y-89633972D01*
X153714118Y-89680331D01*
X153714039Y-89680528D01*
X153696794Y-89717510D01*
X153680268Y-89779187D01*
X153680228Y-89779317D01*
X153655292Y-89852149D01*
X153647678Y-89900769D01*
X153647634Y-89900978D01*
X153637106Y-89940268D01*
X153631560Y-90003661D01*
X153631544Y-90003796D01*
X153619599Y-90080077D01*
X153618162Y-90101146D01*
X153617047Y-90102806D01*
X153615051Y-90102670D01*
X153614214Y-90101442D01*
X153599140Y-90033244D01*
X153550006Y-89984436D01*
X153482281Y-89969940D01*
X153417342Y-89994407D01*
X153402064Y-90010231D01*
X153400141Y-90010783D01*
X153398703Y-90009393D01*
X153398880Y-90007865D01*
X153494420Y-89837268D01*
X153564892Y-89629663D01*
X153596359Y-89412633D01*
X153597141Y-89382762D01*
X153598186Y-89381056D01*
X153600185Y-89381109D01*
G37*
G36*
X191700185Y-89381109D02*
G01*
X191701101Y-89382420D01*
X191713130Y-89442271D01*
X191761320Y-89492014D01*
X191828752Y-89507807D01*
X191894087Y-89484612D01*
X191929822Y-89444143D01*
X191933241Y-89437923D01*
X191933422Y-89437649D01*
X191934775Y-89435929D01*
X191936632Y-89435186D01*
X191938204Y-89436423D01*
X191938098Y-89438133D01*
X191917918Y-89474689D01*
X191917805Y-89474869D01*
X191894256Y-89508501D01*
X191867101Y-89566735D01*
X191867039Y-89566857D01*
X191829990Y-89633972D01*
X191814118Y-89680331D01*
X191814039Y-89680528D01*
X191796794Y-89717510D01*
X191780268Y-89779187D01*
X191780228Y-89779317D01*
X191755292Y-89852149D01*
X191747678Y-89900769D01*
X191747634Y-89900978D01*
X191737106Y-89940268D01*
X191731560Y-90003661D01*
X191731544Y-90003796D01*
X191719599Y-90080077D01*
X191718162Y-90101146D01*
X191717047Y-90102806D01*
X191715051Y-90102670D01*
X191714214Y-90101442D01*
X191699140Y-90033244D01*
X191650006Y-89984436D01*
X191582281Y-89969940D01*
X191517342Y-89994407D01*
X191502064Y-90010231D01*
X191500141Y-90010783D01*
X191498703Y-90009393D01*
X191498880Y-90007865D01*
X191594420Y-89837268D01*
X191664892Y-89629663D01*
X191696359Y-89412633D01*
X191697141Y-89382762D01*
X191698186Y-89381056D01*
X191700185Y-89381109D01*
G37*
G36*
X172650185Y-89381109D02*
G01*
X172651101Y-89382420D01*
X172663130Y-89442271D01*
X172711320Y-89492014D01*
X172778752Y-89507807D01*
X172844087Y-89484612D01*
X172879822Y-89444143D01*
X172883241Y-89437923D01*
X172883422Y-89437649D01*
X172884775Y-89435929D01*
X172886632Y-89435186D01*
X172888204Y-89436423D01*
X172888098Y-89438133D01*
X172867918Y-89474689D01*
X172867805Y-89474869D01*
X172844256Y-89508501D01*
X172817101Y-89566735D01*
X172817039Y-89566857D01*
X172779990Y-89633972D01*
X172764118Y-89680331D01*
X172764039Y-89680528D01*
X172746794Y-89717510D01*
X172730268Y-89779187D01*
X172730228Y-89779317D01*
X172705292Y-89852149D01*
X172697678Y-89900769D01*
X172697634Y-89900978D01*
X172687106Y-89940268D01*
X172681560Y-90003661D01*
X172681544Y-90003796D01*
X172669599Y-90080077D01*
X172668162Y-90101146D01*
X172667047Y-90102806D01*
X172665051Y-90102670D01*
X172664214Y-90101442D01*
X172649140Y-90033244D01*
X172600006Y-89984436D01*
X172532281Y-89969940D01*
X172467342Y-89994407D01*
X172452064Y-90010231D01*
X172450141Y-90010783D01*
X172448703Y-90009393D01*
X172448880Y-90007865D01*
X172544420Y-89837268D01*
X172614892Y-89629663D01*
X172646359Y-89412633D01*
X172647141Y-89382762D01*
X172648186Y-89381056D01*
X172650185Y-89381109D01*
G37*
G36*
X77400185Y-89381109D02*
G01*
X77401101Y-89382420D01*
X77413130Y-89442271D01*
X77461320Y-89492014D01*
X77528752Y-89507807D01*
X77594087Y-89484612D01*
X77629822Y-89444143D01*
X77633241Y-89437923D01*
X77633422Y-89437649D01*
X77634775Y-89435929D01*
X77636632Y-89435186D01*
X77638204Y-89436423D01*
X77638098Y-89438133D01*
X77617918Y-89474689D01*
X77617805Y-89474869D01*
X77594256Y-89508501D01*
X77567101Y-89566735D01*
X77567039Y-89566857D01*
X77529990Y-89633972D01*
X77514118Y-89680331D01*
X77514039Y-89680528D01*
X77496794Y-89717510D01*
X77480268Y-89779187D01*
X77480228Y-89779317D01*
X77455292Y-89852149D01*
X77447678Y-89900769D01*
X77447634Y-89900978D01*
X77437106Y-89940268D01*
X77431560Y-90003661D01*
X77431544Y-90003796D01*
X77419599Y-90080077D01*
X77418162Y-90101146D01*
X77417047Y-90102806D01*
X77415051Y-90102670D01*
X77414214Y-90101442D01*
X77399140Y-90033244D01*
X77350006Y-89984436D01*
X77282281Y-89969940D01*
X77217342Y-89994407D01*
X77202064Y-90010231D01*
X77200141Y-90010783D01*
X77198703Y-90009393D01*
X77198880Y-90007865D01*
X77294420Y-89837268D01*
X77364892Y-89629663D01*
X77396359Y-89412633D01*
X77397141Y-89382762D01*
X77398186Y-89381056D01*
X77400185Y-89381109D01*
G37*
G36*
X210750185Y-89381109D02*
G01*
X210751101Y-89382420D01*
X210763130Y-89442271D01*
X210811320Y-89492014D01*
X210878752Y-89507807D01*
X210944087Y-89484612D01*
X210979822Y-89444143D01*
X210983241Y-89437923D01*
X210983422Y-89437649D01*
X210984775Y-89435929D01*
X210986632Y-89435186D01*
X210988204Y-89436423D01*
X210988098Y-89438133D01*
X210967918Y-89474689D01*
X210967805Y-89474869D01*
X210944256Y-89508501D01*
X210917101Y-89566735D01*
X210917039Y-89566857D01*
X210879990Y-89633972D01*
X210864118Y-89680331D01*
X210864039Y-89680528D01*
X210846794Y-89717510D01*
X210830268Y-89779187D01*
X210830228Y-89779317D01*
X210805292Y-89852149D01*
X210797678Y-89900769D01*
X210797634Y-89900978D01*
X210787106Y-89940268D01*
X210781560Y-90003661D01*
X210781544Y-90003796D01*
X210769599Y-90080077D01*
X210768162Y-90101146D01*
X210767047Y-90102806D01*
X210765051Y-90102670D01*
X210764214Y-90101442D01*
X210749140Y-90033244D01*
X210700006Y-89984436D01*
X210632281Y-89969940D01*
X210567342Y-89994407D01*
X210552064Y-90010231D01*
X210550141Y-90010783D01*
X210548703Y-90009393D01*
X210548880Y-90007865D01*
X210644420Y-89837268D01*
X210714892Y-89629663D01*
X210746359Y-89412633D01*
X210747141Y-89382762D01*
X210748186Y-89381056D01*
X210750185Y-89381109D01*
G37*
G36*
X134550185Y-89381109D02*
G01*
X134551101Y-89382420D01*
X134563130Y-89442271D01*
X134611320Y-89492014D01*
X134678752Y-89507807D01*
X134744087Y-89484612D01*
X134779822Y-89444143D01*
X134783241Y-89437923D01*
X134783422Y-89437649D01*
X134784775Y-89435929D01*
X134786632Y-89435186D01*
X134788204Y-89436423D01*
X134788098Y-89438133D01*
X134767918Y-89474689D01*
X134767805Y-89474869D01*
X134744256Y-89508501D01*
X134717101Y-89566735D01*
X134717039Y-89566857D01*
X134679990Y-89633972D01*
X134664118Y-89680331D01*
X134664039Y-89680528D01*
X134646794Y-89717510D01*
X134630268Y-89779187D01*
X134630228Y-89779317D01*
X134605292Y-89852149D01*
X134597678Y-89900769D01*
X134597634Y-89900978D01*
X134587106Y-89940268D01*
X134581560Y-90003661D01*
X134581544Y-90003796D01*
X134569599Y-90080077D01*
X134568162Y-90101146D01*
X134567047Y-90102806D01*
X134565051Y-90102670D01*
X134564214Y-90101442D01*
X134549140Y-90033244D01*
X134500006Y-89984436D01*
X134432281Y-89969940D01*
X134367342Y-89994407D01*
X134352064Y-90010231D01*
X134350141Y-90010783D01*
X134348703Y-90009393D01*
X134348880Y-90007865D01*
X134444420Y-89837268D01*
X134514892Y-89629663D01*
X134546359Y-89412633D01*
X134547141Y-89382762D01*
X134548186Y-89381056D01*
X134550185Y-89381109D01*
G37*
G36*
X58350185Y-89381109D02*
G01*
X58351101Y-89382420D01*
X58363130Y-89442271D01*
X58411320Y-89492014D01*
X58478752Y-89507807D01*
X58544087Y-89484612D01*
X58579822Y-89444143D01*
X58583241Y-89437923D01*
X58583422Y-89437649D01*
X58584775Y-89435929D01*
X58586632Y-89435186D01*
X58588204Y-89436423D01*
X58588098Y-89438133D01*
X58567918Y-89474689D01*
X58567805Y-89474869D01*
X58544256Y-89508501D01*
X58517101Y-89566735D01*
X58517039Y-89566857D01*
X58479990Y-89633972D01*
X58464118Y-89680331D01*
X58464039Y-89680528D01*
X58446794Y-89717510D01*
X58430268Y-89779187D01*
X58430228Y-89779317D01*
X58405292Y-89852149D01*
X58397678Y-89900769D01*
X58397634Y-89900978D01*
X58387106Y-89940268D01*
X58381560Y-90003661D01*
X58381544Y-90003796D01*
X58369599Y-90080077D01*
X58368162Y-90101146D01*
X58367047Y-90102806D01*
X58365051Y-90102670D01*
X58364214Y-90101442D01*
X58349140Y-90033244D01*
X58300006Y-89984436D01*
X58232281Y-89969940D01*
X58167342Y-89994407D01*
X58152064Y-90010231D01*
X58150141Y-90010783D01*
X58148703Y-90009393D01*
X58148880Y-90007865D01*
X58244420Y-89837268D01*
X58314892Y-89629663D01*
X58346359Y-89412633D01*
X58347141Y-89382762D01*
X58348186Y-89381056D01*
X58350185Y-89381109D01*
G37*
G36*
X200021542Y-79106673D02*
G01*
X200022481Y-79108368D01*
X200022481Y-81091760D01*
X200021481Y-81093492D01*
X200019481Y-81093492D01*
X200018562Y-81092323D01*
X199998885Y-81025308D01*
X199946542Y-80979953D01*
X199877989Y-80970096D01*
X199814752Y-80998976D01*
X199808471Y-81004823D01*
X199791437Y-81021857D01*
X199789505Y-81022375D01*
X199788091Y-81020961D01*
X199788360Y-81019332D01*
X199817433Y-80975822D01*
X199832542Y-80899865D01*
X199832542Y-79300263D01*
X199817433Y-79224306D01*
X199788360Y-79180796D01*
X199788229Y-79178800D01*
X199789892Y-79177689D01*
X199791437Y-79178271D01*
X199808305Y-79195139D01*
X199869354Y-79228473D01*
X199938436Y-79223533D01*
X199993880Y-79182028D01*
X200018176Y-79116890D01*
X200018482Y-79108297D01*
X200019543Y-79106601D01*
X200021542Y-79106673D01*
G37*
G36*
X180971526Y-79106609D02*
G01*
X180972465Y-79108304D01*
X180972465Y-81091696D01*
X180971465Y-81093428D01*
X180969465Y-81093428D01*
X180968546Y-81092259D01*
X180948869Y-81025244D01*
X180896526Y-80979889D01*
X180827973Y-80970032D01*
X180764736Y-80998912D01*
X180758455Y-81004759D01*
X180741421Y-81021793D01*
X180739489Y-81022311D01*
X180738075Y-81020897D01*
X180738344Y-81019268D01*
X180767417Y-80975758D01*
X180782526Y-80899801D01*
X180782526Y-79300199D01*
X180767417Y-79224242D01*
X180738344Y-79180732D01*
X180738213Y-79178736D01*
X180739876Y-79177625D01*
X180741421Y-79178207D01*
X180758289Y-79195075D01*
X180819338Y-79228409D01*
X180888420Y-79223469D01*
X180943864Y-79181964D01*
X180968160Y-79116826D01*
X180968466Y-79108233D01*
X180969527Y-79106537D01*
X180971526Y-79106609D01*
G37*
G36*
X199765216Y-71932464D02*
G01*
X199769425Y-71940999D01*
X199769556Y-71941341D01*
X199777023Y-71967819D01*
X199814000Y-72026734D01*
X199876686Y-72056177D01*
X199945344Y-72047055D01*
X199998162Y-72002269D01*
X200018565Y-71934134D01*
X200020020Y-71932762D01*
X200021936Y-71933336D01*
X200022481Y-71934708D01*
X200022481Y-72659832D01*
X200021481Y-72661564D01*
X200019481Y-72661564D01*
X200018562Y-72660395D01*
X199998885Y-72593380D01*
X199946542Y-72548025D01*
X199877989Y-72538168D01*
X199814970Y-72566948D01*
X199778925Y-72620548D01*
X199777040Y-72626101D01*
X199775536Y-72627420D01*
X199773642Y-72626777D01*
X199773248Y-72624827D01*
X199807732Y-72521165D01*
X199832154Y-72327850D01*
X199832541Y-72300142D01*
X199813527Y-72106224D01*
X199761507Y-71933927D01*
X199761964Y-71931980D01*
X199763879Y-71931402D01*
X199765216Y-71932464D01*
G37*
G36*
X180715200Y-71932400D02*
G01*
X180719409Y-71940935D01*
X180719540Y-71941277D01*
X180727007Y-71967755D01*
X180763984Y-72026670D01*
X180826670Y-72056113D01*
X180895328Y-72046991D01*
X180948146Y-72002205D01*
X180968549Y-71934070D01*
X180970004Y-71932698D01*
X180971920Y-71933272D01*
X180972465Y-71934644D01*
X180972465Y-72659768D01*
X180971465Y-72661500D01*
X180969465Y-72661500D01*
X180968546Y-72660331D01*
X180948869Y-72593316D01*
X180896526Y-72547961D01*
X180827973Y-72538104D01*
X180764954Y-72566884D01*
X180728909Y-72620484D01*
X180727024Y-72626037D01*
X180725520Y-72627356D01*
X180723626Y-72626713D01*
X180723232Y-72624763D01*
X180757716Y-72521101D01*
X180782138Y-72327786D01*
X180782525Y-72300078D01*
X180763511Y-72106160D01*
X180711491Y-71933863D01*
X180711948Y-71931916D01*
X180713863Y-71931338D01*
X180715200Y-71932400D01*
G37*
G36*
X213387815Y-71571829D02*
G01*
X213388653Y-71573057D01*
X213403727Y-71641253D01*
X213452861Y-71690061D01*
X213520586Y-71704557D01*
X213585525Y-71680090D01*
X213612254Y-71652406D01*
X213629472Y-71627818D01*
X213629696Y-71627551D01*
X213653744Y-71603503D01*
X213655676Y-71602985D01*
X213657090Y-71604399D01*
X213656729Y-71606155D01*
X213545279Y-71747528D01*
X213443201Y-71941548D01*
X213378187Y-72150924D01*
X213352419Y-72368638D01*
X213362105Y-72516420D01*
X213361220Y-72518214D01*
X213359224Y-72518345D01*
X213358246Y-72517280D01*
X213333531Y-72454095D01*
X213277436Y-72413475D01*
X213208284Y-72409632D01*
X213148537Y-72443497D01*
X213146537Y-72443481D01*
X213145551Y-72441741D01*
X213145995Y-72440501D01*
X213148099Y-72437894D01*
X213259552Y-72235997D01*
X213334250Y-72017819D01*
X213369943Y-71789891D01*
X213384705Y-71573353D01*
X213385820Y-71571693D01*
X213387815Y-71571829D01*
G37*
G36*
X99087815Y-71571829D02*
G01*
X99088653Y-71573057D01*
X99103727Y-71641253D01*
X99152861Y-71690061D01*
X99220586Y-71704557D01*
X99285525Y-71680090D01*
X99312254Y-71652406D01*
X99329472Y-71627818D01*
X99329696Y-71627551D01*
X99353744Y-71603503D01*
X99355676Y-71602985D01*
X99357090Y-71604399D01*
X99356729Y-71606155D01*
X99245279Y-71747528D01*
X99143201Y-71941548D01*
X99078187Y-72150924D01*
X99052419Y-72368638D01*
X99062105Y-72516420D01*
X99061220Y-72518214D01*
X99059224Y-72518345D01*
X99058246Y-72517280D01*
X99033531Y-72454095D01*
X98977436Y-72413475D01*
X98908284Y-72409632D01*
X98848537Y-72443497D01*
X98846537Y-72443481D01*
X98845551Y-72441741D01*
X98845995Y-72440501D01*
X98848099Y-72437894D01*
X98959552Y-72235997D01*
X99034250Y-72017819D01*
X99069943Y-71789891D01*
X99084705Y-71573353D01*
X99085820Y-71571693D01*
X99087815Y-71571829D01*
G37*
G36*
X194337815Y-71571829D02*
G01*
X194338653Y-71573057D01*
X194353727Y-71641253D01*
X194402861Y-71690061D01*
X194470586Y-71704557D01*
X194535525Y-71680090D01*
X194562254Y-71652406D01*
X194579472Y-71627818D01*
X194579696Y-71627551D01*
X194603744Y-71603503D01*
X194605676Y-71602985D01*
X194607090Y-71604399D01*
X194606729Y-71606155D01*
X194495279Y-71747528D01*
X194393201Y-71941548D01*
X194328187Y-72150924D01*
X194302419Y-72368638D01*
X194312105Y-72516420D01*
X194311220Y-72518214D01*
X194309224Y-72518345D01*
X194308246Y-72517280D01*
X194283531Y-72454095D01*
X194227436Y-72413475D01*
X194158284Y-72409632D01*
X194098537Y-72443497D01*
X194096537Y-72443481D01*
X194095551Y-72441741D01*
X194095995Y-72440501D01*
X194098099Y-72437894D01*
X194209552Y-72235997D01*
X194284250Y-72017819D01*
X194319943Y-71789891D01*
X194334705Y-71573353D01*
X194335820Y-71571693D01*
X194337815Y-71571829D01*
G37*
G36*
X156237815Y-71571829D02*
G01*
X156238653Y-71573057D01*
X156253727Y-71641253D01*
X156302861Y-71690061D01*
X156370586Y-71704557D01*
X156435525Y-71680090D01*
X156462254Y-71652406D01*
X156479472Y-71627818D01*
X156479696Y-71627551D01*
X156503744Y-71603503D01*
X156505676Y-71602985D01*
X156507090Y-71604399D01*
X156506729Y-71606155D01*
X156395279Y-71747528D01*
X156293201Y-71941548D01*
X156228187Y-72150924D01*
X156202419Y-72368638D01*
X156212105Y-72516420D01*
X156211220Y-72518214D01*
X156209224Y-72518345D01*
X156208246Y-72517280D01*
X156183531Y-72454095D01*
X156127436Y-72413475D01*
X156058284Y-72409632D01*
X155998537Y-72443497D01*
X155996537Y-72443481D01*
X155995551Y-72441741D01*
X155995995Y-72440501D01*
X155998099Y-72437894D01*
X156109552Y-72235997D01*
X156184250Y-72017819D01*
X156219943Y-71789891D01*
X156234705Y-71573353D01*
X156235820Y-71571693D01*
X156237815Y-71571829D01*
G37*
G36*
X175287815Y-71571829D02*
G01*
X175288653Y-71573057D01*
X175303727Y-71641253D01*
X175352861Y-71690061D01*
X175420586Y-71704557D01*
X175485525Y-71680090D01*
X175512254Y-71652406D01*
X175529472Y-71627818D01*
X175529696Y-71627551D01*
X175553744Y-71603503D01*
X175555676Y-71602985D01*
X175557090Y-71604399D01*
X175556729Y-71606155D01*
X175445279Y-71747528D01*
X175343201Y-71941548D01*
X175278187Y-72150924D01*
X175252419Y-72368638D01*
X175262105Y-72516420D01*
X175261220Y-72518214D01*
X175259224Y-72518345D01*
X175258246Y-72517280D01*
X175233531Y-72454095D01*
X175177436Y-72413475D01*
X175108284Y-72409632D01*
X175048537Y-72443497D01*
X175046537Y-72443481D01*
X175045551Y-72441741D01*
X175045995Y-72440501D01*
X175048099Y-72437894D01*
X175159552Y-72235997D01*
X175234250Y-72017819D01*
X175269943Y-71789891D01*
X175284705Y-71573353D01*
X175285820Y-71571693D01*
X175287815Y-71571829D01*
G37*
G36*
X118137815Y-71571829D02*
G01*
X118138653Y-71573057D01*
X118153727Y-71641253D01*
X118202861Y-71690061D01*
X118270586Y-71704557D01*
X118335525Y-71680090D01*
X118362254Y-71652406D01*
X118379472Y-71627818D01*
X118379696Y-71627551D01*
X118403744Y-71603503D01*
X118405676Y-71602985D01*
X118407090Y-71604399D01*
X118406729Y-71606155D01*
X118295279Y-71747528D01*
X118193201Y-71941548D01*
X118128187Y-72150924D01*
X118102419Y-72368638D01*
X118112105Y-72516420D01*
X118111220Y-72518214D01*
X118109224Y-72518345D01*
X118108246Y-72517280D01*
X118083531Y-72454095D01*
X118027436Y-72413475D01*
X117958284Y-72409632D01*
X117898537Y-72443497D01*
X117896537Y-72443481D01*
X117895551Y-72441741D01*
X117895995Y-72440501D01*
X117898099Y-72437894D01*
X118009552Y-72235997D01*
X118084250Y-72017819D01*
X118119943Y-71789891D01*
X118134705Y-71573353D01*
X118135820Y-71571693D01*
X118137815Y-71571829D01*
G37*
G36*
X80037815Y-71571829D02*
G01*
X80038653Y-71573057D01*
X80053727Y-71641253D01*
X80102861Y-71690061D01*
X80170586Y-71704557D01*
X80235525Y-71680090D01*
X80262254Y-71652406D01*
X80279472Y-71627818D01*
X80279696Y-71627551D01*
X80303744Y-71603503D01*
X80305676Y-71602985D01*
X80307090Y-71604399D01*
X80306729Y-71606155D01*
X80195279Y-71747528D01*
X80093201Y-71941548D01*
X80028187Y-72150924D01*
X80002419Y-72368638D01*
X80012105Y-72516420D01*
X80011220Y-72518214D01*
X80009224Y-72518345D01*
X80008246Y-72517280D01*
X79983531Y-72454095D01*
X79927436Y-72413475D01*
X79858284Y-72409632D01*
X79798537Y-72443497D01*
X79796537Y-72443481D01*
X79795551Y-72441741D01*
X79795995Y-72440501D01*
X79798099Y-72437894D01*
X79909552Y-72235997D01*
X79984250Y-72017819D01*
X80019943Y-71789891D01*
X80034705Y-71573353D01*
X80035820Y-71571693D01*
X80037815Y-71571829D01*
G37*
G36*
X137187815Y-71571829D02*
G01*
X137188653Y-71573057D01*
X137203727Y-71641253D01*
X137252861Y-71690061D01*
X137320586Y-71704557D01*
X137385525Y-71680090D01*
X137412254Y-71652406D01*
X137429472Y-71627818D01*
X137429696Y-71627551D01*
X137453744Y-71603503D01*
X137455676Y-71602985D01*
X137457090Y-71604399D01*
X137456729Y-71606155D01*
X137345279Y-71747528D01*
X137243201Y-71941548D01*
X137178187Y-72150924D01*
X137152419Y-72368638D01*
X137162105Y-72516420D01*
X137161220Y-72518214D01*
X137159224Y-72518345D01*
X137158246Y-72517280D01*
X137133531Y-72454095D01*
X137077436Y-72413475D01*
X137008284Y-72409632D01*
X136948537Y-72443497D01*
X136946537Y-72443481D01*
X136945551Y-72441741D01*
X136945995Y-72440501D01*
X136948099Y-72437894D01*
X137059552Y-72235997D01*
X137134250Y-72017819D01*
X137169943Y-71789891D01*
X137184705Y-71573353D01*
X137185820Y-71571693D01*
X137187815Y-71571829D01*
G37*
G36*
X60987815Y-71571829D02*
G01*
X60988653Y-71573057D01*
X61003727Y-71641253D01*
X61052861Y-71690061D01*
X61120586Y-71704557D01*
X61185525Y-71680090D01*
X61212254Y-71652406D01*
X61229472Y-71627818D01*
X61229696Y-71627551D01*
X61253744Y-71603503D01*
X61255676Y-71602985D01*
X61257090Y-71604399D01*
X61256729Y-71606155D01*
X61145279Y-71747528D01*
X61043201Y-71941548D01*
X60978187Y-72150924D01*
X60952419Y-72368638D01*
X60962105Y-72516420D01*
X60961220Y-72518214D01*
X60959224Y-72518345D01*
X60958246Y-72517280D01*
X60933531Y-72454095D01*
X60877436Y-72413475D01*
X60808284Y-72409632D01*
X60748537Y-72443497D01*
X60746537Y-72443481D01*
X60745551Y-72441741D01*
X60745995Y-72440501D01*
X60748099Y-72437894D01*
X60859552Y-72235997D01*
X60934250Y-72017819D01*
X60969943Y-71789891D01*
X60984705Y-71573353D01*
X60985820Y-71571693D01*
X60987815Y-71571829D01*
G37*
G36*
X77400185Y-70331109D02*
G01*
X77401101Y-70332420D01*
X77413130Y-70392271D01*
X77461320Y-70442014D01*
X77528752Y-70457807D01*
X77594087Y-70434612D01*
X77629822Y-70394143D01*
X77633241Y-70387923D01*
X77633422Y-70387649D01*
X77634775Y-70385929D01*
X77636632Y-70385186D01*
X77638204Y-70386423D01*
X77638098Y-70388133D01*
X77617918Y-70424689D01*
X77617805Y-70424869D01*
X77594256Y-70458501D01*
X77567101Y-70516735D01*
X77567039Y-70516857D01*
X77529990Y-70583972D01*
X77514118Y-70630331D01*
X77514039Y-70630528D01*
X77496794Y-70667510D01*
X77480268Y-70729187D01*
X77480228Y-70729317D01*
X77455292Y-70802149D01*
X77447678Y-70850769D01*
X77447634Y-70850978D01*
X77437106Y-70890268D01*
X77431560Y-70953661D01*
X77431544Y-70953796D01*
X77419599Y-71030077D01*
X77418162Y-71051146D01*
X77417047Y-71052806D01*
X77415051Y-71052670D01*
X77414214Y-71051442D01*
X77399140Y-70983244D01*
X77350006Y-70934436D01*
X77282281Y-70919940D01*
X77217342Y-70944407D01*
X77202064Y-70960231D01*
X77200141Y-70960783D01*
X77198703Y-70959393D01*
X77198880Y-70957865D01*
X77294420Y-70787268D01*
X77364892Y-70579663D01*
X77396359Y-70362633D01*
X77397141Y-70332762D01*
X77398186Y-70331056D01*
X77400185Y-70331109D01*
G37*
G36*
X58350185Y-70331109D02*
G01*
X58351101Y-70332420D01*
X58363130Y-70392271D01*
X58411320Y-70442014D01*
X58478752Y-70457807D01*
X58544087Y-70434612D01*
X58579822Y-70394143D01*
X58583241Y-70387923D01*
X58583422Y-70387649D01*
X58584775Y-70385929D01*
X58586632Y-70385186D01*
X58588204Y-70386423D01*
X58588098Y-70388133D01*
X58567918Y-70424689D01*
X58567805Y-70424869D01*
X58544256Y-70458501D01*
X58517101Y-70516735D01*
X58517039Y-70516857D01*
X58479990Y-70583972D01*
X58464118Y-70630331D01*
X58464039Y-70630528D01*
X58446794Y-70667510D01*
X58430268Y-70729187D01*
X58430228Y-70729317D01*
X58405292Y-70802149D01*
X58397678Y-70850769D01*
X58397634Y-70850978D01*
X58387106Y-70890268D01*
X58381560Y-70953661D01*
X58381544Y-70953796D01*
X58369599Y-71030077D01*
X58368162Y-71051146D01*
X58367047Y-71052806D01*
X58365051Y-71052670D01*
X58364214Y-71051442D01*
X58349140Y-70983244D01*
X58300006Y-70934436D01*
X58232281Y-70919940D01*
X58167342Y-70944407D01*
X58152064Y-70960231D01*
X58150141Y-70960783D01*
X58148703Y-70959393D01*
X58148880Y-70957865D01*
X58244420Y-70787268D01*
X58314892Y-70579663D01*
X58346359Y-70362633D01*
X58347141Y-70332762D01*
X58348186Y-70331056D01*
X58350185Y-70331109D01*
G37*
G36*
X210750185Y-70331109D02*
G01*
X210751101Y-70332420D01*
X210763130Y-70392271D01*
X210811320Y-70442014D01*
X210878752Y-70457807D01*
X210944087Y-70434612D01*
X210979822Y-70394143D01*
X210983241Y-70387923D01*
X210983422Y-70387649D01*
X210984775Y-70385929D01*
X210986632Y-70385186D01*
X210988204Y-70386423D01*
X210988098Y-70388133D01*
X210967918Y-70424689D01*
X210967805Y-70424869D01*
X210944256Y-70458501D01*
X210917101Y-70516735D01*
X210917039Y-70516857D01*
X210879990Y-70583972D01*
X210864118Y-70630331D01*
X210864039Y-70630528D01*
X210846794Y-70667510D01*
X210830268Y-70729187D01*
X210830228Y-70729317D01*
X210805292Y-70802149D01*
X210797678Y-70850769D01*
X210797634Y-70850978D01*
X210787106Y-70890268D01*
X210781560Y-70953661D01*
X210781544Y-70953796D01*
X210769599Y-71030077D01*
X210768162Y-71051146D01*
X210767047Y-71052806D01*
X210765051Y-71052670D01*
X210764214Y-71051442D01*
X210749140Y-70983244D01*
X210700006Y-70934436D01*
X210632281Y-70919940D01*
X210567342Y-70944407D01*
X210552064Y-70960231D01*
X210550141Y-70960783D01*
X210548703Y-70959393D01*
X210548880Y-70957865D01*
X210644420Y-70787268D01*
X210714892Y-70579663D01*
X210746359Y-70362633D01*
X210747141Y-70332762D01*
X210748186Y-70331056D01*
X210750185Y-70331109D01*
G37*
G36*
X172650185Y-70331109D02*
G01*
X172651101Y-70332420D01*
X172663130Y-70392271D01*
X172711320Y-70442014D01*
X172778752Y-70457807D01*
X172844087Y-70434612D01*
X172879822Y-70394143D01*
X172883241Y-70387923D01*
X172883422Y-70387649D01*
X172884775Y-70385929D01*
X172886632Y-70385186D01*
X172888204Y-70386423D01*
X172888098Y-70388133D01*
X172867918Y-70424689D01*
X172867805Y-70424869D01*
X172844256Y-70458501D01*
X172817101Y-70516735D01*
X172817039Y-70516857D01*
X172779990Y-70583972D01*
X172764118Y-70630331D01*
X172764039Y-70630528D01*
X172746794Y-70667510D01*
X172730268Y-70729187D01*
X172730228Y-70729317D01*
X172705292Y-70802149D01*
X172697678Y-70850769D01*
X172697634Y-70850978D01*
X172687106Y-70890268D01*
X172681560Y-70953661D01*
X172681544Y-70953796D01*
X172669599Y-71030077D01*
X172668162Y-71051146D01*
X172667047Y-71052806D01*
X172665051Y-71052670D01*
X172664214Y-71051442D01*
X172649140Y-70983244D01*
X172600006Y-70934436D01*
X172532281Y-70919940D01*
X172467342Y-70944407D01*
X172452064Y-70960231D01*
X172450141Y-70960783D01*
X172448703Y-70959393D01*
X172448880Y-70957865D01*
X172544420Y-70787268D01*
X172614892Y-70579663D01*
X172646359Y-70362633D01*
X172647141Y-70332762D01*
X172648186Y-70331056D01*
X172650185Y-70331109D01*
G37*
G36*
X153600185Y-70331109D02*
G01*
X153601101Y-70332420D01*
X153613130Y-70392271D01*
X153661320Y-70442014D01*
X153728752Y-70457807D01*
X153794087Y-70434612D01*
X153829822Y-70394143D01*
X153833241Y-70387923D01*
X153833422Y-70387649D01*
X153834775Y-70385929D01*
X153836632Y-70385186D01*
X153838204Y-70386423D01*
X153838098Y-70388133D01*
X153817918Y-70424689D01*
X153817805Y-70424869D01*
X153794256Y-70458501D01*
X153767101Y-70516735D01*
X153767039Y-70516857D01*
X153729990Y-70583972D01*
X153714118Y-70630331D01*
X153714039Y-70630528D01*
X153696794Y-70667510D01*
X153680268Y-70729187D01*
X153680228Y-70729317D01*
X153655292Y-70802149D01*
X153647678Y-70850769D01*
X153647634Y-70850978D01*
X153637106Y-70890268D01*
X153631560Y-70953661D01*
X153631544Y-70953796D01*
X153619599Y-71030077D01*
X153618162Y-71051146D01*
X153617047Y-71052806D01*
X153615051Y-71052670D01*
X153614214Y-71051442D01*
X153599140Y-70983244D01*
X153550006Y-70934436D01*
X153482281Y-70919940D01*
X153417342Y-70944407D01*
X153402064Y-70960231D01*
X153400141Y-70960783D01*
X153398703Y-70959393D01*
X153398880Y-70957865D01*
X153494420Y-70787268D01*
X153564892Y-70579663D01*
X153596359Y-70362633D01*
X153597141Y-70332762D01*
X153598186Y-70331056D01*
X153600185Y-70331109D01*
G37*
G36*
X191700185Y-70331109D02*
G01*
X191701101Y-70332420D01*
X191713130Y-70392271D01*
X191761320Y-70442014D01*
X191828752Y-70457807D01*
X191894087Y-70434612D01*
X191929822Y-70394143D01*
X191933241Y-70387923D01*
X191933422Y-70387649D01*
X191934775Y-70385929D01*
X191936632Y-70385186D01*
X191938204Y-70386423D01*
X191938098Y-70388133D01*
X191917918Y-70424689D01*
X191917805Y-70424869D01*
X191894256Y-70458501D01*
X191867101Y-70516735D01*
X191867039Y-70516857D01*
X191829990Y-70583972D01*
X191814118Y-70630331D01*
X191814039Y-70630528D01*
X191796794Y-70667510D01*
X191780268Y-70729187D01*
X191780228Y-70729317D01*
X191755292Y-70802149D01*
X191747678Y-70850769D01*
X191747634Y-70850978D01*
X191737106Y-70890268D01*
X191731560Y-70953661D01*
X191731544Y-70953796D01*
X191719599Y-71030077D01*
X191718162Y-71051146D01*
X191717047Y-71052806D01*
X191715051Y-71052670D01*
X191714214Y-71051442D01*
X191699140Y-70983244D01*
X191650006Y-70934436D01*
X191582281Y-70919940D01*
X191517342Y-70944407D01*
X191502064Y-70960231D01*
X191500141Y-70960783D01*
X191498703Y-70959393D01*
X191498880Y-70957865D01*
X191594420Y-70787268D01*
X191664892Y-70579663D01*
X191696359Y-70362633D01*
X191697141Y-70332762D01*
X191698186Y-70331056D01*
X191700185Y-70331109D01*
G37*
G36*
X96450185Y-70331109D02*
G01*
X96451101Y-70332420D01*
X96463130Y-70392271D01*
X96511320Y-70442014D01*
X96578752Y-70457807D01*
X96644087Y-70434612D01*
X96679822Y-70394143D01*
X96683241Y-70387923D01*
X96683422Y-70387649D01*
X96684775Y-70385929D01*
X96686632Y-70385186D01*
X96688204Y-70386423D01*
X96688098Y-70388133D01*
X96667918Y-70424689D01*
X96667805Y-70424869D01*
X96644256Y-70458501D01*
X96617101Y-70516735D01*
X96617039Y-70516857D01*
X96579990Y-70583972D01*
X96564118Y-70630331D01*
X96564039Y-70630528D01*
X96546794Y-70667510D01*
X96530268Y-70729187D01*
X96530228Y-70729317D01*
X96505292Y-70802149D01*
X96497678Y-70850769D01*
X96497634Y-70850978D01*
X96487106Y-70890268D01*
X96481560Y-70953661D01*
X96481544Y-70953796D01*
X96469599Y-71030077D01*
X96468162Y-71051146D01*
X96467047Y-71052806D01*
X96465051Y-71052670D01*
X96464214Y-71051442D01*
X96449140Y-70983244D01*
X96400006Y-70934436D01*
X96332281Y-70919940D01*
X96267342Y-70944407D01*
X96252064Y-70960231D01*
X96250141Y-70960783D01*
X96248703Y-70959393D01*
X96248880Y-70957865D01*
X96344420Y-70787268D01*
X96414892Y-70579663D01*
X96446359Y-70362633D01*
X96447141Y-70332762D01*
X96448186Y-70331056D01*
X96450185Y-70331109D01*
G37*
G36*
X115500185Y-70331109D02*
G01*
X115501101Y-70332420D01*
X115513130Y-70392271D01*
X115561320Y-70442014D01*
X115628752Y-70457807D01*
X115694087Y-70434612D01*
X115729822Y-70394143D01*
X115733241Y-70387923D01*
X115733422Y-70387649D01*
X115734775Y-70385929D01*
X115736632Y-70385186D01*
X115738204Y-70386423D01*
X115738098Y-70388133D01*
X115717918Y-70424689D01*
X115717805Y-70424869D01*
X115694256Y-70458501D01*
X115667101Y-70516735D01*
X115667039Y-70516857D01*
X115629990Y-70583972D01*
X115614118Y-70630331D01*
X115614039Y-70630528D01*
X115596794Y-70667510D01*
X115580268Y-70729187D01*
X115580228Y-70729317D01*
X115555292Y-70802149D01*
X115547678Y-70850769D01*
X115547634Y-70850978D01*
X115537106Y-70890268D01*
X115531560Y-70953661D01*
X115531544Y-70953796D01*
X115519599Y-71030077D01*
X115518162Y-71051146D01*
X115517047Y-71052806D01*
X115515051Y-71052670D01*
X115514214Y-71051442D01*
X115499140Y-70983244D01*
X115450006Y-70934436D01*
X115382281Y-70919940D01*
X115317342Y-70944407D01*
X115302064Y-70960231D01*
X115300141Y-70960783D01*
X115298703Y-70959393D01*
X115298880Y-70957865D01*
X115394420Y-70787268D01*
X115464892Y-70579663D01*
X115496359Y-70362633D01*
X115497141Y-70332762D01*
X115498186Y-70331056D01*
X115500185Y-70331109D01*
G37*
G36*
X134550185Y-70331109D02*
G01*
X134551101Y-70332420D01*
X134563130Y-70392271D01*
X134611320Y-70442014D01*
X134678752Y-70457807D01*
X134744087Y-70434612D01*
X134779822Y-70394143D01*
X134783241Y-70387923D01*
X134783422Y-70387649D01*
X134784775Y-70385929D01*
X134786632Y-70385186D01*
X134788204Y-70386423D01*
X134788098Y-70388133D01*
X134767918Y-70424689D01*
X134767805Y-70424869D01*
X134744256Y-70458501D01*
X134717101Y-70516735D01*
X134717039Y-70516857D01*
X134679990Y-70583972D01*
X134664118Y-70630331D01*
X134664039Y-70630528D01*
X134646794Y-70667510D01*
X134630268Y-70729187D01*
X134630228Y-70729317D01*
X134605292Y-70802149D01*
X134597678Y-70850769D01*
X134597634Y-70850978D01*
X134587106Y-70890268D01*
X134581560Y-70953661D01*
X134581544Y-70953796D01*
X134569599Y-71030077D01*
X134568162Y-71051146D01*
X134567047Y-71052806D01*
X134565051Y-71052670D01*
X134564214Y-71051442D01*
X134549140Y-70983244D01*
X134500006Y-70934436D01*
X134432281Y-70919940D01*
X134367342Y-70944407D01*
X134352064Y-70960231D01*
X134350141Y-70960783D01*
X134348703Y-70959393D01*
X134348880Y-70957865D01*
X134444420Y-70787268D01*
X134514892Y-70579663D01*
X134546359Y-70362633D01*
X134547141Y-70332762D01*
X134548186Y-70331056D01*
X134550185Y-70331109D01*
G37*
G36*
X200021542Y-60056657D02*
G01*
X200022481Y-60058352D01*
X200022481Y-62041744D01*
X200021481Y-62043476D01*
X200019481Y-62043476D01*
X200018562Y-62042307D01*
X199998885Y-61975292D01*
X199946542Y-61929937D01*
X199877989Y-61920080D01*
X199814752Y-61948960D01*
X199808471Y-61954807D01*
X199791437Y-61971841D01*
X199789505Y-61972359D01*
X199788091Y-61970945D01*
X199788360Y-61969316D01*
X199817433Y-61925806D01*
X199832542Y-61849849D01*
X199832542Y-60250247D01*
X199817433Y-60174290D01*
X199788360Y-60130780D01*
X199788229Y-60128784D01*
X199789892Y-60127673D01*
X199791437Y-60128255D01*
X199808305Y-60145123D01*
X199869354Y-60178457D01*
X199938436Y-60173517D01*
X199993880Y-60132012D01*
X200018176Y-60066874D01*
X200018482Y-60058281D01*
X200019543Y-60056585D01*
X200021542Y-60056657D01*
G37*
G36*
X180971526Y-60056609D02*
G01*
X180972465Y-60058304D01*
X180972465Y-62041696D01*
X180971465Y-62043428D01*
X180969465Y-62043428D01*
X180968546Y-62042259D01*
X180948869Y-61975244D01*
X180896526Y-61929889D01*
X180827973Y-61920032D01*
X180764736Y-61948912D01*
X180758455Y-61954759D01*
X180741421Y-61971793D01*
X180739489Y-61972311D01*
X180738075Y-61970897D01*
X180738344Y-61969268D01*
X180767417Y-61925758D01*
X180782526Y-61849801D01*
X180782526Y-60250199D01*
X180767417Y-60174242D01*
X180738344Y-60130732D01*
X180738213Y-60128736D01*
X180739876Y-60127625D01*
X180741421Y-60128207D01*
X180758289Y-60145075D01*
X180819338Y-60178409D01*
X180888420Y-60173469D01*
X180943864Y-60131964D01*
X180968160Y-60066826D01*
X180968466Y-60058233D01*
X180969527Y-60056537D01*
X180971526Y-60056609D01*
G37*
G36*
X82750294Y-57181731D02*
G01*
X82751084Y-57183376D01*
X82750625Y-57200907D01*
X82750605Y-57201142D01*
X82737014Y-57294872D01*
X82746831Y-57363735D01*
X82792123Y-57416131D01*
X82858552Y-57435723D01*
X82925244Y-57416226D01*
X82934323Y-57409396D01*
X82936308Y-57409154D01*
X82937510Y-57410752D01*
X82936844Y-57412498D01*
X82812200Y-57521808D01*
X82690487Y-57676200D01*
X82598948Y-57850186D01*
X82540648Y-58037943D01*
X82533758Y-58096156D01*
X82532561Y-58097759D01*
X82530575Y-58097523D01*
X82529800Y-58096255D01*
X82518446Y-58029224D01*
X82471797Y-57978033D01*
X82404878Y-57960187D01*
X82338695Y-57981431D01*
X82329274Y-57988520D01*
X82295709Y-58016436D01*
X82295407Y-58016643D01*
X82280907Y-58024763D01*
X82278907Y-58024737D01*
X82277930Y-58022992D01*
X82278699Y-58021442D01*
X82422714Y-57908926D01*
X82556360Y-57754095D01*
X82657387Y-57576256D01*
X82721948Y-57382179D01*
X82747101Y-57183073D01*
X82748310Y-57181480D01*
X82750294Y-57181731D01*
G37*
G36*
X69659493Y-57223272D02*
G01*
X69669226Y-57339180D01*
X69725604Y-57535793D01*
X69819096Y-57717708D01*
X69946137Y-57877994D01*
X70070795Y-57984087D01*
X70071466Y-57985971D01*
X70070170Y-57987494D01*
X70068388Y-57987273D01*
X70062370Y-57983252D01*
X69995989Y-57962466D01*
X69929199Y-57980790D01*
X69882907Y-58032326D01*
X69871639Y-58095207D01*
X69870349Y-58096735D01*
X69868380Y-58096383D01*
X69867678Y-58095037D01*
X69864966Y-58065525D01*
X69811602Y-57876310D01*
X69724649Y-57699986D01*
X69607018Y-57542459D01*
X69464625Y-57410832D01*
X69464032Y-57408922D01*
X69465390Y-57407453D01*
X69467050Y-57407672D01*
X69471819Y-57410681D01*
X69538724Y-57429723D01*
X69605011Y-57409657D01*
X69649956Y-57356905D01*
X69660417Y-57298524D01*
X69655504Y-57223570D01*
X69656389Y-57221776D01*
X69658385Y-57221645D01*
X69659493Y-57223272D01*
G37*
G36*
X158648781Y-52678214D02*
G01*
X158649026Y-52679655D01*
X158632603Y-52758270D01*
X158627136Y-52862584D01*
X158627136Y-53262432D01*
X158647531Y-53463213D01*
X158707848Y-53655684D01*
X158795440Y-53813706D01*
X158795405Y-53815706D01*
X158793656Y-53816676D01*
X158792118Y-53815911D01*
X158782528Y-53803702D01*
X158782323Y-53803383D01*
X158753988Y-53748367D01*
X158706006Y-53698005D01*
X158638709Y-53681651D01*
X158573223Y-53704286D01*
X158532924Y-53752682D01*
X158512414Y-53796667D01*
X158510775Y-53797814D01*
X158508963Y-53796969D01*
X158508707Y-53795179D01*
X158564892Y-53629663D01*
X158596359Y-53412633D01*
X158597998Y-53350072D01*
X158577931Y-53131682D01*
X158518422Y-52920679D01*
X158424874Y-52730983D01*
X158425005Y-52728987D01*
X158426799Y-52728102D01*
X158427917Y-52728536D01*
X158478039Y-52768600D01*
X158546928Y-52775730D01*
X158608712Y-52744496D01*
X158645318Y-52678278D01*
X158647031Y-52677246D01*
X158648781Y-52678214D01*
G37*
G36*
X82552176Y-52917789D02*
G01*
X82552539Y-52919649D01*
X82540648Y-52957943D01*
X82517541Y-53153176D01*
X82530399Y-53349360D01*
X82578792Y-53539905D01*
X82601767Y-53589743D01*
X82601584Y-53591734D01*
X82599768Y-53592572D01*
X82598444Y-53591895D01*
X82553740Y-53540676D01*
X82487218Y-53521401D01*
X82420836Y-53541151D01*
X82375528Y-53593818D01*
X82373109Y-53600585D01*
X82371585Y-53601880D01*
X82369701Y-53601206D01*
X82369247Y-53599625D01*
X82396359Y-53412633D01*
X82397998Y-53350072D01*
X82377931Y-53131682D01*
X82320773Y-52929014D01*
X82321265Y-52927075D01*
X82323190Y-52926533D01*
X82324199Y-52927149D01*
X82368719Y-52977711D01*
X82435323Y-52996695D01*
X82501618Y-52976656D01*
X82546712Y-52923773D01*
X82548758Y-52918350D01*
X82550305Y-52917082D01*
X82552176Y-52917789D01*
G37*
G36*
X80037815Y-52521829D02*
G01*
X80038653Y-52523057D01*
X80053727Y-52591253D01*
X80102861Y-52640061D01*
X80170586Y-52654557D01*
X80235525Y-52630090D01*
X80262254Y-52602406D01*
X80279472Y-52577818D01*
X80279696Y-52577551D01*
X80303744Y-52553503D01*
X80305676Y-52552985D01*
X80307090Y-52554399D01*
X80306729Y-52556155D01*
X80195279Y-52697528D01*
X80093201Y-52891548D01*
X80028187Y-53100924D01*
X80002419Y-53318638D01*
X80012105Y-53466420D01*
X80011220Y-53468214D01*
X80009224Y-53468345D01*
X80008246Y-53467280D01*
X79983531Y-53404095D01*
X79927436Y-53363475D01*
X79858284Y-53359632D01*
X79798537Y-53393497D01*
X79796537Y-53393481D01*
X79795551Y-53391741D01*
X79795995Y-53390501D01*
X79798099Y-53387894D01*
X79909552Y-53185997D01*
X79984250Y-52967819D01*
X80019943Y-52739891D01*
X80034705Y-52523353D01*
X80035820Y-52521693D01*
X80037815Y-52521829D01*
G37*
G36*
X99087815Y-52521829D02*
G01*
X99088653Y-52523057D01*
X99103727Y-52591253D01*
X99152861Y-52640061D01*
X99220586Y-52654557D01*
X99285525Y-52630090D01*
X99312254Y-52602406D01*
X99329472Y-52577818D01*
X99329696Y-52577551D01*
X99353744Y-52553503D01*
X99355676Y-52552985D01*
X99357090Y-52554399D01*
X99356729Y-52556155D01*
X99245279Y-52697528D01*
X99143201Y-52891548D01*
X99078187Y-53100924D01*
X99052419Y-53318638D01*
X99062105Y-53466420D01*
X99061220Y-53468214D01*
X99059224Y-53468345D01*
X99058246Y-53467280D01*
X99033531Y-53404095D01*
X98977436Y-53363475D01*
X98908284Y-53359632D01*
X98848537Y-53393497D01*
X98846537Y-53393481D01*
X98845551Y-53391741D01*
X98845995Y-53390501D01*
X98848099Y-53387894D01*
X98959552Y-53185997D01*
X99034250Y-52967819D01*
X99069943Y-52739891D01*
X99084705Y-52523353D01*
X99085820Y-52521693D01*
X99087815Y-52521829D01*
G37*
G36*
X60987815Y-52521829D02*
G01*
X60988653Y-52523057D01*
X61003727Y-52591253D01*
X61052861Y-52640061D01*
X61120586Y-52654557D01*
X61185525Y-52630090D01*
X61212254Y-52602406D01*
X61229472Y-52577818D01*
X61229696Y-52577551D01*
X61253744Y-52553503D01*
X61255676Y-52552985D01*
X61257090Y-52554399D01*
X61256729Y-52556155D01*
X61145279Y-52697528D01*
X61043201Y-52891548D01*
X60978187Y-53100924D01*
X60952419Y-53318638D01*
X60962105Y-53466420D01*
X60961220Y-53468214D01*
X60959224Y-53468345D01*
X60958246Y-53467280D01*
X60933531Y-53404095D01*
X60877436Y-53363475D01*
X60808284Y-53359632D01*
X60748537Y-53393497D01*
X60746537Y-53393481D01*
X60745551Y-53391741D01*
X60745995Y-53390501D01*
X60748099Y-53387894D01*
X60859552Y-53185997D01*
X60934250Y-52967819D01*
X60969943Y-52739891D01*
X60984705Y-52523353D01*
X60985820Y-52521693D01*
X60987815Y-52521829D01*
G37*
G36*
X213387815Y-52521829D02*
G01*
X213388653Y-52523057D01*
X213403727Y-52591253D01*
X213452861Y-52640061D01*
X213520586Y-52654557D01*
X213585525Y-52630090D01*
X213612254Y-52602406D01*
X213629472Y-52577818D01*
X213629696Y-52577551D01*
X213653744Y-52553503D01*
X213655676Y-52552985D01*
X213657090Y-52554399D01*
X213656729Y-52556155D01*
X213545279Y-52697528D01*
X213443201Y-52891548D01*
X213378187Y-53100924D01*
X213352419Y-53318638D01*
X213362105Y-53466420D01*
X213361220Y-53468214D01*
X213359224Y-53468345D01*
X213358246Y-53467280D01*
X213333531Y-53404095D01*
X213277436Y-53363475D01*
X213208284Y-53359632D01*
X213148537Y-53393497D01*
X213146537Y-53393481D01*
X213145551Y-53391741D01*
X213145995Y-53390501D01*
X213148099Y-53387894D01*
X213259552Y-53185997D01*
X213334250Y-52967819D01*
X213369943Y-52739891D01*
X213384705Y-52523353D01*
X213385820Y-52521693D01*
X213387815Y-52521829D01*
G37*
G36*
X118137815Y-52521829D02*
G01*
X118138653Y-52523057D01*
X118153727Y-52591253D01*
X118202861Y-52640061D01*
X118270586Y-52654557D01*
X118335525Y-52630090D01*
X118362254Y-52602406D01*
X118379472Y-52577818D01*
X118379696Y-52577551D01*
X118403744Y-52553503D01*
X118405676Y-52552985D01*
X118407090Y-52554399D01*
X118406729Y-52556155D01*
X118295279Y-52697528D01*
X118193201Y-52891548D01*
X118128187Y-53100924D01*
X118102419Y-53318638D01*
X118112105Y-53466420D01*
X118111220Y-53468214D01*
X118109224Y-53468345D01*
X118108246Y-53467280D01*
X118083531Y-53404095D01*
X118027436Y-53363475D01*
X117958284Y-53359632D01*
X117898537Y-53393497D01*
X117896537Y-53393481D01*
X117895551Y-53391741D01*
X117895995Y-53390501D01*
X117898099Y-53387894D01*
X118009552Y-53185997D01*
X118084250Y-52967819D01*
X118119943Y-52739891D01*
X118134705Y-52523353D01*
X118135820Y-52521693D01*
X118137815Y-52521829D01*
G37*
G36*
X175287815Y-52521829D02*
G01*
X175288653Y-52523057D01*
X175303727Y-52591253D01*
X175352861Y-52640061D01*
X175420586Y-52654557D01*
X175485525Y-52630090D01*
X175512254Y-52602406D01*
X175529472Y-52577818D01*
X175529696Y-52577551D01*
X175553744Y-52553503D01*
X175555676Y-52552985D01*
X175557090Y-52554399D01*
X175556729Y-52556155D01*
X175445279Y-52697528D01*
X175343201Y-52891548D01*
X175278187Y-53100924D01*
X175252419Y-53318638D01*
X175262105Y-53466420D01*
X175261220Y-53468214D01*
X175259224Y-53468345D01*
X175258246Y-53467280D01*
X175233531Y-53404095D01*
X175177436Y-53363475D01*
X175108284Y-53359632D01*
X175048537Y-53393497D01*
X175046537Y-53393481D01*
X175045551Y-53391741D01*
X175045995Y-53390501D01*
X175048099Y-53387894D01*
X175159552Y-53185997D01*
X175234250Y-52967819D01*
X175269943Y-52739891D01*
X175284705Y-52523353D01*
X175285820Y-52521693D01*
X175287815Y-52521829D01*
G37*
G36*
X137187815Y-52521829D02*
G01*
X137188653Y-52523057D01*
X137203727Y-52591253D01*
X137252861Y-52640061D01*
X137320586Y-52654557D01*
X137385525Y-52630090D01*
X137412254Y-52602406D01*
X137429472Y-52577818D01*
X137429696Y-52577551D01*
X137453744Y-52553503D01*
X137455676Y-52552985D01*
X137457090Y-52554399D01*
X137456729Y-52556155D01*
X137345279Y-52697528D01*
X137243201Y-52891548D01*
X137178187Y-53100924D01*
X137152419Y-53318638D01*
X137162105Y-53466420D01*
X137161220Y-53468214D01*
X137159224Y-53468345D01*
X137158246Y-53467280D01*
X137133531Y-53404095D01*
X137077436Y-53363475D01*
X137008284Y-53359632D01*
X136948537Y-53393497D01*
X136946537Y-53393481D01*
X136945551Y-53391741D01*
X136945995Y-53390501D01*
X136948099Y-53387894D01*
X137059552Y-53185997D01*
X137134250Y-52967819D01*
X137169943Y-52739891D01*
X137184705Y-52523353D01*
X137185820Y-52521693D01*
X137187815Y-52521829D01*
G37*
G36*
X194337815Y-52521829D02*
G01*
X194338653Y-52523057D01*
X194353727Y-52591253D01*
X194402861Y-52640061D01*
X194470586Y-52654557D01*
X194535525Y-52630090D01*
X194562254Y-52602406D01*
X194579472Y-52577818D01*
X194579696Y-52577551D01*
X194603744Y-52553503D01*
X194605676Y-52552985D01*
X194607090Y-52554399D01*
X194606729Y-52556155D01*
X194495279Y-52697528D01*
X194393201Y-52891548D01*
X194328187Y-53100924D01*
X194302419Y-53318638D01*
X194312105Y-53466420D01*
X194311220Y-53468214D01*
X194309224Y-53468345D01*
X194308246Y-53467280D01*
X194283531Y-53404095D01*
X194227436Y-53363475D01*
X194158284Y-53359632D01*
X194098537Y-53393497D01*
X194096537Y-53393481D01*
X194095551Y-53391741D01*
X194095995Y-53390501D01*
X194098099Y-53387894D01*
X194209552Y-53185997D01*
X194284250Y-52967819D01*
X194319943Y-52739891D01*
X194334705Y-52523353D01*
X194335820Y-52521693D01*
X194337815Y-52521829D01*
G37*
G36*
X156237815Y-52521829D02*
G01*
X156238653Y-52523057D01*
X156253727Y-52591253D01*
X156302861Y-52640061D01*
X156370586Y-52654557D01*
X156435525Y-52630090D01*
X156462254Y-52602406D01*
X156479472Y-52577818D01*
X156479696Y-52577551D01*
X156503744Y-52553503D01*
X156505676Y-52552985D01*
X156507090Y-52554399D01*
X156506729Y-52556155D01*
X156395279Y-52697528D01*
X156293201Y-52891548D01*
X156228187Y-53100924D01*
X156202419Y-53318638D01*
X156212105Y-53466420D01*
X156211220Y-53468214D01*
X156209224Y-53468345D01*
X156208246Y-53467280D01*
X156183531Y-53404095D01*
X156127436Y-53363475D01*
X156058284Y-53359632D01*
X155998537Y-53393497D01*
X155996537Y-53393481D01*
X155995551Y-53391741D01*
X155995995Y-53390501D01*
X155998099Y-53387894D01*
X156109552Y-53185997D01*
X156184250Y-52967819D01*
X156219943Y-52739891D01*
X156234705Y-52523353D01*
X156235820Y-52521693D01*
X156237815Y-52521829D01*
G37*
G36*
X58350185Y-51281109D02*
G01*
X58351101Y-51282420D01*
X58363130Y-51342271D01*
X58411320Y-51392014D01*
X58478752Y-51407807D01*
X58544087Y-51384612D01*
X58579822Y-51344143D01*
X58583241Y-51337923D01*
X58583422Y-51337649D01*
X58584775Y-51335929D01*
X58586632Y-51335186D01*
X58588204Y-51336423D01*
X58588098Y-51338133D01*
X58567918Y-51374689D01*
X58567805Y-51374869D01*
X58544256Y-51408501D01*
X58517101Y-51466735D01*
X58517039Y-51466857D01*
X58479990Y-51533972D01*
X58464118Y-51580331D01*
X58464039Y-51580528D01*
X58446794Y-51617510D01*
X58430268Y-51679187D01*
X58430228Y-51679317D01*
X58405292Y-51752149D01*
X58397678Y-51800769D01*
X58397634Y-51800978D01*
X58387106Y-51840268D01*
X58381560Y-51903661D01*
X58381544Y-51903796D01*
X58369599Y-51980077D01*
X58368162Y-52001146D01*
X58367047Y-52002806D01*
X58365051Y-52002670D01*
X58364214Y-52001442D01*
X58349140Y-51933244D01*
X58300006Y-51884436D01*
X58232281Y-51869940D01*
X58167342Y-51894407D01*
X58152064Y-51910231D01*
X58150141Y-51910783D01*
X58148703Y-51909393D01*
X58148880Y-51907865D01*
X58244420Y-51737268D01*
X58314892Y-51529663D01*
X58346359Y-51312633D01*
X58347141Y-51282762D01*
X58348186Y-51281056D01*
X58350185Y-51281109D01*
G37*
G36*
X191700185Y-51281109D02*
G01*
X191701101Y-51282420D01*
X191713130Y-51342271D01*
X191761320Y-51392014D01*
X191828752Y-51407807D01*
X191894087Y-51384612D01*
X191929822Y-51344143D01*
X191933241Y-51337923D01*
X191933422Y-51337649D01*
X191934775Y-51335929D01*
X191936632Y-51335186D01*
X191938204Y-51336423D01*
X191938098Y-51338133D01*
X191917918Y-51374689D01*
X191917805Y-51374869D01*
X191894256Y-51408501D01*
X191867101Y-51466735D01*
X191867039Y-51466857D01*
X191829990Y-51533972D01*
X191814118Y-51580331D01*
X191814039Y-51580528D01*
X191796794Y-51617510D01*
X191780268Y-51679187D01*
X191780228Y-51679317D01*
X191755292Y-51752149D01*
X191747678Y-51800769D01*
X191747634Y-51800978D01*
X191737106Y-51840268D01*
X191731560Y-51903661D01*
X191731544Y-51903796D01*
X191719599Y-51980077D01*
X191718162Y-52001146D01*
X191717047Y-52002806D01*
X191715051Y-52002670D01*
X191714214Y-52001442D01*
X191699140Y-51933244D01*
X191650006Y-51884436D01*
X191582281Y-51869940D01*
X191517342Y-51894407D01*
X191502064Y-51910231D01*
X191500141Y-51910783D01*
X191498703Y-51909393D01*
X191498880Y-51907865D01*
X191594420Y-51737268D01*
X191664892Y-51529663D01*
X191696359Y-51312633D01*
X191697141Y-51282762D01*
X191698186Y-51281056D01*
X191700185Y-51281109D01*
G37*
G36*
X77400185Y-51281109D02*
G01*
X77401101Y-51282420D01*
X77413130Y-51342271D01*
X77461320Y-51392014D01*
X77528752Y-51407807D01*
X77594087Y-51384612D01*
X77629822Y-51344143D01*
X77633241Y-51337923D01*
X77633422Y-51337649D01*
X77634775Y-51335929D01*
X77636632Y-51335186D01*
X77638204Y-51336423D01*
X77638098Y-51338133D01*
X77617918Y-51374689D01*
X77617805Y-51374869D01*
X77594256Y-51408501D01*
X77567101Y-51466735D01*
X77567039Y-51466857D01*
X77529990Y-51533972D01*
X77514118Y-51580331D01*
X77514039Y-51580528D01*
X77496794Y-51617510D01*
X77480268Y-51679187D01*
X77480228Y-51679317D01*
X77455292Y-51752149D01*
X77447678Y-51800769D01*
X77447634Y-51800978D01*
X77437106Y-51840268D01*
X77431560Y-51903661D01*
X77431544Y-51903796D01*
X77419599Y-51980077D01*
X77418162Y-52001146D01*
X77417047Y-52002806D01*
X77415051Y-52002670D01*
X77414214Y-52001442D01*
X77399140Y-51933244D01*
X77350006Y-51884436D01*
X77282281Y-51869940D01*
X77217342Y-51894407D01*
X77202064Y-51910231D01*
X77200141Y-51910783D01*
X77198703Y-51909393D01*
X77198880Y-51907865D01*
X77294420Y-51737268D01*
X77364892Y-51529663D01*
X77396359Y-51312633D01*
X77397141Y-51282762D01*
X77398186Y-51281056D01*
X77400185Y-51281109D01*
G37*
G36*
X96450185Y-51281109D02*
G01*
X96451101Y-51282420D01*
X96463130Y-51342271D01*
X96511320Y-51392014D01*
X96578752Y-51407807D01*
X96644087Y-51384612D01*
X96679822Y-51344143D01*
X96683241Y-51337923D01*
X96683422Y-51337649D01*
X96684775Y-51335929D01*
X96686632Y-51335186D01*
X96688204Y-51336423D01*
X96688098Y-51338133D01*
X96667918Y-51374689D01*
X96667805Y-51374869D01*
X96644256Y-51408501D01*
X96617101Y-51466735D01*
X96617039Y-51466857D01*
X96579990Y-51533972D01*
X96564118Y-51580331D01*
X96564039Y-51580528D01*
X96546794Y-51617510D01*
X96530268Y-51679187D01*
X96530228Y-51679317D01*
X96505292Y-51752149D01*
X96497678Y-51800769D01*
X96497634Y-51800978D01*
X96487106Y-51840268D01*
X96481560Y-51903661D01*
X96481544Y-51903796D01*
X96469599Y-51980077D01*
X96468162Y-52001146D01*
X96467047Y-52002806D01*
X96465051Y-52002670D01*
X96464214Y-52001442D01*
X96449140Y-51933244D01*
X96400006Y-51884436D01*
X96332281Y-51869940D01*
X96267342Y-51894407D01*
X96252064Y-51910231D01*
X96250141Y-51910783D01*
X96248703Y-51909393D01*
X96248880Y-51907865D01*
X96344420Y-51737268D01*
X96414892Y-51529663D01*
X96446359Y-51312633D01*
X96447141Y-51282762D01*
X96448186Y-51281056D01*
X96450185Y-51281109D01*
G37*
G36*
X210750185Y-51281109D02*
G01*
X210751101Y-51282420D01*
X210763130Y-51342271D01*
X210811320Y-51392014D01*
X210878752Y-51407807D01*
X210944087Y-51384612D01*
X210979822Y-51344143D01*
X210983241Y-51337923D01*
X210983422Y-51337649D01*
X210984775Y-51335929D01*
X210986632Y-51335186D01*
X210988204Y-51336423D01*
X210988098Y-51338133D01*
X210967918Y-51374689D01*
X210967805Y-51374869D01*
X210944256Y-51408501D01*
X210917101Y-51466735D01*
X210917039Y-51466857D01*
X210879990Y-51533972D01*
X210864118Y-51580331D01*
X210864039Y-51580528D01*
X210846794Y-51617510D01*
X210830268Y-51679187D01*
X210830228Y-51679317D01*
X210805292Y-51752149D01*
X210797678Y-51800769D01*
X210797634Y-51800978D01*
X210787106Y-51840268D01*
X210781560Y-51903661D01*
X210781544Y-51903796D01*
X210769599Y-51980077D01*
X210768162Y-52001146D01*
X210767047Y-52002806D01*
X210765051Y-52002670D01*
X210764214Y-52001442D01*
X210749140Y-51933244D01*
X210700006Y-51884436D01*
X210632281Y-51869940D01*
X210567342Y-51894407D01*
X210552064Y-51910231D01*
X210550141Y-51910783D01*
X210548703Y-51909393D01*
X210548880Y-51907865D01*
X210644420Y-51737268D01*
X210714892Y-51529663D01*
X210746359Y-51312633D01*
X210747141Y-51282762D01*
X210748186Y-51281056D01*
X210750185Y-51281109D01*
G37*
G36*
X115500185Y-51281109D02*
G01*
X115501101Y-51282420D01*
X115513130Y-51342271D01*
X115561320Y-51392014D01*
X115628752Y-51407807D01*
X115694087Y-51384612D01*
X115729822Y-51344143D01*
X115733241Y-51337923D01*
X115733422Y-51337649D01*
X115734775Y-51335929D01*
X115736632Y-51335186D01*
X115738204Y-51336423D01*
X115738098Y-51338133D01*
X115717918Y-51374689D01*
X115717805Y-51374869D01*
X115694256Y-51408501D01*
X115667101Y-51466735D01*
X115667039Y-51466857D01*
X115629990Y-51533972D01*
X115614118Y-51580331D01*
X115614039Y-51580528D01*
X115596794Y-51617510D01*
X115580268Y-51679187D01*
X115580228Y-51679317D01*
X115555292Y-51752149D01*
X115547678Y-51800769D01*
X115547634Y-51800978D01*
X115537106Y-51840268D01*
X115531560Y-51903661D01*
X115531544Y-51903796D01*
X115519599Y-51980077D01*
X115518162Y-52001146D01*
X115517047Y-52002806D01*
X115515051Y-52002670D01*
X115514214Y-52001442D01*
X115499140Y-51933244D01*
X115450006Y-51884436D01*
X115382281Y-51869940D01*
X115317342Y-51894407D01*
X115302064Y-51910231D01*
X115300141Y-51910783D01*
X115298703Y-51909393D01*
X115298880Y-51907865D01*
X115394420Y-51737268D01*
X115464892Y-51529663D01*
X115496359Y-51312633D01*
X115497141Y-51282762D01*
X115498186Y-51281056D01*
X115500185Y-51281109D01*
G37*
G36*
X134550185Y-51281109D02*
G01*
X134551101Y-51282420D01*
X134563130Y-51342271D01*
X134611320Y-51392014D01*
X134678752Y-51407807D01*
X134744087Y-51384612D01*
X134779822Y-51344143D01*
X134783241Y-51337923D01*
X134783422Y-51337649D01*
X134784775Y-51335929D01*
X134786632Y-51335186D01*
X134788204Y-51336423D01*
X134788098Y-51338133D01*
X134767918Y-51374689D01*
X134767805Y-51374869D01*
X134744256Y-51408501D01*
X134717101Y-51466735D01*
X134717039Y-51466857D01*
X134679990Y-51533972D01*
X134664118Y-51580331D01*
X134664039Y-51580528D01*
X134646794Y-51617510D01*
X134630268Y-51679187D01*
X134630228Y-51679317D01*
X134605292Y-51752149D01*
X134597678Y-51800769D01*
X134597634Y-51800978D01*
X134587106Y-51840268D01*
X134581560Y-51903661D01*
X134581544Y-51903796D01*
X134569599Y-51980077D01*
X134568162Y-52001146D01*
X134567047Y-52002806D01*
X134565051Y-52002670D01*
X134564214Y-52001442D01*
X134549140Y-51933244D01*
X134500006Y-51884436D01*
X134432281Y-51869940D01*
X134367342Y-51894407D01*
X134352064Y-51910231D01*
X134350141Y-51910783D01*
X134348703Y-51909393D01*
X134348880Y-51907865D01*
X134444420Y-51737268D01*
X134514892Y-51529663D01*
X134546359Y-51312633D01*
X134547141Y-51282762D01*
X134548186Y-51281056D01*
X134550185Y-51281109D01*
G37*
G36*
X153600185Y-51281109D02*
G01*
X153601101Y-51282420D01*
X153613130Y-51342271D01*
X153661320Y-51392014D01*
X153728752Y-51407807D01*
X153794087Y-51384612D01*
X153829822Y-51344143D01*
X153833241Y-51337923D01*
X153833422Y-51337649D01*
X153834775Y-51335929D01*
X153836632Y-51335186D01*
X153838204Y-51336423D01*
X153838098Y-51338133D01*
X153817918Y-51374689D01*
X153817805Y-51374869D01*
X153794256Y-51408501D01*
X153767101Y-51466735D01*
X153767039Y-51466857D01*
X153729990Y-51533972D01*
X153714118Y-51580331D01*
X153714039Y-51580528D01*
X153696794Y-51617510D01*
X153680268Y-51679187D01*
X153680228Y-51679317D01*
X153655292Y-51752149D01*
X153647678Y-51800769D01*
X153647634Y-51800978D01*
X153637106Y-51840268D01*
X153631560Y-51903661D01*
X153631544Y-51903796D01*
X153619599Y-51980077D01*
X153618162Y-52001146D01*
X153617047Y-52002806D01*
X153615051Y-52002670D01*
X153614214Y-52001442D01*
X153599140Y-51933244D01*
X153550006Y-51884436D01*
X153482281Y-51869940D01*
X153417342Y-51894407D01*
X153402064Y-51910231D01*
X153400141Y-51910783D01*
X153398703Y-51909393D01*
X153398880Y-51907865D01*
X153494420Y-51737268D01*
X153564892Y-51529663D01*
X153596359Y-51312633D01*
X153597141Y-51282762D01*
X153598186Y-51281056D01*
X153600185Y-51281109D01*
G37*
G36*
X172650185Y-51281109D02*
G01*
X172651101Y-51282420D01*
X172663130Y-51342271D01*
X172711320Y-51392014D01*
X172778752Y-51407807D01*
X172844087Y-51384612D01*
X172879822Y-51344143D01*
X172883241Y-51337923D01*
X172883422Y-51337649D01*
X172884775Y-51335929D01*
X172886632Y-51335186D01*
X172888204Y-51336423D01*
X172888098Y-51338133D01*
X172867918Y-51374689D01*
X172867805Y-51374869D01*
X172844256Y-51408501D01*
X172817101Y-51466735D01*
X172817039Y-51466857D01*
X172779990Y-51533972D01*
X172764118Y-51580331D01*
X172764039Y-51580528D01*
X172746794Y-51617510D01*
X172730268Y-51679187D01*
X172730228Y-51679317D01*
X172705292Y-51752149D01*
X172697678Y-51800769D01*
X172697634Y-51800978D01*
X172687106Y-51840268D01*
X172681560Y-51903661D01*
X172681544Y-51903796D01*
X172669599Y-51980077D01*
X172668162Y-52001146D01*
X172667047Y-52002806D01*
X172665051Y-52002670D01*
X172664214Y-52001442D01*
X172649140Y-51933244D01*
X172600006Y-51884436D01*
X172532281Y-51869940D01*
X172467342Y-51894407D01*
X172452064Y-51910231D01*
X172450141Y-51910783D01*
X172448703Y-51909393D01*
X172448880Y-51907865D01*
X172544420Y-51737268D01*
X172614892Y-51529663D01*
X172646359Y-51312633D01*
X172647141Y-51282762D01*
X172648186Y-51281056D01*
X172650185Y-51281109D01*
G37*
M02*
