M48
; DRILL file {KiCad 7.0.7} date 2023 November 01, Wednesday 16:24:33
; FORMAT={-:-/ absolute / metric / decimal}
; #@! TF.CreationDate,2023-11-01T16:24:33-04:00
; #@! TF.GenerationSoftware,Kicad,Pcbnew,7.0.7
; #@! TF.FileFunction,Plated,1,2,PTH
FMAT,2
METRIC
; #@! TA.AperFunction,Plated,PTH,ComponentDrill
T1C0.300
; #@! TA.AperFunction,Plated,PTH,ViaDrill
T2C0.400
; #@! TA.AperFunction,Plated,PTH,ComponentDrill
T3C0.600
; #@! TA.AperFunction,Plated,PTH,ComponentDrill
T4C1.000
; #@! TA.AperFunction,Plated,PTH,ComponentDrill
T5C1.092
; #@! TA.AperFunction,Plated,PTH,ComponentDrill
T6C1.200
; #@! TA.AperFunction,Plated,PTH,ComponentDrill
T7C1.470
%
G90
G05
T1
X49.44Y-102.77
X50.375Y-136.575
X53.16Y-84.56
X60.17Y-125.92
X60.825Y-137.825
X60.85Y-58.95
X61.4Y-82.79
X61.625Y-122.075
X64.61Y-49.97
X65.5Y-66.95
X66.67Y-89.1
X68.3Y-81.25
X71.025Y-102.975
X71.475Y-120.6
X72.8Y-153.85
X72.8Y-153.85
X73.04Y-115.41
X73.04Y-115.41
X73.09Y-96.76
X73.09Y-96.76
X73.18Y-134.57
X73.18Y-134.57
X73.44Y-58.73
X74.14Y-84.56
X74.414Y-137.517
X75.17Y-118.51
X76.2Y-64.9
X80.28Y-58.72
X80.36Y-66.973
X84.165Y-77.265
X84.75Y-139.125
X89.315Y-52.095
X91.895Y-77.825
X92.08Y-58.36
X92.36Y-66.19
X94.54Y-61.33
X97.09Y-55.12
X98.43Y-153.93
X98.625Y-139.25
X98.84Y-97.02
X98.93Y-115.83
X98.99Y-134.99
X99.1Y-55.38
X99.215Y-78.105
X100.67Y-61.27
X101.41Y-64.88
X105.22Y-57.14
X108.075Y-71.675
X110.93Y-59.38
X111.0Y-115.88
X111.005Y-78.025
X111.06Y-153.99
X111.07Y-96.68
X111.22Y-134.65
X113.109Y-61.317
X117.872Y-58.341
X120.7Y-65.775
X120.848Y-54.769
X122.75Y-157.35
X122.8Y-139.0
X123.375Y-50.855
X124.32Y-74.3
X124.93Y-82.52
X128.365Y-50.935
X132.755Y-61.317
X136.57Y-153.96
X136.9Y-115.91
X136.96Y-77.9
X136.96Y-77.9
X137.19Y-58.89
X137.19Y-58.89
X137.45Y-135.1
X137.5Y-97.04
X139.125Y-70.9
X142.1Y-139.875
X145.85Y-67.1
X146.385Y-51.505
X148.605Y-61.015
X149.055Y-58.785
X149.08Y-77.95
X149.11Y-115.99
X149.19Y-134.8
X149.26Y-97.0
X149.26Y-154.07
X157.75Y-139.25
X169.664Y-61.317
X174.59Y-153.8
X174.59Y-153.8
X174.59Y-153.8
X174.725Y-66.225
X175.085Y-78.035
X175.095Y-58.815
X175.14Y-116.06
X175.14Y-116.06
X175.14Y-116.06
X175.24Y-96.89
X175.24Y-96.89
X175.25Y-134.91
X175.25Y-134.91
X175.25Y-134.91
X175.7Y-139.55
X185.46Y-126.57
X186.245Y-139.095
X187.045Y-115.945
X187.175Y-58.895
X187.195Y-134.955
X187.435Y-77.475
X188.06Y-49.26
X190.13Y-86.24
X190.13Y-86.24
X191.8Y-103.075
X191.8Y-157.0
X192.125Y-65.775
X193.1Y-120.275
X193.64Y-154.12
X194.26Y-77.72
X194.26Y-77.72
X194.26Y-96.96
X194.26Y-96.96
X194.275Y-58.835
X194.31Y-116.16
X194.31Y-116.16
X194.31Y-116.16
X194.39Y-135.2
X194.39Y-135.2
X194.39Y-135.2
X195.0Y-139.85
X195.04Y-125.73
X202.575Y-75.5
X204.025Y-139.525
X206.315Y-58.895
X206.355Y-134.925
X206.385Y-77.755
X206.4Y-153.93
X206.47Y-96.785
X207.0Y-49.47
X209.925Y-157.225
X210.65Y-84.825
X210.741Y-64.889
X211.35Y-104.5
X212.526Y-154.186
X212.65Y-139.45
X212.975Y-77.925
X213.175Y-135.185
X213.215Y-115.945
X213.225Y-58.835
X213.32Y-96.975
X215.225Y-126.975
T2
X48.705Y-59.84
X49.59Y-97.42
X49.663Y-70.477
X50.69Y-49.61
X70.845Y-68.51
X85.395Y-62.255
X85.62Y-58.63
X88.345Y-58.539
X89.54Y-63.583
X90.36Y-59.25
X103.07Y-59.502
X103.132Y-50.47
X106.28Y-50.46
X106.28Y-52.08
X107.23Y-68.22
X107.24Y-64.26
X126.42Y-49.72
X126.42Y-64.7
X140.12Y-65.21
X140.31Y-85.5
X157.7Y-64.28
X158.83Y-68.73
X159.46Y-50.52
X160.42Y-50.18
X173.95Y-62.31
X177.7Y-60.61
X177.84Y-64.34
X178.52Y-76.07
X178.8Y-57.23
T4
X65.484Y-53.25
X65.484Y-61.05
X65.484Y-72.3
X65.484Y-80.1
X65.484Y-91.35
X65.484Y-99.15
X65.484Y-110.4
X65.484Y-118.2
X65.484Y-129.45
X65.484Y-137.25
X65.484Y-148.5
X65.484Y-156.3
X67.866Y-91.35
X67.866Y-99.15
X67.866Y-110.4
X67.866Y-118.2
X67.866Y-129.45
X67.866Y-137.25
X67.866Y-148.5
X67.866Y-156.3
X86.916Y-53.25
X86.916Y-61.05
X86.916Y-72.3
X86.916Y-80.1
X103.584Y-72.3
X103.584Y-80.1
X103.584Y-91.35
X103.584Y-99.15
X103.584Y-110.4
X103.584Y-118.2
X103.584Y-129.45
X103.584Y-137.25
X103.584Y-148.5
X103.584Y-156.3
X105.966Y-72.3
X105.966Y-80.1
X105.966Y-91.35
X105.966Y-99.15
X105.966Y-110.4
X105.966Y-118.2
X105.966Y-129.45
X105.966Y-137.25
X105.966Y-148.5
X105.966Y-156.3
X122.634Y-53.25
X122.634Y-61.05
X125.016Y-53.25
X125.016Y-61.05
X141.684Y-53.25
X141.684Y-61.05
X141.684Y-72.3
X141.684Y-80.1
X141.684Y-91.35
X141.684Y-99.15
X141.684Y-110.4
X141.684Y-118.2
X141.684Y-129.45
X141.684Y-137.25
X141.684Y-148.5
X141.684Y-156.3
X144.066Y-53.25
X144.066Y-61.05
X144.066Y-72.3
X144.066Y-80.1
X144.066Y-91.35
X144.066Y-99.15
X144.066Y-110.4
X144.066Y-118.2
X144.066Y-129.45
X144.066Y-137.25
X144.066Y-148.5
X144.066Y-156.3
X179.785Y-53.25
X179.785Y-61.05
X179.785Y-72.3
X179.785Y-80.1
X179.785Y-91.35
X179.785Y-99.15
X179.785Y-110.4
X179.785Y-118.2
X179.785Y-129.45
X179.785Y-137.25
X179.785Y-148.5
X179.785Y-156.3
X198.835Y-53.25
X198.835Y-61.05
X198.835Y-72.3
X198.835Y-80.1
X198.835Y-91.35
X198.835Y-99.15
X198.835Y-110.4
X198.835Y-118.2
X198.835Y-129.45
X198.835Y-137.25
X198.835Y-148.5
X198.835Y-156.3
X217.885Y-53.25
X217.885Y-61.05
X217.885Y-72.3
X217.885Y-80.1
X217.885Y-91.35
X217.885Y-99.15
X217.885Y-110.4
X217.885Y-118.2
X217.885Y-129.45
X217.885Y-137.25
X217.885Y-148.5
X217.885Y-156.3
T5
X49.411Y-100.608
X49.411Y-104.775
X49.411Y-108.942
X68.351Y-45.561
X68.351Y-50.641
X68.351Y-55.721
X68.351Y-60.801
X68.351Y-65.881
X68.351Y-70.961
X68.809Y-48.101
X68.809Y-53.181
X68.809Y-58.261
X68.809Y-63.341
X68.809Y-68.421
X68.809Y-73.501
X83.591Y-48.101
X83.591Y-53.181
X83.591Y-58.261
X83.591Y-63.341
X83.591Y-68.421
X83.591Y-73.501
X84.049Y-45.561
X84.049Y-50.641
X84.049Y-55.721
X84.049Y-60.801
X84.049Y-65.881
X84.049Y-70.961
X161.925Y-85.725
T6
X57.15Y-70.3
X57.15Y-89.35
X57.15Y-108.4
X57.15Y-127.45
X57.15Y-146.5
X62.15Y-72.4
X62.15Y-91.45
X62.15Y-110.5
X62.15Y-129.55
X62.15Y-148.6
X76.2Y-51.25
X76.2Y-70.3
X76.2Y-89.35
X76.2Y-108.4
X76.2Y-127.45
X76.2Y-146.5
X81.2Y-53.35
X81.2Y-72.4
X81.2Y-91.45
X81.2Y-110.5
X81.2Y-129.55
X81.2Y-148.6
X95.25Y-51.25
X95.25Y-70.3
X95.25Y-89.35
X95.25Y-108.4
X95.25Y-127.45
X95.25Y-146.5
X100.25Y-53.35
X100.25Y-72.4
X100.25Y-91.45
X100.25Y-110.5
X100.25Y-129.55
X100.25Y-148.6
X114.3Y-51.25
X114.3Y-70.3
X114.3Y-89.35
X114.3Y-108.4
X114.3Y-127.45
X114.3Y-146.5
X119.3Y-53.35
X119.3Y-72.4
X119.3Y-91.45
X119.3Y-110.5
X119.3Y-129.55
X119.3Y-148.6
X133.35Y-51.25
X133.35Y-70.3
X133.35Y-89.35
X133.35Y-108.4
X133.35Y-127.45
X133.35Y-146.5
X138.35Y-53.35
X138.35Y-72.4
X138.35Y-91.45
X138.35Y-110.5
X138.35Y-129.55
X138.35Y-148.6
X152.4Y-51.25
X152.4Y-70.3
X152.4Y-89.35
X152.4Y-108.4
X152.4Y-127.45
X152.4Y-146.5
X157.4Y-53.35
X157.4Y-72.4
X157.4Y-91.45
X157.4Y-110.5
X157.4Y-129.55
X157.4Y-148.6
X171.45Y-51.25
X171.45Y-70.3
X171.45Y-89.35
X171.45Y-108.4
X171.45Y-127.45
X171.45Y-146.5
X176.45Y-53.35
X176.45Y-72.4
X176.45Y-91.45
X176.45Y-110.5
X176.45Y-129.55
X176.45Y-148.6
X190.5Y-51.25
X190.5Y-70.3
X190.5Y-89.35
X190.5Y-108.4
X190.5Y-127.45
X190.5Y-146.5
X195.5Y-53.35
X195.5Y-72.4
X195.5Y-91.45
X195.5Y-110.5
X195.5Y-129.55
X195.5Y-148.6
X209.55Y-51.25
X209.55Y-70.3
X209.55Y-89.35
X209.55Y-108.4
X209.55Y-127.45
X209.55Y-146.5
X214.55Y-53.35
X214.55Y-72.4
X214.55Y-91.45
X214.55Y-110.5
X214.55Y-129.55
X214.55Y-148.6
T7
X53.34Y-54.61
X53.34Y-73.66
X53.34Y-92.71
X53.34Y-111.76
X53.34Y-130.81
X53.34Y-149.86
X54.65Y-53.15
X54.65Y-72.2
X54.65Y-91.25
X54.65Y-110.3
X54.65Y-129.35
X54.65Y-148.4
X57.15Y-51.25
X59.65Y-52.65
X59.65Y-71.7
X59.65Y-90.75
X59.65Y-109.8
X59.65Y-128.85
X59.65Y-147.9
X59.69Y-52.07
X59.69Y-71.12
X59.69Y-90.17
X59.69Y-109.22
X59.69Y-128.27
X59.69Y-147.32
X62.15Y-53.35
X72.39Y-54.61
X72.39Y-73.66
X72.39Y-92.71
X72.39Y-111.76
X72.39Y-130.81
X72.39Y-149.86
X73.7Y-53.15
X73.7Y-72.2
X73.7Y-91.25
X73.7Y-110.3
X73.7Y-129.35
X73.7Y-148.4
X78.7Y-52.65
X78.7Y-71.7
X78.7Y-90.75
X78.7Y-109.8
X78.7Y-128.85
X78.7Y-147.9
X78.74Y-52.07
X78.74Y-71.12
X78.74Y-90.17
X78.74Y-109.22
X78.74Y-128.27
X78.74Y-147.32
X91.44Y-54.61
X91.44Y-73.66
X91.44Y-92.71
X91.44Y-111.76
X91.44Y-130.81
X91.44Y-149.86
X92.75Y-53.15
X92.75Y-72.2
X92.75Y-91.25
X92.75Y-110.3
X92.75Y-129.35
X92.75Y-148.4
X97.75Y-52.65
X97.75Y-71.7
X97.75Y-90.75
X97.75Y-109.8
X97.75Y-128.85
X97.75Y-147.9
X97.79Y-52.07
X97.79Y-71.12
X97.79Y-90.17
X97.79Y-109.22
X97.79Y-128.27
X97.79Y-147.32
X110.49Y-54.61
X110.49Y-73.66
X110.49Y-92.71
X110.49Y-111.76
X110.49Y-130.81
X110.49Y-149.86
X111.8Y-53.15
X111.8Y-72.2
X111.8Y-91.25
X111.8Y-110.3
X111.8Y-129.35
X111.8Y-148.4
X116.8Y-52.65
X116.8Y-71.7
X116.8Y-90.75
X116.8Y-109.8
X116.8Y-128.85
X116.8Y-147.9
X116.84Y-52.07
X116.84Y-71.12
X116.84Y-90.17
X116.84Y-109.22
X116.84Y-128.27
X116.84Y-147.32
X129.54Y-54.61
X129.54Y-73.66
X129.54Y-92.71
X129.54Y-111.76
X129.54Y-130.81
X129.54Y-149.86
X130.85Y-53.15
X130.85Y-72.2
X130.85Y-91.25
X130.85Y-110.3
X130.85Y-129.35
X130.85Y-148.4
X135.85Y-52.65
X135.85Y-71.7
X135.85Y-90.75
X135.85Y-109.8
X135.85Y-128.85
X135.85Y-147.9
X135.89Y-52.07
X135.89Y-71.12
X135.89Y-90.17
X135.89Y-109.22
X135.89Y-128.27
X135.89Y-147.32
X148.59Y-54.61
X148.59Y-73.66
X148.59Y-92.71
X148.59Y-111.76
X148.59Y-130.81
X148.59Y-149.86
X149.9Y-53.15
X149.9Y-72.2
X149.9Y-91.25
X149.9Y-110.3
X149.9Y-129.35
X149.9Y-148.4
X154.9Y-52.65
X154.9Y-71.7
X154.9Y-90.75
X154.9Y-109.8
X154.9Y-128.85
X154.9Y-147.9
X154.94Y-52.07
X154.94Y-71.12
X154.94Y-90.17
X154.94Y-109.22
X154.94Y-128.27
X154.94Y-147.32
X167.64Y-54.61
X167.64Y-73.66
X167.64Y-92.71
X167.64Y-111.76
X167.64Y-130.81
X167.64Y-149.86
X168.95Y-53.15
X168.95Y-72.2
X168.95Y-91.25
X168.95Y-110.3
X168.95Y-129.35
X168.95Y-148.4
X173.95Y-52.65
X173.95Y-71.7
X173.95Y-90.75
X173.95Y-109.8
X173.95Y-128.85
X173.95Y-147.9
X173.99Y-52.07
X173.99Y-71.12
X173.99Y-90.17
X173.99Y-109.22
X173.99Y-128.27
X173.99Y-147.32
X186.69Y-54.61
X186.69Y-73.66
X186.69Y-92.71
X186.69Y-111.76
X186.69Y-130.81
X186.69Y-149.86
X188.0Y-53.15
X188.0Y-72.2
X188.0Y-91.25
X188.0Y-110.3
X188.0Y-129.35
X188.0Y-148.4
X193.0Y-52.65
X193.0Y-71.7
X193.0Y-90.75
X193.0Y-109.8
X193.0Y-128.85
X193.0Y-147.9
X193.04Y-52.07
X193.04Y-71.12
X193.04Y-90.17
X193.04Y-109.22
X193.04Y-128.27
X193.04Y-147.32
X205.74Y-54.61
X205.74Y-73.66
X205.74Y-92.71
X205.74Y-111.76
X205.74Y-130.81
X205.74Y-149.86
X207.05Y-53.15
X207.05Y-72.2
X207.05Y-91.25
X207.05Y-110.3
X207.05Y-129.35
X207.05Y-148.4
X212.05Y-52.65
X212.05Y-71.7
X212.05Y-90.75
X212.05Y-109.8
X212.05Y-128.85
X212.05Y-147.9
X212.09Y-52.07
X212.09Y-71.12
X212.09Y-90.17
X212.09Y-109.22
X212.09Y-128.27
X212.09Y-147.32
T3
G00X99.562Y-43.381
M15
G01X99.562Y-43.981
M16
G05
G00X99.562Y-47.311
M15
G01X99.562Y-48.411
M16
G05
G00X108.202Y-43.381
M15
G01X108.202Y-43.981
M16
G05
G00X108.202Y-47.311
M15
G01X108.202Y-48.411
M16
G05
G00X157.605Y-43.381
M15
G01X157.605Y-43.981
M16
G05
G00X157.605Y-47.311
M15
G01X157.605Y-48.411
M16
G05
G00X166.245Y-43.381
M15
G01X166.245Y-43.981
M16
G05
G00X166.245Y-47.311
M15
G01X166.245Y-48.411
M16
G05
T0
M30
