G04 #@! TF.GenerationSoftware,KiCad,Pcbnew,(6.0.11-0)*
G04 #@! TF.CreationDate,2023-02-07T15:52:58-05:00*
G04 #@! TF.ProjectId,bfo9000,62666f39-3030-4302-9e6b-696361645f70,rev?*
G04 #@! TF.SameCoordinates,Original*
G04 #@! TF.FileFunction,Profile,NP*
%FSLAX46Y46*%
G04 Gerber Fmt 4.6, Leading zero omitted, Abs format (unit mm)*
G04 Created by KiCad (PCBNEW (6.0.11-0)) date 2023-02-07 15:52:58*
%MOMM*%
%LPD*%
G01*
G04 APERTURE LIST*
G04 #@! TA.AperFunction,Profile*
%ADD10C,0.150000*%
G04 #@! TD*
G04 APERTURE END LIST*
D10*
X47624960Y-139898320D02*
X47624960Y-126801456D01*
X219074816Y-139898320D02*
X219074816Y-126801456D01*
X216694016Y-123230032D02*
X210740896Y-123230032D01*
X210740896Y-123230032D02*
G75*
G03*
X210740896Y-124420656I0J-595312D01*
G01*
X219075264Y-126801904D02*
G75*
G03*
X216694016Y-124420656I-2381248J0D01*
G01*
X210740896Y-124420656D02*
X216694016Y-124420656D01*
X216694016Y-123230032D02*
G75*
G03*
X219075264Y-120848784I0J2381248D01*
G01*
X47624960Y-120848304D02*
G75*
G03*
X50006208Y-123229552I2381248J0D01*
G01*
X50006208Y-124420176D02*
G75*
G03*
X47624960Y-126801424I0J-2381248D01*
G01*
X55959328Y-124420176D02*
G75*
G03*
X55959328Y-123229552I0J595312D01*
G01*
X55959328Y-123229552D02*
X50006208Y-123229552D01*
X50006208Y-124420176D02*
X55959328Y-124420176D01*
X201215456Y-157162368D02*
X201215456Y-158352992D01*
X200024832Y-158352992D02*
X200024832Y-157162368D01*
X180974848Y-50006208D02*
X180974848Y-55959328D01*
X182165472Y-55959328D02*
X182165472Y-50006208D01*
X200024832Y-50006208D02*
X200024832Y-55959328D01*
X201215456Y-55959328D02*
X201215456Y-50006208D01*
X180974848Y-55959328D02*
G75*
G03*
X182165472Y-55959328I595312J0D01*
G01*
X200024832Y-55959328D02*
G75*
G03*
X201215456Y-55959328I595312J0D01*
G01*
X197643584Y-47624960D02*
X184546720Y-47624960D01*
X216693568Y-47624960D02*
X203596704Y-47624960D01*
X200025164Y-50006288D02*
G75*
G03*
X197643916Y-47625040I-2381248J0D01*
G01*
X203597042Y-47625044D02*
G75*
G03*
X201215794Y-50006292I0J-2381248D01*
G01*
X184546720Y-47624960D02*
G75*
G03*
X182165472Y-50006208I0J-2381248D01*
G01*
X180974848Y-50006208D02*
G75*
G03*
X178593600Y-47624960I-2381248J0D01*
G01*
X202406080Y-159543616D02*
X216693568Y-159543616D01*
X183356096Y-159543616D02*
X198834208Y-159543616D01*
X180974848Y-154185808D02*
X180974848Y-158352992D01*
X182165472Y-158352992D02*
X182165472Y-154185808D01*
X200024832Y-153590496D02*
X200024832Y-157162368D01*
X201215456Y-157162368D02*
X201215456Y-153590496D01*
X182165472Y-154185808D02*
G75*
G03*
X180974848Y-154185808I-595312J0D01*
G01*
X201215456Y-153590496D02*
G75*
G03*
X200024832Y-153590496I-595312J0D01*
G01*
X201215456Y-158352992D02*
G75*
G03*
X202406080Y-159543616I1190624J0D01*
G01*
X198834542Y-159543884D02*
G75*
G03*
X200025166Y-158353260I0J1190624D01*
G01*
X182165472Y-158352992D02*
G75*
G03*
X183356096Y-159543616I1190624J0D01*
G01*
X179784224Y-159543616D02*
G75*
G03*
X180974848Y-158352992I0J1190624D01*
G01*
X210740448Y-143470192D02*
X216693568Y-143470192D01*
X216693568Y-142279568D02*
X210740448Y-142279568D01*
X210740448Y-142279568D02*
G75*
G03*
X210740448Y-143470192I0J-595312D01*
G01*
X50006208Y-143470192D02*
X55959328Y-143470192D01*
X55959328Y-142279568D02*
X50006208Y-142279568D01*
X55959328Y-143470192D02*
G75*
G03*
X55959328Y-142279568I0J595312D01*
G01*
X216693932Y-142279807D02*
G75*
G03*
X219075180Y-139898559I0J2381248D01*
G01*
X219075187Y-145851685D02*
G75*
G03*
X216693939Y-143470437I-2381248J0D01*
G01*
X219075187Y-157162613D02*
X219075187Y-145851685D01*
X47624960Y-157162368D02*
X47624960Y-145851440D01*
X50006208Y-143470192D02*
G75*
G03*
X47624960Y-145851440I0J-2381248D01*
G01*
X47624960Y-139898320D02*
G75*
G03*
X50006208Y-142279568I2381248J0D01*
G01*
X47624960Y-120848336D02*
X47624960Y-50006208D01*
X179784224Y-159543616D02*
X50006208Y-159543880D01*
X219074816Y-50006208D02*
X219074816Y-120848336D01*
X157162368Y-47624960D02*
X110132720Y-47624960D01*
X166687360Y-47624960D02*
X178593600Y-47624960D01*
X159543616Y-42862464D02*
X164306112Y-42862464D01*
X157162634Y-47625040D02*
G75*
G03*
X158353258Y-46434416I0J1190624D01*
G01*
X158353683Y-46434336D02*
X158353258Y-44053088D01*
X159543884Y-42862538D02*
G75*
G03*
X158353260Y-44053162I0J-1190624D01*
G01*
X165496852Y-46434336D02*
X165496733Y-44053088D01*
X165497014Y-44053162D02*
G75*
G03*
X164306390Y-42862538I-1190624J0D01*
G01*
X165497016Y-46434416D02*
G75*
G03*
X166687640Y-47625040I1190624J0D01*
G01*
X108942117Y-46434336D02*
X108942117Y-44053088D01*
X65484320Y-47624960D02*
X50006208Y-47624960D01*
X66674944Y-44053088D02*
X66674944Y-46434336D01*
X107751472Y-42862464D02*
X67865568Y-42862536D01*
X108942281Y-46434416D02*
G75*
G03*
X110132905Y-47625040I1190624J0D01*
G01*
X108942279Y-44053162D02*
G75*
G03*
X107751655Y-42862538I-1190624J0D01*
G01*
X67865682Y-42862536D02*
G75*
G03*
X66675058Y-44053160I0J-1190624D01*
G01*
X65484320Y-47624960D02*
G75*
G03*
X66674944Y-46434336I0J1190624D01*
G01*
X50006208Y-47624960D02*
G75*
G03*
X47624960Y-50006208I0J-2381248D01*
G01*
X219074816Y-50006208D02*
G75*
G03*
X216693568Y-47624960I-2381248J0D01*
G01*
X216693939Y-159543880D02*
G75*
G03*
X219075187Y-157162632I0J2381248D01*
G01*
X47624960Y-157162368D02*
G75*
G03*
X50006208Y-159543616I2381248J0D01*
G01*
M02*
